#N canvas 116 102 1027 844 12;
#X obj 385 -291 adc~;
#X obj 347 -204 bonk~;
#X obj 24 50 bng 40 250 50 0 empty empty empty 17 7 0 10 #fcfcfc #000000
#000000;
#X obj 385 -250 delwrite~ buffer1 1000;
#X obj 266 1113 delread~ buffer1;
#X obj 266 1161 *~;
#X msg 301 975 1 2;
#X obj 288 1024 line~;
#X obj 253 915 delay 100;
#X msg 253 944 0 10;
#X obj 373 336 + 1;
#X obj 434 288 bng 15 250 50 0 empty empty empty 17 7 0 10 #fcfcfc
#000000 #000000;
#X msg 349 734 start;
#X obj 460 -27 s attack-detected;
#X obj 24 25 r attack-detected;
#X obj 205 728 delay 100;
#X msg 205 753 stop;
#X msg 238 815 set \$1;
#X obj 282 -332 loadbang;
#X obj 299 220 r attack-detected;
#N canvas 790 319 1215 643 TheArrays 1;
#X obj 583 999 outlet~;
#X obj 32 42 table \$0-array0;
#X obj 32 91 table \$0-array2;
#X obj 32 115 table \$0-array3;
#X obj 149 42 table \$0-array4;
#X obj 149 66 table \$0-array5;
#X obj 149 91 table \$0-array6;
#X obj 149 115 table \$0-array7;
#X obj 266 42 table \$0-array8;
#X obj 266 66 table \$0-array9;
#X obj 266 91 table \$0-array10;
#X obj 266 115 table \$0-array11;
#X obj 387 42 table \$0-array12;
#X obj 387 66 table \$0-array13;
#X obj 387 91 table \$0-array14;
#X obj 387 115 table \$0-array15;
#X obj 389 244 r sr;
#X obj 370 326 phasor~;
#X obj 389 271 / 100, f 6;
#X msg 336 197 0;
#X obj 371 300 f;
#X obj 428 220 r \$0-lengthbuf;
#X obj 336 168 r \$0-array1-stop;
#X obj 371 197 r \$0-array1-start;
#X obj 370 416 env~;
#X floatatom 370 445 5 0 0 0 - - -, f 5;
#N canvas 559 477 450 346 test 0;
#X obj 83 124 soundfiler;
#X floatatom 84 160 5 0 0 0 - - -, f 5;
#X msg 56 62 read -resize snd/karate.wav \$0-array1;
#X connect 0 0 1 0;
#X connect 2 0 0 0;
#X restore 194 -58 pd test;
#X obj 32 66 table \$0-array1;
#X obj 370 386 tabread~ \$0-array1;
#X obj 370 355 *~;
#X obj 428 243 t b f f;
#X obj 165 243 r sr;
#X obj 146 325 phasor~;
#X obj 165 270 / 100, f 6;
#X msg 112 196 0;
#X obj 147 299 f;
#X obj 204 219 r \$0-lengthbuf;
#X obj 146 354 *~;
#X obj 204 242 t b f f;
#X obj 146 386 tabread~ \$0-array0;
#X obj 112 167 r \$0-array0-stop;
#X obj 146 417 env~;
#X floatatom 146 446 5 0 0 0 - - -, f 5;
#X obj 147 196 r \$0-array0-start;
#X obj 824 245 r sr;
#X obj 805 327 phasor~;
#X obj 824 272 / 100, f 6;
#X msg 771 198 0;
#X obj 806 301 f;
#X obj 863 221 r \$0-lengthbuf;
#X obj 805 356 *~;
#X obj 863 244 t b f f;
#X obj 600 244 r sr;
#X obj 581 326 phasor~;
#X obj 600 271 / 100, f 6;
#X msg 547 197 0;
#X obj 582 300 f;
#X obj 639 220 r \$0-lengthbuf;
#X obj 581 355 *~;
#X obj 639 243 t b f f;
#X obj 1259 245 r sr;
#X obj 1240 327 phasor~;
#X obj 1259 272 / 100, f 6;
#X msg 1206 198 0;
#X obj 1241 301 f;
#X obj 1298 221 r \$0-lengthbuf;
#X obj 1240 356 *~;
#X obj 1298 244 t b f f;
#X obj 1035 244 r sr;
#X obj 1016 326 phasor~;
#X obj 1035 271 / 100, f 6;
#X obj 1017 300 f;
#X obj 1074 220 r \$0-lengthbuf;
#X obj 1016 355 *~;
#X obj 1074 243 t b f f;
#X obj 1680 245 r sr;
#X obj 1661 327 phasor~;
#X obj 1680 272 / 100, f 6;
#X msg 1627 198 0;
#X obj 1662 301 f;
#X obj 1719 221 r \$0-lengthbuf;
#X obj 1661 356 *~;
#X obj 1719 244 t b f f;
#X obj 581 413 env~;
#X floatatom 581 442 5 0 0 0 - - -, f 5;
#X obj 805 412 env~;
#X floatatom 805 441 5 0 0 0 - - -, f 5;
#X obj 1016 411 env~;
#X floatatom 1016 440 5 0 0 0 - - -, f 5;
#X obj 1240 411 env~;
#X floatatom 1240 440 5 0 0 0 - - -, f 5;
#X obj 1661 411 env~;
#X floatatom 1661 440 5 0 0 0 - - -, f 5;
#X obj 547 168 r \$0-array2-stop;
#X obj 582 197 r \$0-array2-start;
#X obj 581 387 tabread~ \$0-array2;
#X obj 771 169 r \$0-array3-stop;
#X obj 806 198 r \$0-array3-start;
#X obj 982 168 r \$0-array4-stop;
#X obj 1017 197 r \$0-array4-start;
#X obj 1016 387 tabread~ \$0-array4;
#X obj 1240 387 tabread~ \$0-array5;
#X obj 1661 388 tabread~ \$0-array6;
#X obj 1627 169 r \$0-array7-stop;
#X obj 1662 198 r \$0-array7-start;
#X obj 805 387 tabread~ \$0-array3;
#X obj 1206 169 r \$0-array5-stop;
#X obj 1241 198 r \$0-array5-start;
#X obj 1176 602 r sr;
#X obj 1157 684 phasor~;
#X obj 1176 629 / 100, f 6;
#X msg 1123 555 0;
#X obj 1158 658 f;
#X obj 1215 578 r \$0-lengthbuf;
#X obj 1157 774 env~;
#X floatatom 1157 803 5 0 0 0 - - -, f 5;
#X obj 1157 713 *~;
#X obj 1215 601 t b f f;
#X obj 952 601 r sr;
#X obj 933 683 phasor~;
#X obj 952 628 / 100, f 6;
#X msg 899 554 0;
#X obj 934 657 f;
#X obj 991 577 r \$0-lengthbuf;
#X obj 933 712 *~;
#X obj 991 600 t b f f;
#X obj 933 775 env~;
#X floatatom 933 804 5 0 0 0 - - -, f 5;
#X obj 1611 603 r sr;
#X obj 1592 685 phasor~;
#X obj 1611 630 / 100, f 6;
#X msg 1558 556 0;
#X obj 1593 659 f;
#X obj 1650 579 r \$0-lengthbuf;
#X obj 1592 714 *~;
#X obj 1650 602 t b f f;
#X obj 1387 602 r sr;
#X obj 1368 684 phasor~;
#X obj 1387 629 / 100, f 6;
#X msg 1334 555 0;
#X obj 1369 658 f;
#X obj 1426 578 r \$0-lengthbuf;
#X obj 1368 713 *~;
#X obj 1426 601 t b f f;
#X obj 2046 603 r sr;
#X obj 2027 685 phasor~;
#X obj 2046 630 / 100, f 6;
#X msg 1993 556 0;
#X obj 2028 659 f;
#X obj 2085 579 r \$0-lengthbuf;
#X obj 2027 714 *~;
#X obj 2085 602 t b f f;
#X obj 1822 602 r sr;
#X obj 1803 684 phasor~;
#X obj 1822 629 / 100, f 6;
#X obj 1804 658 f;
#X obj 1861 578 r \$0-lengthbuf;
#X obj 1803 713 *~;
#X obj 1861 601 t b f f;
#X obj 2481 604 r sr;
#X obj 2462 686 phasor~;
#X obj 2481 631 / 100, f 6;
#X msg 2428 557 0;
#X obj 2463 660 f;
#X obj 2520 580 r \$0-lengthbuf;
#X obj 2462 715 *~;
#X obj 2520 603 t b f f;
#X obj 2257 603 r sr;
#X obj 2238 685 phasor~;
#X obj 2257 630 / 100, f 6;
#X msg 2204 556 0;
#X obj 2239 659 f;
#X obj 2296 579 r \$0-lengthbuf;
#X obj 2238 714 *~;
#X obj 2296 602 t b f f;
#X obj 1368 771 env~;
#X floatatom 1368 800 5 0 0 0 - - -, f 5;
#X obj 1592 770 env~;
#X floatatom 1592 799 5 0 0 0 - - -, f 5;
#X obj 1803 769 env~;
#X floatatom 1803 798 5 0 0 0 - - -, f 5;
#X obj 2027 769 env~;
#X floatatom 2027 798 5 0 0 0 - - -, f 5;
#X obj 2238 769 env~;
#X floatatom 2238 798 5 0 0 0 - - -, f 5;
#X obj 2462 771 env~;
#X floatatom 2462 800 5 0 0 0 - - -, f 5;
#X obj 899 525 r \$0-array8-stop;
#X obj 934 554 r \$0-array8-start;
#X obj 1123 526 r \$0-array9-stop;
#X obj 1158 555 r \$0-array9-start;
#X obj 1334 526 r \$0-array10-stop;
#X obj 1369 555 r \$0-array10-start;
#X obj 1558 527 r \$0-array11-stop;
#X obj 1593 556 r \$0-array11-start;
#X obj 1769 526 r \$0-array12-stop;
#X obj 1804 555 r \$0-array12-start;
#X obj 1993 527 r \$0-array13-stop;
#X obj 2028 556 r \$0-array13-start;
#X obj 2204 527 r \$0-array14-stop;
#X obj 2239 556 r \$0-array14-start;
#X obj 2428 528 r \$0-array15-stop;
#X obj 2463 557 r \$0-array15-start;
#X obj 2462 746 tabread~ \$0-array15;
#X obj 2238 746 tabread~ \$0-array14;
#X obj 2027 745 tabread~ \$0-array13;
#X obj 1803 745 tabread~ \$0-array12;
#X obj 1592 745 tabread~ \$0-array11;
#X obj 1368 745 tabread~ \$0-array10;
#X obj 1157 744 tabread~ \$0-array9;
#X obj 933 744 tabread~ \$0-array8;
#X obj 1460 242 r sr;
#X obj 1441 324 phasor~;
#X obj 1460 269 / 100, f 6;
#X msg 1407 195 0;
#X obj 1442 298 f;
#X obj 1499 218 r \$0-lengthbuf;
#X obj 1441 353 *~;
#X obj 1499 241 t b f f;
#X obj 1441 408 env~;
#X floatatom 1441 437 5 0 0 0 - - -, f 5;
#X obj 1441 385 tabread~ \$0-array6;
#X obj 1407 166 r \$0-array6-stop;
#X obj 1442 195 r \$0-array6-start;
#X msg 982 197 0;
#X msg 1769 555 0;
#X connect 16 0 18 0;
#X connect 17 0 29 0;
#X connect 18 0 20 1;
#X connect 19 0 17 0;
#X connect 20 0 17 0;
#X connect 21 0 30 0;
#X connect 22 0 19 0;
#X connect 23 0 20 0;
#X connect 24 0 25 0;
#X connect 28 0 24 0;
#X connect 28 0 0 0;
#X connect 29 0 28 0;
#X connect 30 0 18 0;
#X connect 30 1 18 1;
#X connect 30 2 29 1;
#X connect 31 0 33 0;
#X connect 32 0 37 0;
#X connect 33 0 35 1;
#X connect 34 0 32 0;
#X connect 35 0 32 0;
#X connect 36 0 38 0;
#X connect 37 0 39 0;
#X connect 38 0 33 0;
#X connect 38 1 33 1;
#X connect 38 2 37 1;
#X connect 39 0 0 0;
#X connect 39 0 41 0;
#X connect 40 0 34 0;
#X connect 41 0 42 0;
#X connect 43 0 35 0;
#X connect 44 0 46 0;
#X connect 45 0 50 0;
#X connect 46 0 48 1;
#X connect 47 0 45 0;
#X connect 48 0 45 0;
#X connect 49 0 51 0;
#X connect 50 0 105 0;
#X connect 51 0 46 0;
#X connect 51 1 46 1;
#X connect 51 2 50 1;
#X connect 52 0 54 0;
#X connect 53 0 58 0;
#X connect 54 0 56 1;
#X connect 55 0 53 0;
#X connect 56 0 53 0;
#X connect 57 0 59 0;
#X connect 58 0 95 0;
#X connect 59 0 54 0;
#X connect 59 1 54 1;
#X connect 59 2 58 1;
#X connect 60 0 62 0;
#X connect 61 0 66 0;
#X connect 62 0 64 1;
#X connect 63 0 61 0;
#X connect 64 0 61 0;
#X connect 65 0 67 0;
#X connect 66 0 101 0;
#X connect 67 0 62 0;
#X connect 67 1 62 1;
#X connect 67 2 66 1;
#X connect 68 0 70 0;
#X connect 69 0 73 0;
#X connect 70 0 71 1;
#X connect 71 0 69 0;
#X connect 72 0 74 0;
#X connect 73 0 100 0;
#X connect 74 0 70 0;
#X connect 74 1 70 1;
#X connect 74 2 73 1;
#X connect 75 0 77 0;
#X connect 76 0 81 0;
#X connect 77 0 79 1;
#X connect 78 0 76 0;
#X connect 79 0 76 0;
#X connect 80 0 82 0;
#X connect 81 0 102 0;
#X connect 82 0 77 0;
#X connect 82 1 77 1;
#X connect 82 2 81 1;
#X connect 83 0 84 0;
#X connect 85 0 86 0;
#X connect 87 0 88 0;
#X connect 89 0 90 0;
#X connect 91 0 92 0;
#X connect 93 0 55 0;
#X connect 94 0 56 0;
#X connect 95 0 83 0;
#X connect 95 0 0 0;
#X connect 96 0 47 0;
#X connect 97 0 48 0;
#X connect 98 0 224 0;
#X connect 99 0 71 0;
#X connect 100 0 87 0;
#X connect 100 0 0 0;
#X connect 101 0 89 0;
#X connect 101 0 0 0;
#X connect 102 0 91 0;
#X connect 102 0 0 0;
#X connect 103 0 78 0;
#X connect 104 0 79 0;
#X connect 105 0 85 0;
#X connect 105 0 0 0;
#X connect 106 0 63 0;
#X connect 107 0 64 0;
#X connect 108 0 110 0;
#X connect 109 0 116 0;
#X connect 110 0 112 1;
#X connect 111 0 109 0;
#X connect 112 0 109 0;
#X connect 113 0 117 0;
#X connect 114 0 115 0;
#X connect 116 0 209 0;
#X connect 117 0 110 0;
#X connect 117 1 110 1;
#X connect 117 2 116 1;
#X connect 118 0 120 0;
#X connect 119 0 124 0;
#X connect 120 0 122 1;
#X connect 121 0 119 0;
#X connect 122 0 119 0;
#X connect 123 0 125 0;
#X connect 124 0 210 0;
#X connect 125 0 120 0;
#X connect 125 1 120 1;
#X connect 125 2 124 1;
#X connect 126 0 127 0;
#X connect 128 0 130 0;
#X connect 129 0 134 0;
#X connect 130 0 132 1;
#X connect 131 0 129 0;
#X connect 132 0 129 0;
#X connect 133 0 135 0;
#X connect 134 0 207 0;
#X connect 135 0 130 0;
#X connect 135 1 130 1;
#X connect 135 2 134 1;
#X connect 136 0 138 0;
#X connect 137 0 142 0;
#X connect 138 0 140 1;
#X connect 139 0 137 0;
#X connect 140 0 137 0;
#X connect 141 0 143 0;
#X connect 142 0 208 0;
#X connect 143 0 138 0;
#X connect 143 1 138 1;
#X connect 143 2 142 1;
#X connect 144 0 146 0;
#X connect 145 0 150 0;
#X connect 146 0 148 1;
#X connect 147 0 145 0;
#X connect 148 0 145 0;
#X connect 149 0 151 0;
#X connect 150 0 205 0;
#X connect 151 0 146 0;
#X connect 151 1 146 1;
#X connect 151 2 150 1;
#X connect 152 0 154 0;
#X connect 153 0 157 0;
#X connect 154 0 155 1;
#X connect 155 0 153 0;
#X connect 156 0 158 0;
#X connect 157 0 206 0;
#X connect 158 0 154 0;
#X connect 158 1 154 1;
#X connect 158 2 157 1;
#X connect 159 0 161 0;
#X connect 160 0 165 0;
#X connect 161 0 163 1;
#X connect 162 0 160 0;
#X connect 163 0 160 0;
#X connect 164 0 166 0;
#X connect 165 0 203 0;
#X connect 166 0 161 0;
#X connect 166 1 161 1;
#X connect 166 2 165 1;
#X connect 167 0 169 0;
#X connect 168 0 173 0;
#X connect 169 0 171 1;
#X connect 170 0 168 0;
#X connect 171 0 168 0;
#X connect 172 0 174 0;
#X connect 173 0 204 0;
#X connect 174 0 169 0;
#X connect 174 1 169 1;
#X connect 174 2 173 1;
#X connect 175 0 176 0;
#X connect 177 0 178 0;
#X connect 179 0 180 0;
#X connect 181 0 182 0;
#X connect 183 0 184 0;
#X connect 185 0 186 0;
#X connect 187 0 121 0;
#X connect 188 0 122 0;
#X connect 189 0 111 0;
#X connect 190 0 112 0;
#X connect 191 0 139 0;
#X connect 192 0 140 0;
#X connect 193 0 131 0;
#X connect 194 0 132 0;
#X connect 195 0 225 0;
#X connect 196 0 155 0;
#X connect 197 0 147 0;
#X connect 198 0 148 0;
#X connect 199 0 170 0;
#X connect 200 0 171 0;
#X connect 201 0 162 0;
#X connect 202 0 163 0;
#X connect 203 0 185 0;
#X connect 203 0 0 0;
#X connect 204 0 183 0;
#X connect 204 0 0 0;
#X connect 205 0 181 0;
#X connect 205 0 0 0;
#X connect 206 0 179 0;
#X connect 206 0 0 0;
#X connect 207 0 177 0;
#X connect 207 0 0 0;
#X connect 208 0 175 0;
#X connect 208 0 0 0;
#X connect 209 0 114 0;
#X connect 209 0 0 0;
#X connect 210 0 126 0;
#X connect 210 0 0 0;
#X connect 211 0 213 0;
#X connect 212 0 217 0;
#X connect 213 0 215 1;
#X connect 214 0 212 0;
#X connect 215 0 212 0;
#X connect 216 0 218 0;
#X connect 217 0 221 0;
#X connect 218 0 213 0;
#X connect 218 1 213 1;
#X connect 218 2 217 1;
#X connect 219 0 220 0;
#X connect 221 0 219 0;
#X connect 221 0 0 0;
#X connect 222 0 214 0;
#X connect 223 0 215 0;
#X connect 224 0 69 0;
#X connect 225 0 153 0;
#X restore 363 1192 pd TheArrays;
#X obj 124 1238 tabwrite~;
#X obj 373 365 % 16;
#X floatatom 395 388 5 0 0 0 - - -, f 5;
#X text 405 364 adjust to number of available arrays;
#N canvas 586 437 1351 639 init 0;
#X obj 20 13 loadbang;
#X obj 20 42 samplerate~;
#X obj 20 71 s sr;
#X obj 86 16 bng 15 250 50 0 empty empty empty 17 7 0 10 #fcfcfc #000000
#000000;
#X obj 189 36 loadbang;
#X msg 189 65 200;
#X msg 57 220 \; \$0-array0 resize \$1;
#X msg 66 260 \; \$0-array1 resize \$1;
#X msg 81 301 \; \$0-array2 resize \$1;
#X msg 89 341 \; \$0-array3 resize \$1;
#X msg 209 220 \; \$0-array4 resize \$1;
#X msg 218 260 \; \$0-array5 resize \$1;
#X msg 233 301 \; \$0-array6 resize \$1;
#X msg 243 341 \; \$0-array7 resize \$1;
#X msg 357 220 \; \$0-array8 resize \$1;
#X msg 366 260 \; \$0-array9 resize \$1;
#X msg 381 301 \; \$0-array10 resize \$1;
#X msg 390 341 \; \$0-array11 resize \$1;
#X msg 509 220 \; \$0-array12 resize \$1;
#X msg 518 260 \; \$0-array13 resize \$1;
#X msg 533 301 \; \$0-array14 resize \$1;
#X msg 542 341 \; \$0-array15 resize \$1;
#X obj 57 190 r \$0-lengthbuf;
#X obj 189 94 s \$0-lengthbuf;
#X obj 140 -101 r INIT;
#X obj 512 -138 r CLEAR;
#X msg 471 -78 \; \$0-array0 const 0;
#X msg 480 -38 \; \$0-array1 const 0;
#X msg 495 3 \; \$0-array2 const 0;
#X msg 503 43 \; \$0-array3 const 0;
#X msg 623 -78 \; \$0-array4 const 0;
#X msg 632 -38 \; \$0-array5 const 0;
#X msg 647 3 \; \$0-array6 const 0;
#X msg 657 43 \; \$0-array7 const 0;
#X msg 771 -78 \; \$0-array8 const 0;
#X msg 780 -38 \; \$0-array9 const 0;
#X msg 795 3 \; \$0-array10 const 0;
#X msg 804 43 \; \$0-array11 const 0;
#X msg 923 -78 \; \$0-array12 const 0;
#X msg 932 -38 \; \$0-array13 const 0;
#X msg 947 3 \; \$0-array14 const 0;
#X msg 956 43 \; \$0-array15 const 0;
#X connect 0 0 1 0;
#X connect 1 0 2 0;
#X connect 3 0 1 0;
#X connect 4 0 5 0;
#X connect 5 0 23 0;
#X connect 22 0 6 0;
#X connect 22 0 7 0;
#X connect 22 0 8 0;
#X connect 22 0 9 0;
#X connect 22 0 13 0;
#X connect 22 0 12 0;
#X connect 22 0 11 0;
#X connect 22 0 10 0;
#X connect 22 0 14 0;
#X connect 22 0 15 0;
#X connect 22 0 16 0;
#X connect 22 0 17 0;
#X connect 22 0 18 0;
#X connect 22 0 19 0;
#X connect 22 0 20 0;
#X connect 22 0 21 0;
#X connect 24 0 5 0;
#X connect 24 0 1 0;
#X connect 25 0 26 0;
#X connect 25 0 27 0;
#X connect 25 0 28 0;
#X connect 25 0 29 0;
#X connect 25 0 30 0;
#X connect 25 0 34 0;
#X connect 25 0 31 0;
#X connect 25 0 32 0;
#X connect 25 0 33 0;
#X connect 25 0 35 0;
#X connect 25 0 36 0;
#X connect 25 0 37 0;
#X connect 25 0 38 0;
#X connect 25 0 39 0;
#X connect 25 0 40 0;
#X connect 25 0 41 0;
#X restore 25 -145 pd init;
#X obj 373 413 makefilename \$0-array%d;
#X msg 323 487 \; \$1-stop bang;
#X obj 323 458 symbol;
#X obj 373 311 f -1;
#X text 427 268 reset;
#X obj 299 249 t b b b b, f 11;
#X text 472 217 1- get name of table;
#X text 472 237 2- stop reading this table;
#X text 472 257 3- write in this table;
#X text 472 277 4- re-start reading this table;
#X obj 298 538 symbol;
#X msg 298 567 \; \$1-start bang;
#X obj 298 315 delay 500;
#X text 493 295 after a while;
#X obj 342 1240 dac~ 1 2;
#X obj 347 1294 env~;
#X floatatom 347 1323 5 0 0 0 - - -, f 5;
#X obj 347 -167 t b b b, f 24;
#X msg 429 -137 0;
#X obj 460 -52 spigot;
#X obj 561 -182 loadbang;
#X msg 561 -153 1;
#X obj 347 -138 delay 300;
#X msg 347 -109 1;
#X text 506 -121 allow an attack to pass and then close during 300ms
before allowing the next possible attack to pass through;
#X obj 265 700 r \$0-lengthbuf;
#X obj 313 885 r \$0-lengthbuf;
#X obj 25 -76 s INIT;
#X obj 25 -117 bng 34 250 50 0 empty empty empty 17 7 0 10 #fcfcfc
#000000 #000000;
#X msg 434 312 -2;
#X obj 26 -10 s CLEAR;
#X obj 26 -48 bng 29 250 50 0 empty empty empty 17 7 0 10 #fcfcfc #000000
#000000;
#X text 59 -113 re-send init values;
#X text 54 -47 clear everyone and get started afresh;
#X obj 252 1225 env~;
#X floatatom 252 1254 5 0 0 0 - - -, f 5;
#X msg 282 -276 minvel 20;
#X obj 489 332 r CLEAR;
#X obj 205 669 t b b b b, f 21;
#X msg 253 1082 200;
#X symbolatom 434 441 17 0 0 0 - - -, f 17;
#X connect 0 0 1 0;
#X connect 0 0 3 0;
#X connect 1 0 43 0;
#X connect 4 0 5 0;
#X connect 4 0 60 0;
#X connect 5 0 21 0;
#X connect 5 0 40 0;
#X connect 6 0 7 0;
#X connect 7 0 5 1;
#X connect 8 0 9 0;
#X connect 9 0 7 0;
#X connect 10 0 22 0;
#X connect 10 0 29 1;
#X connect 11 0 55 0;
#X connect 12 0 21 0;
#X connect 14 0 2 0;
#X connect 15 0 16 0;
#X connect 16 0 21 0;
#X connect 17 0 21 0;
#X connect 18 0 62 0;
#X connect 19 0 31 0;
#X connect 20 0 41 0;
#X connect 20 0 40 0;
#X connect 22 0 23 0;
#X connect 22 0 26 0;
#X connect 26 0 28 1;
#X connect 26 0 36 1;
#X connect 26 0 17 0;
#X connect 26 0 66 0;
#X connect 28 0 27 0;
#X connect 29 0 10 0;
#X connect 31 0 38 0;
#X connect 31 1 64 0;
#X connect 31 2 28 0;
#X connect 31 3 29 0;
#X connect 36 0 37 0;
#X connect 38 0 36 0;
#X connect 41 0 42 0;
#X connect 43 0 48 0;
#X connect 43 1 44 0;
#X connect 43 2 45 0;
#X connect 44 0 45 1;
#X connect 45 0 13 0;
#X connect 46 0 47 0;
#X connect 47 0 45 1;
#X connect 48 0 49 0;
#X connect 49 0 45 1;
#X connect 51 0 15 1;
#X connect 52 0 8 1;
#X connect 54 0 53 0;
#X connect 55 0 29 0;
#X connect 57 0 56 0;
#X connect 60 0 61 0;
#X connect 62 0 1 0;
#X connect 63 0 55 0;
#X connect 64 0 15 0;
#X connect 64 1 8 0;
#X connect 64 2 6 0;
#X connect 64 3 12 0;
#X connect 65 0 4 0;
