#N canvas 570 86 1027 844 12;
#X obj 268 -46 adc~;
#X obj 230 41 bonk~;
#X obj 26 22 bng 40 250 50 0 empty empty empty 17 7 0 10 -262144 -1
-1;
#X obj 268 -5 delwrite~ buffer1 1000;
#X obj 69 476 delread~ buffer1;
#X obj 70 574 dac~;
#X obj 70 524 *~;
#X msg 203 296 1 2;
#X obj 204 434 line~;
#X obj 171 257 t b b;
#X obj 171 325 delay 100;
#X msg 171 354 0 10;
#X obj 315 326 loadbang;
#X obj 315 376 f;
#X obj 315 401 + 1;
#X obj 265 306 bng 15 250 50 0 empty empty empty 17 7 0 10 -262144
-1 -1;
#X msg 315 351 -1;
#N canvas 886 375 450 300 store-arrays 0;
#X obj 10 50 outlet~;
#X obj 10 10 table array3;
#X obj 10 10 table array3;
#X obj 10 10 table array4;
#X obj 40 10 table array3;
#X obj 40 10 table array6;
#X obj 40 10 table array4;
#X obj 40 10 table array9;
#X obj 40 10 table array8;
#X obj 40 10 table array7;
#X obj 40 10 table array12;
#X obj 40 10 table array7;
#X restore 656 -18 pd store-arrays;
#X obj 528 442 s pd-store-arrays;
#X obj 412 363 makefilename array%d;
#X obj 420 93 bng 15 250 50 0 empty empty empty 17 7 0 10 -262144 -1
-1;
#X obj 420 113 s RESET;
#X obj 453 206 r RESET;
#X msg 481 291 clear;
#X msg 329 610 start;
#X obj 230 76 s attack-detected;
#X obj 171 223 r attack-detected;
#X obj 26 -3 r attack-detected;
#X obj 285 533 r attack-detected;
#X obj 285 558 t b b;
#X obj 285 583 delay 100;
#X msg 285 608 stop;
#X obj 211 661 tabwrite~ aaa;
#X msg 433 431 set \$1;
#X obj 158 -17 loadbang;
#X msg 155 39 minvel 20;
#X obj 299 280 r attack-detected;
#X obj 545 250 t b b;
#X msg 628 270 obj 10 50 outlet~;
#X msg 599 344 obj 40 10 table \$1;
#X msg 576 570 connect;
#X connect 0 0 1 0;
#X connect 0 0 3 0;
#X connect 1 0 25 0;
#X connect 4 0 6 0;
#X connect 6 0 5 0;
#X connect 6 0 32 0;
#X connect 7 0 8 0;
#X connect 8 0 6 1;
#X connect 9 0 10 0;
#X connect 9 1 7 0;
#X connect 10 0 11 0;
#X connect 11 0 8 0;
#X connect 12 0 16 0;
#X connect 13 0 14 0;
#X connect 14 0 13 1;
#X connect 14 0 19 0;
#X connect 15 0 13 0;
#X connect 16 0 13 0;
#X connect 19 0 39 0;
#X connect 19 0 33 0;
#X connect 20 0 21 0;
#X connect 22 0 37 0;
#X connect 23 0 18 0;
#X connect 24 0 32 0;
#X connect 26 0 9 0;
#X connect 27 0 2 0;
#X connect 28 0 29 0;
#X connect 29 0 30 0;
#X connect 29 1 24 0;
#X connect 30 0 31 0;
#X connect 31 0 32 0;
#X connect 33 0 32 0;
#X connect 34 0 35 0;
#X connect 35 0 1 0;
#X connect 36 0 13 0;
#X connect 37 0 38 0;
#X connect 37 1 23 0;
#X connect 38 0 18 0;
#X connect 39 0 18 0;
