#N canvas 10 61 1908 992 12;
#X obj 20 -270 cnv 15 212 130 empty empty empty 20 12 0 14 #e0e0e0
#404040 0;
#N canvas 0 1112 1920 1023 TheArrays 0;
#X obj 569 1536 outlet~;
#X obj 260 -560 table \$0-array0;
#X obj 260 -511 table \$0-array2;
#X obj 260 -487 table \$0-array3;
#X obj 377 -560 table \$0-array4;
#X obj 377 -536 table \$0-array5;
#X obj 377 -511 table \$0-array6;
#X obj 377 -487 table \$0-array7;
#X obj 494 -560 table \$0-array8;
#X obj 494 -536 table \$0-array9;
#X obj 494 -511 table \$0-array10;
#X obj 494 -487 table \$0-array11;
#X obj 615 -560 table \$0-array12;
#X obj 615 -536 table \$0-array13;
#X obj 615 -511 table \$0-array14;
#X obj 615 -487 table \$0-array15;
#X floatatom 825 54 5 0 0 0 - - -, f 5;
#N canvas 563 475 450 371 test 0;
#X obj 83 124 soundfiler;
#X floatatom 84 160 5 0 0 0 - - -, f 5;
#X msg 56 62 read -resize snd/karate.wav \$0-array1;
#X connect 0 0 1 0;
#X connect 2 0 0 0;
#X restore -166 -311 pd test;
#X obj 260 -536 table \$0-array1;
#X floatatom 739 54 5 0 0 0 - - -, f 5;
#X floatatom 909 54 5 0 0 0 - - -, f 5;
#X floatatom 992 54 5 0 0 0 - - -, f 5;
#X floatatom 1076 54 5 0 0 0 - - -, f 5;
#X floatatom 1160 54 5 0 0 0 - - -, f 5;
#X floatatom 1329 54 5 0 0 0 - - -, f 5;
#X floatatom 1497 54 5 0 0 0 - - -, f 5;
#X floatatom 1412 54 5 0 0 0 - - -, f 5;
#X floatatom 1580 54 5 0 0 0 - - -, f 5;
#X floatatom 1665 54 5 0 0 0 - - -, f 5;
#X floatatom 1748 54 5 0 0 0 - - -, f 5;
#X floatatom 1833 54 5 0 0 0 - - -, f 5;
#X floatatom 1917 54 5 0 0 0 - - -, f 5;
#X floatatom 2001 54 5 0 0 0 - - -, f 5;
#X floatatom 1244 54 5 0 0 0 - - -, f 5;
#X text 827 -28 1;
#X text 911 -28 2;
#X text 992 -28 3;
#X text 1078 -28 4;
#X text 1162 -28 5;
#X text 1246 -28 6;
#X text 1330 -28 7;
#X text 1414 -28 8;
#X text 1499 -28 9;
#X text 1580 -28 10;
#X text 1664 -28 11;
#X text 1748 -28 12;
#X text 1831 -28 13;
#X text 1916 -28 14;
#X text 2000 -28 15;
#X text 741 -28 0;
#X text 698 -29 array;
#X text 688 54 vumeter;
#X obj 1750 34 tgl 15 0 empty empty empty 17 7 0 10 #fcfcfc #000000
#000000 0 1;
#X obj 1832 34 tgl 15 0 empty empty empty 17 7 0 10 #fcfcfc #000000
#000000 0 1;
#X obj 1917 34 tgl 15 0 empty empty empty 17 7 0 10 #fcfcfc #000000
#000000 0 1;
#X obj 2001 34 tgl 15 0 empty empty empty 17 7 0 10 #fcfcfc #000000
#000000 0 1;
#X obj 1413 34 tgl 15 0 empty empty empty 17 7 0 10 #fcfcfc #000000
#000000 0 1;
#X obj 1498 34 tgl 15 0 empty empty empty 17 7 0 10 #fcfcfc #000000
#000000 0 1;
#X obj 1582 34 tgl 15 0 empty empty empty 17 7 0 10 #fcfcfc #000000
#000000 0 1;
#X obj 1665 34 tgl 15 0 empty empty empty 17 7 0 10 #fcfcfc #000000
#000000 1 1;
#X obj 1076 34 tgl 15 0 empty empty empty 17 7 0 10 #fcfcfc #000000
#000000 0 1;
#X obj 1160 34 tgl 15 0 empty empty empty 17 7 0 10 #fcfcfc #000000
#000000 0 1;
#X obj 1244 34 tgl 15 0 empty empty empty 17 7 0 10 #fcfcfc #000000
#000000 0 1;
#X obj 1328 34 tgl 15 0 empty empty empty 17 7 0 10 #fcfcfc #000000
#000000 0 1;
#X obj 740 34 tgl 15 0 empty empty empty 17 7 0 10 #fcfcfc #000000
#000000 0 1;
#X obj 825 34 tgl 15 0 empty empty empty 17 7 0 10 #fcfcfc #000000
#000000 0 1;
#X obj 909 34 tgl 15 0 empty empty empty 17 7 0 10 #fcfcfc #000000
#000000 0 1;
#X obj 992 34 tgl 15 0 empty empty empty 17 7 0 10 #fcfcfc #000000
#000000 0 1;
#X obj 783 -46 tgl 15 0 empty empty empty 17 7 0 10 #fcfcfc #000000
#000000 0 1;
#X text 800 -50 start/stop all;
#X obj -51 486 r \$0-array0-silenceMult;
#X obj 740 170 s \$0-array0-silenceMult;
#X obj -116 572 s \$0-array0-stop;
#X obj -136 627 s \$0-array0-start;
#X obj -21 363 r sr;
#X obj -39 677 phasor~;
#X obj -21 390 / 100, f 6;
#X msg -140 291 0;
#X obj -39 419 f;
#X obj 18 336 r \$0-lengthbuf;
#X obj -39 767 env~;
#X obj -39 706 *~;
#X obj -140 262 r \$0-array0-stop;
#X obj -105 291 r \$0-array0-start;
#X obj -39 737 tabread~ \$0-array0;
#X obj 553 -172 r \$0-array0-start__;
#X msg 553 -143 1;
#X msg 552 -207 1;
#X obj 552 -236 r \$0-array1-start__;
#X msg 552 -272 1;
#X msg 551 -336 1;
#X msg 390 -138 1;
#X msg 389 -202 1;
#X msg 389 -267 1;
#X msg 388 -331 1;
#X msg 229 -182 1;
#X msg 228 -246 1;
#X msg 228 -311 1;
#X msg 227 -375 1;
#X msg 66 -177 1;
#X msg 65 -241 1;
#X msg 65 -306 1;
#X msg 64 -370 1;
#X obj 552 -301 r \$0-array2-start__;
#X obj 551 -365 r \$0-array3-start__;
#X obj 390 -167 r \$0-array4-start__;
#X obj 389 -231 r \$0-array5-start__;
#X obj 389 -296 r \$0-array6-start__;
#X obj 388 -360 r \$0-array7-start__;
#X obj 229 -211 r \$0-array8-start__;
#X obj 228 -275 r \$0-array9-start__;
#X obj 228 -340 r \$0-array10-start__;
#X obj 227 -404 r \$0-array11-start__;
#X obj 66 -206 r \$0-array12-start__;
#X obj 65 -270 r \$0-array13-start__;
#X obj 65 -335 r \$0-array14-start__;
#X obj 64 -399 r \$0-array15-start__;
#X obj 18 359 t b f f f;
#X obj -148 395 f;
#X obj -69 517 *;
#X obj -105 320 t b b;
#X obj 740 79 hsl 60 15 0 127 0 0 empty empty empty -2 -8 0 10 #fcfcfc
#000000 #000000 0 1;
#X obj 740 113 / 127;
#X obj 740 142 * 5;
#X obj -136 601 delay 1000;
#X obj -148 517 delay 1000;
#X obj -116 395 r sr;
#X obj -148 424 / 48000;
#X obj -148 453 * 1000;
#X obj -148 546 t b b;
#X obj -148 480 t b f f;
#X obj 283 369 r sr;
#X obj 265 683 phasor~;
#X obj 283 396 / 100, f 6;
#X msg 164 297 0;
#X obj 265 425 f;
#X obj 322 342 r \$0-lengthbuf;
#X obj 265 773 env~;
#X obj 265 712 *~;
#X obj 322 365 t b f f f;
#X obj 156 401 f;
#X obj 235 523 *;
#X obj 199 326 t b b;
#X obj 168 607 delay 1000;
#X obj 156 523 delay 1000;
#X obj 188 401 r sr;
#X obj 156 430 / 48000;
#X obj 156 459 * 1000;
#X obj 156 552 t b b;
#X obj 156 486 t b f f;
#X obj 582 376 r sr;
#X obj 564 690 phasor~;
#X obj 582 403 / 100, f 6;
#X msg 463 304 0;
#X obj 564 432 f;
#X obj 621 349 r \$0-lengthbuf;
#X obj 564 780 env~;
#X obj 564 719 *~;
#X obj 621 372 t b f f f;
#X obj 455 408 f;
#X obj 534 530 *;
#X obj 498 333 t b b;
#X obj 467 614 delay 1000;
#X obj 455 530 delay 1000;
#X obj 487 408 r sr;
#X obj 455 437 / 48000;
#X obj 455 466 * 1000;
#X obj 455 559 t b b;
#X obj 455 493 t b f f;
#X obj 900 371 r sr;
#X obj 882 685 phasor~;
#X obj 900 398 / 100, f 6;
#X msg 781 299 0;
#X obj 882 427 f;
#X obj 939 344 r \$0-lengthbuf;
#X obj 882 775 env~;
#X obj 882 714 *~;
#X obj 939 367 t b f f f;
#X obj 773 403 f;
#X obj 852 525 *;
#X obj 816 328 t b b;
#X obj 785 609 delay 1000;
#X obj 773 525 delay 1000;
#X obj 805 403 r sr;
#X obj 773 432 / 48000;
#X obj 773 461 * 1000;
#X obj 773 554 t b b;
#X obj 773 488 t b f f;
#X obj 1207 363 r sr;
#X obj 1189 677 phasor~;
#X obj 1207 390 / 100, f 6;
#X msg 1088 291 0;
#X obj 1189 419 f;
#X obj 1246 336 r \$0-lengthbuf;
#X obj 1189 767 env~;
#X obj 1189 706 *~;
#X obj 1246 359 t b f f f;
#X obj 1080 395 f;
#X obj 1159 517 *;
#X obj 1123 320 t b b;
#X obj 1092 601 delay 1000;
#X obj 1080 517 delay 1000;
#X obj 1112 395 r sr;
#X obj 1080 424 / 48000;
#X obj 1080 453 * 1000;
#X obj 1080 546 t b b;
#X obj 1080 480 t b f f;
#X obj 1511 369 r sr;
#X obj 1493 683 phasor~;
#X obj 1511 396 / 100, f 6;
#X msg 1392 297 0;
#X obj 1493 425 f;
#X obj 1550 342 r \$0-lengthbuf;
#X obj 1493 773 env~;
#X obj 1493 712 *~;
#X obj 1550 365 t b f f f;
#X obj 1384 401 f;
#X obj 1463 523 *;
#X obj 1427 326 t b b;
#X obj 1396 607 delay 1000;
#X obj 1384 523 delay 1000;
#X obj 1416 401 r sr;
#X obj 1384 430 / 48000;
#X obj 1384 459 * 1000;
#X obj 1384 552 t b b;
#X obj 1384 486 t b f f;
#X obj 1810 376 r sr;
#X obj 1792 690 phasor~;
#X obj 1810 403 / 100, f 6;
#X msg 1691 304 0;
#X obj 1792 432 f;
#X obj 1849 349 r \$0-lengthbuf;
#X obj 1792 780 env~;
#X obj 1792 719 *~;
#X obj 1849 372 t b f f f;
#X obj 1683 408 f;
#X obj 1762 530 *;
#X obj 1726 333 t b b;
#X obj 1695 614 delay 1000;
#X obj 1683 530 delay 1000;
#X obj 1715 408 r sr;
#X obj 1683 437 / 48000;
#X obj 1683 466 * 1000;
#X obj 1683 559 t b b;
#X obj 1683 493 t b f f;
#X obj 2128 371 r sr;
#X obj 2110 685 phasor~;
#X obj 2128 398 / 100, f 6;
#X msg 2009 299 0;
#X obj 2110 427 f;
#X obj 2167 344 r \$0-lengthbuf;
#X obj 2110 775 env~;
#X obj 2110 714 *~;
#X obj 2167 367 t b f f f;
#X obj 2001 403 f;
#X obj 2080 525 *;
#X obj 2044 328 t b b;
#X obj 2013 609 delay 1000;
#X obj 2001 525 delay 1000;
#X obj 2033 403 r sr;
#X obj 2001 432 / 48000;
#X obj 2001 461 * 1000;
#X obj 2001 554 t b b;
#X obj 2001 488 t b f f;
#X obj 826 79 hsl 60 15 0 127 0 0 empty empty empty -2 -8 0 10 #fcfcfc
#000000 #000000 0 1;
#X obj 826 113 / 127;
#X obj 826 142 * 5;
#X obj 826 195 s \$0-array1-silenceMult;
#X obj 909 79 hsl 60 15 0 127 0 0 empty empty empty -2 -8 0 10 #fcfcfc
#000000 #000000 0 1;
#X obj 909 113 / 127;
#X obj 909 142 * 5;
#X obj 909 169 s \$0-array2-silenceMult;
#X obj 1076 78 hsl 60 15 0 127 0 0 empty empty empty -2 -8 0 10 #fcfcfc
#000000 #000000 0 1;
#X obj 1076 112 / 127;
#X obj 1076 141 * 5;
#X obj 1160 78 hsl 60 15 0 127 0 0 empty empty empty -2 -8 0 10 #fcfcfc
#000000 #000000 0 1;
#X obj 1160 112 / 127;
#X obj 1160 141 * 5;
#X obj 1244 78 hsl 60 15 0 127 0 0 empty empty empty -2 -8 0 10 #fcfcfc
#000000 #000000 0 1;
#X obj 1244 112 / 127;
#X obj 1244 141 * 5;
#X obj 992 79 hsl 60 15 0 127 0 0 empty empty empty -2 -8 0 10 #fcfcfc
#000000 #000000 0 1;
#X obj 992 113 / 127;
#X obj 992 142 * 5;
#X obj 992 195 s \$0-array3-silenceMult;
#X obj 1076 169 s \$0-array4-silenceMult;
#X obj 1160 194 s \$0-array5-silenceMult;
#X obj 1244 168 s \$0-array6-silenceMult;
#X obj 1413 78 hsl 60 15 0 127 0 0 empty empty empty -2 -8 0 10 #fcfcfc
#000000 #000000 0 1;
#X obj 1413 111 / 127;
#X obj 1413 140 * 5;
#X obj 1497 78 hsl 60 15 0 127 0 0 empty empty empty -2 -8 0 10 #fcfcfc
#000000 #000000 0 1;
#X obj 1497 111 / 127;
#X obj 1497 140 * 5;
#X obj 1581 78 hsl 60 15 0 127 0 0 empty empty empty -2 -8 0 10 #fcfcfc
#000000 #000000 0 1;
#X obj 1581 111 / 127;
#X obj 1581 140 * 5;
#X obj 1329 78 hsl 60 15 0 127 0 0 empty empty empty -2 -8 0 10 #fcfcfc
#000000 #000000 0 1;
#X obj 1329 112 / 127;
#X obj 1329 141 * 5;
#X obj 1329 194 s \$0-array7-silenceMult;
#X obj 1413 168 s \$0-array8-silenceMult;
#X obj 1497 193 s \$0-array9-silenceMult;
#X obj 1581 167 s \$0-array10-silenceMult;
#X obj 1665 78 hsl 60 15 0 127 0 0 empty empty empty -2 -8 0 10 #fcfcfc
#000000 #000000 0 1;
#X obj 1665 112 / 127;
#X obj 1665 141 * 5;
#X obj 1749 78 hsl 60 15 0 127 0 0 empty empty empty -2 -8 0 10 #fcfcfc
#000000 #000000 0 1;
#X obj 1749 112 / 127;
#X obj 1749 141 * 5;
#X obj 1918 78 hsl 60 15 0 127 0 0 empty empty empty -2 -8 0 10 #fcfcfc
#000000 #000000 0 1;
#X obj 1918 111 / 127;
#X obj 1918 140 * 5;
#X obj 2002 78 hsl 60 15 0 127 0 0 empty empty empty -2 -8 0 10 #fcfcfc
#000000 #000000 0 1;
#X obj 2002 111 / 127;
#X obj 2002 140 * 5;
#X obj 1834 78 hsl 60 15 0 127 0 0 empty empty empty -2 -8 0 10 #fcfcfc
#000000 #000000 0 1;
#X obj 1834 112 / 127;
#X obj 1834 141 * 5;
#X obj 1665 194 s \$0-array11-silenceMult;
#X obj 1749 168 s \$0-array12-silenceMult;
#X obj 1834 194 s \$0-array13-silenceMult;
#X obj 1918 168 s \$0-array14-silenceMult;
#X obj 2002 193 s \$0-array15-silenceMult;
#X obj 164 268 r \$0-array1-stop;
#X obj 199 297 r \$0-array1-start;
#X obj 254 492 r \$0-array1-silenceMult;
#X obj 188 578 s \$0-array1-stop;
#X obj 168 633 s \$0-array1-start;
#X obj 265 743 tabread~ \$0-array1;
#X obj 564 750 tabread~ \$0-array2;
#X obj 882 745 tabread~ \$0-array3;
#X obj 1189 737 tabread~ \$0-array4;
#X obj 1493 743 tabread~ \$0-array5;
#X obj 1792 750 tabread~ \$0-array6;
#X obj 2110 745 tabread~ \$0-array7;
#X obj 881 957 r sr;
#X obj 863 1271 phasor~;
#X obj 881 984 / 100, f 6;
#X msg 762 885 0;
#X obj 863 1013 f;
#X obj 920 930 r \$0-lengthbuf;
#X obj 863 1361 env~;
#X obj 863 1300 *~;
#X obj 920 953 t b f f f;
#X obj 754 989 f;
#X obj 833 1111 *;
#X obj 797 914 t b b;
#X obj 766 1195 delay 1000;
#X obj 754 1111 delay 1000;
#X obj 786 989 r sr;
#X obj 754 1018 / 48000;
#X obj 754 1047 * 1000;
#X obj 754 1140 t b b;
#X obj 754 1074 t b f f;
#X obj 1199 952 r sr;
#X obj 1181 1266 phasor~;
#X obj 1199 979 / 100, f 6;
#X msg 1080 880 0;
#X obj 1181 1008 f;
#X obj 1238 925 r \$0-lengthbuf;
#X obj 1181 1356 env~;
#X obj 1181 1295 *~;
#X obj 1238 948 t b f f f;
#X obj 1072 984 f;
#X obj 1151 1106 *;
#X obj 1115 909 t b b;
#X obj 1084 1190 delay 1000;
#X obj 1072 1106 delay 1000;
#X obj 1104 984 r sr;
#X obj 1072 1013 / 48000;
#X obj 1072 1042 * 1000;
#X obj 1072 1135 t b b;
#X obj 1072 1069 t b f f;
#X obj 863 1331 tabread~ \$0-array8;
#X obj 1181 1326 tabread~ \$0-array9;
#X obj 1084 1216 s \$0-array9-start;
#X obj 1104 1161 s \$0-array9-stop;
#X obj 1080 851 r \$0-array9-stop;
#X obj 1115 880 r \$0-array9-start;
#X obj 1169 1075 r \$0-array9-silenceMult;
#X obj 762 856 r \$0-array8-stop;
#X obj 797 885 r \$0-array8-start;
#X obj 851 1080 r \$0-array8-silenceMult;
#X obj 786 1166 s \$0-array8-stop;
#X obj 766 1221 s \$0-array8-start;
#X obj 463 275 r \$0-array2-stop;
#X obj 498 304 r \$0-array2-start;
#X obj 552 499 r \$0-array2-silenceMult;
#X obj 487 585 s \$0-array2-stop;
#X obj 467 640 s \$0-array2-start;
#X obj 785 635 s \$0-array3-start;
#X obj 805 580 s \$0-array3-stop;
#X obj 870 494 r \$0-array3-silenceMult;
#X obj 816 299 r \$0-array3-start;
#X obj 781 270 r \$0-array3-stop;
#X obj 1088 262 r \$0-array4-stop;
#X obj 1123 291 r \$0-array4-start;
#X obj 1177 486 r \$0-array4-silenceMult;
#X obj 1112 572 s \$0-array4-stop;
#X obj 1092 627 s \$0-array4-start;
#X obj 1396 633 s \$0-array5-start;
#X obj 1416 578 s \$0-array5-stop;
#X obj 1481 492 r \$0-array5-silenceMult;
#X obj 1427 297 r \$0-array5-start;
#X obj 1392 268 r \$0-array5-stop;
#X obj 1691 275 r \$0-array6-stop;
#X obj 1726 304 r \$0-array6-start;
#X obj 1780 499 r \$0-array6-silenceMult;
#X obj 1715 585 s \$0-array6-stop;
#X obj 1695 640 s \$0-array6-start;
#X obj 2013 635 s \$0-array7-start;
#X obj 2033 580 s \$0-array7-stop;
#X obj 2098 494 r \$0-array7-silenceMult;
#X obj 2044 299 r \$0-array7-start;
#X obj 2009 270 r \$0-array7-stop;
#X obj 3055 942 r sr;
#X obj 3037 1256 phasor~;
#X obj 3055 969 / 100, f 6;
#X msg 2936 870 0;
#X obj 3037 998 f;
#X obj 3094 915 r \$0-lengthbuf;
#X obj 3037 1346 env~;
#X obj 3037 1285 *~;
#X obj 3094 938 t b f f f;
#X obj 2928 974 f;
#X obj 3007 1096 *;
#X obj 2971 899 t b b;
#X obj 2940 1180 delay 1000;
#X obj 2928 1096 delay 1000;
#X obj 2960 974 r sr;
#X obj 2928 1003 / 48000;
#X obj 2928 1032 * 1000;
#X obj 2928 1125 t b b;
#X obj 2928 1059 t b f f;
#X obj 1791 960 r sr;
#X obj 1773 1274 phasor~;
#X obj 1791 987 / 100, f 6;
#X msg 1672 888 0;
#X obj 1773 1016 f;
#X obj 1830 933 r \$0-lengthbuf;
#X obj 1773 1365 env~;
#X obj 1773 1303 *~;
#X obj 1830 956 t b f f f;
#X obj 1664 992 f;
#X obj 1743 1114 *;
#X obj 1707 917 t b b;
#X obj 1676 1198 delay 1000;
#X obj 1664 1114 delay 1000;
#X obj 1696 992 r sr;
#X obj 1664 1021 / 48000;
#X obj 1664 1050 * 1000;
#X obj 1664 1143 t b b;
#X obj 1664 1077 t b f f;
#X obj 1496 958 r sr;
#X obj 1478 1272 phasor~;
#X obj 1496 985 / 100, f 6;
#X msg 1377 886 0;
#X obj 1478 1014 f;
#X obj 1535 931 r \$0-lengthbuf;
#X obj 1478 1362 env~;
#X obj 1478 1301 *~;
#X obj 1535 954 t b f f f;
#X obj 1369 990 f;
#X obj 1448 1112 *;
#X obj 1412 915 t b b;
#X obj 1381 1196 delay 1000;
#X obj 1369 1112 delay 1000;
#X obj 1401 990 r sr;
#X obj 1369 1019 / 48000;
#X obj 1369 1048 * 1000;
#X obj 1369 1141 t b b;
#X obj 1369 1075 t b f f;
#X obj 2103 951 r sr;
#X obj 2085 1265 phasor~;
#X obj 2103 978 / 100, f 6;
#X msg 1984 879 0;
#X obj 2085 1007 f;
#X obj 2142 924 r \$0-lengthbuf;
#X obj 2085 1355 env~;
#X obj 2085 1294 *~;
#X obj 2142 947 t b f f f;
#X obj 1976 983 f;
#X obj 2055 1105 *;
#X obj 2019 908 t b b;
#X obj 1988 1189 delay 1000;
#X obj 1976 1105 delay 1000;
#X obj 2008 983 r sr;
#X obj 1976 1012 / 48000;
#X obj 1976 1041 * 1000;
#X obj 1976 1134 t b b;
#X obj 1976 1068 t b f f;
#X obj 2422 958 r sr;
#X obj 2404 1272 phasor~;
#X obj 2422 985 / 100, f 6;
#X msg 2303 886 0;
#X obj 2404 1014 f;
#X obj 2461 931 r \$0-lengthbuf;
#X obj 2404 1359 env~;
#X obj 2404 1301 *~;
#X obj 2461 954 t b f f f;
#X obj 2295 990 f;
#X obj 2374 1112 *;
#X obj 2338 915 t b b;
#X obj 2307 1196 delay 1000;
#X obj 2295 1112 delay 1000;
#X obj 2327 990 r sr;
#X obj 2295 1019 / 48000;
#X obj 2295 1048 * 1000;
#X obj 2295 1141 t b b;
#X obj 2295 1075 t b f f;
#X obj 2725 955 r sr;
#X obj 2707 1269 phasor~;
#X obj 2725 982 / 100, f 6;
#X msg 2606 883 0;
#X obj 2707 1011 f;
#X obj 2764 928 r \$0-lengthbuf;
#X obj 2707 1359 env~;
#X obj 2707 1298 *~;
#X obj 2764 951 t b f f f;
#X obj 2598 987 f;
#X obj 2677 1109 *;
#X obj 2641 912 t b b;
#X obj 2610 1193 delay 1000;
#X obj 2598 1109 delay 1000;
#X obj 2630 987 r sr;
#X obj 2598 1016 / 48000;
#X obj 2598 1045 * 1000;
#X obj 2598 1138 t b b;
#X obj 2598 1072 t b f f;
#X obj 1377 857 r \$0-array10-stop;
#X obj 1412 886 r \$0-array10-start;
#X obj 1467 1081 r \$0-array10-silenceMult;
#X obj 1401 1167 s \$0-array10-stop;
#X obj 1381 1222 s \$0-array10-start;
#X obj 1478 1332 tabread~ \$0-array10;
#X obj 1672 859 r \$0-array11-stop;
#X obj 1707 888 r \$0-array11-start;
#X obj 1762 1083 r \$0-array11-silenceMult;
#X obj 1696 1169 s \$0-array11-stop;
#X obj 1676 1224 s \$0-array11-start;
#X obj 1773 1334 tabread~ \$0-array11;
#X obj 2085 1325 tabread~ \$0-array12;
#X obj 1988 1215 s \$0-array12-start;
#X obj 2008 1160 s \$0-array12-stop;
#X obj 2074 1074 r \$0-array12-silenceMult;
#X obj 2019 879 r \$0-array12-start;
#X obj 1984 850 r \$0-array12-stop;
#X obj 2303 857 r \$0-array13-stop;
#X obj 2338 886 r \$0-array13-start;
#X obj 2393 1081 r \$0-array13-silenceMult;
#X obj 2327 1169 s \$0-array13-stop;
#X obj 2307 1222 s \$0-array13-start;
#X obj 2404 1332 tabread~ \$0-array13;
#X obj 2606 854 r \$0-array14-stop;
#X obj 2641 883 r \$0-array14-start;
#X obj 2696 1078 r \$0-array14-silenceMult;
#X obj 2630 1164 s \$0-array14-stop;
#X obj 2610 1219 s \$0-array14-start;
#X obj 2707 1329 tabread~ \$0-array14;
#X obj 2936 841 r \$0-array15-stop;
#X obj 2971 870 r \$0-array15-start;
#X obj 3026 1065 r \$0-array15-silenceMult;
#X obj 2960 1151 s \$0-array15-stop;
#X obj 2940 1206 s \$0-array15-start;
#X obj 3037 1316 tabread~ \$0-array15;
#X obj -3 767 *~;
#X obj 302 773 *~;
#X obj 599 780 *~;
#X obj 917 775 *~;
#X obj 1225 767 *~;
#X obj 1530 773 *~;
#X obj 901 1362 *~;
#X obj 1828 780 *~;
#X obj 2147 775 *~;
#X obj 1218 1354 *~;
#X obj 1517 1364 *~;
#X obj 1811 1365 *~;
#X obj 2122 1355 *~;
#X obj 2438 1359 *~;
#X obj 2747 1360 *~;
#X obj 3074 1346 *~;
#X text 586 76 silence between loops;
#X floatatom 1020 -51 5 0 0 0 - - -, f 5;
#X obj 740 -6 bng 15 250 50 0 empty empty empty 17 7 0 10 #fcfcfc #000000
#000000;
#X obj 850 -337 s \$0-set-current-array-number;
#X obj 1100 -290 r \$0-get-current-array-number;
#X text 610 -10 load for recording;
#X obj 825 -6 bng 15 250 50 0 empty empty empty 17 7 0 10 #fcfcfc #000000
#000000;
#X obj 909 -6 bng 15 250 50 0 empty empty empty 17 7 0 10 #fcfcfc #000000
#000000;
#X obj 991 -6 bng 15 250 50 0 empty empty empty 17 7 0 10 #fcfcfc #000000
#000000;
#X msg 850 -470 -2;
#X msg 882 -469 -1;
#X msg 912 -469 0;
#X msg 942 -469 1;
#X obj 1076 -5 bng 15 250 50 0 empty empty empty 17 7 0 10 #fcfcfc
#000000 #000000;
#X obj 1161 -5 bng 15 250 50 0 empty empty empty 17 7 0 10 #fcfcfc
#000000 #000000;
#X obj 1245 -5 bng 15 250 50 0 empty empty empty 17 7 0 10 #fcfcfc
#000000 #000000;
#X obj 1327 -5 bng 15 250 50 0 empty empty empty 17 7 0 10 #fcfcfc
#000000 #000000;
#X obj 1413 -5 bng 15 250 50 0 empty empty empty 17 7 0 10 #fcfcfc
#000000 #000000;
#X obj 1498 -5 bng 15 250 50 0 empty empty empty 17 7 0 10 #fcfcfc
#000000 #000000;
#X obj 1582 -5 bng 15 250 50 0 empty empty empty 17 7 0 10 #fcfcfc
#000000 #000000;
#X obj 1664 -5 bng 15 250 50 0 empty empty empty 17 7 0 10 #fcfcfc
#000000 #000000;
#X obj 1749 -5 bng 15 250 50 0 empty empty empty 17 7 0 10 #fcfcfc
#000000 #000000;
#X obj 1832 -5 bng 15 250 50 0 empty empty empty 17 7 0 10 #fcfcfc
#000000 #000000;
#X obj 1917 -5 bng 15 250 50 0 empty empty empty 17 7 0 10 #fcfcfc
#000000 #000000;
#X obj 2000 -5 bng 15 250 50 0 empty empty empty 17 7 0 10 #fcfcfc
#000000 #000000;
#X msg 880 -440 2;
#X msg 912 -439 3;
#X msg 942 -439 4;
#X msg 972 -439 5;
#X msg 915 -411 6;
#X msg 947 -410 7;
#X msg 977 -410 8;
#X msg 1010 -410 9;
#X msg 950 -380 10;
#X msg 982 -379 11;
#X msg 1012 -379 12;
#X msg 1042 -379 13;
#X text 1059 -51 next array in line for recording;
#X obj 1270 -490 r CLEAR;
#X msg 1270 -461 0;
#X msg 1320 -460 0;
#X obj 1100 -261 + 1;
#X obj 740 13 bng 15 250 50 0 empty empty a 5 5 0 10 #15ff6e #033806
#000000;
#X obj -374 -129 s \$0-array0-start;
#X obj -397 26 delay;
#X obj -365 -103 r sr;
#X obj -365 -25 /;
#X obj -350 -80 r \$0-lengthbuf;
#X obj -350 -54 t b f;
#X obj -365 0 * 1000;
#X msg -351 -153 1;
#X obj -365 85 s \$0-array0-stop;
#X obj -397 55 t b b;
#X msg -397 84 0;
#X obj -397 -177 t b b b;
#X text 617 11 pulse (play once);
#X obj 825 13 bng 15 250 50 0 empty empty b 5 5 0 10 #15ff62 #033806
#000000;
#X obj -562 21 delay;
#X obj -530 -108 r sr;
#X obj -530 -30 /;
#X obj -515 -85 r \$0-lengthbuf;
#X obj -515 -59 t b f;
#X obj -530 -5 * 1000;
#X msg -516 -158 1;
#X obj -562 50 t b b;
#X msg -562 79 0;
#X obj -562 -182 t b b b;
#X obj 1327 13 bng 15 250 50 0 empty empty h 5 5 0 10 #15ff62 #033806
#000000;
#X obj -390 323 delay;
#X obj -358 194 r sr;
#X obj -358 272 /;
#X obj -343 217 r \$0-lengthbuf;
#X obj -343 243 t b f;
#X obj -358 297 * 1000;
#X msg -344 144 1;
#X obj -390 352 t b b;
#X msg -390 381 0;
#X obj -390 120 t b b b;
#X obj 1244 13 bng 15 250 50 0 empty empty g 5 5 0 10 #15ff62 #033806
#000000;
#X obj -560 321 delay;
#X obj -528 192 r sr;
#X obj -528 270 /;
#X obj -513 215 r \$0-lengthbuf;
#X obj -513 241 t b f;
#X obj -528 295 * 1000;
#X msg -514 142 1;
#X obj -560 350 t b b;
#X msg -560 379 0;
#X obj -560 118 t b b b;
#X obj 1161 13 bng 15 250 50 0 empty empty f 5 5 0 10 #15ff62 #033806
#000000;
#X obj -722 317 delay;
#X obj -690 188 r sr;
#X obj -690 266 /;
#X obj -675 211 r \$0-lengthbuf;
#X obj -675 237 t b f;
#X obj -690 291 * 1000;
#X msg -676 138 1;
#X obj -722 346 t b b;
#X msg -722 375 0;
#X obj -722 114 t b b b;
#X obj 909 13 bng 15 250 50 0 empty empty c 5 5 0 10 #15ff62 #033806
#000000;
#X obj -730 23 delay;
#X obj -698 -106 r sr;
#X obj -698 -28 /;
#X obj -683 -83 r \$0-lengthbuf;
#X obj -683 -57 t b f;
#X obj -698 -3 * 1000;
#X msg -684 -156 1;
#X obj -730 52 t b b;
#X msg -730 81 0;
#X obj -730 -180 t b b b;
#X obj 1076 13 bng 15 250 50 0 empty empty e 5 5 0 10 #15ff62 #033806
#000000;
#X obj -894 315 delay;
#X obj -862 186 r sr;
#X obj -862 264 /;
#X obj -847 209 r \$0-lengthbuf;
#X obj -847 235 t b f;
#X obj -862 289 * 1000;
#X msg -848 136 1;
#X obj -894 344 t b b;
#X msg -894 373 0;
#X obj -894 112 t b b b;
#X obj 991 13 bng 15 250 50 0 empty empty d 5 5 0 10 #15ff62 #033806
#000000;
#X obj -890 23 delay;
#X obj -858 -106 r sr;
#X obj -858 -28 /;
#X obj -843 -83 r \$0-lengthbuf;
#X obj -843 -57 t b f;
#X obj -858 -3 * 1000;
#X msg -844 -156 1;
#X obj -890 52 t b b;
#X msg -890 81 0;
#X obj -890 -180 t b b b;
#X obj -539 -134 s \$0-array1-start;
#X obj -530 80 s \$0-array1-stop;
#X obj -707 -132 s \$0-array2-start;
#X obj -698 82 s \$0-array2-stop;
#X obj -867 -132 s \$0-array3-start;
#X obj -858 82 s \$0-array3-stop;
#X obj -871 160 s \$0-array4-start;
#X obj -862 374 s \$0-array4-stop;
#X obj -699 162 s \$0-array5-start;
#X obj -690 376 s \$0-array5-stop;
#X obj -528 380 s \$0-array6-stop;
#X obj -358 382 s \$0-array7-stop;
#X obj -367 168 s \$0-array7-start;
#X obj -537 166 s \$0-array6-start;
#X obj 1413 13 bng 15 250 50 0 empty empty i 5 5 0 10 #15ff62 #033806
#000000;
#X obj 2863 -84 delay;
#X obj 2895 -213 r sr;
#X obj 2895 -135 /;
#X obj 2910 -190 r \$0-lengthbuf;
#X obj 2910 -164 t b f;
#X obj 2895 -110 * 1000;
#X msg 2909 -263 1;
#X obj 2863 -55 t b b;
#X msg 2863 -26 0;
#X obj 2863 -287 t b b b;
#X obj 1498 13 bng 15 250 50 0 empty empty j 5 5 0 10 #15ff62 #033806
#000000;
#X obj 2698 -89 delay;
#X obj 2730 -218 r sr;
#X obj 2730 -140 /;
#X obj 2745 -195 r \$0-lengthbuf;
#X obj 2745 -169 t b f;
#X obj 2730 -115 * 1000;
#X msg 2744 -268 1;
#X obj 2698 -60 t b b;
#X msg 2698 -31 0;
#X obj 2698 -292 t b b b;
#X obj 2000 13 bng 15 250 50 0 empty empty p 5 5 0 10 #15ff62 #033806
#000000;
#X obj 2870 213 delay;
#X obj 2902 84 r sr;
#X obj 2902 162 /;
#X obj 2917 107 r \$0-lengthbuf;
#X obj 2917 133 t b f;
#X obj 2902 187 * 1000;
#X msg 2916 34 1;
#X obj 2870 242 t b b;
#X msg 2870 271 0;
#X obj 2870 10 t b b b;
#X obj 1917 13 bng 15 250 50 0 empty empty o 5 5 0 10 #15ff62 #033806
#000000;
#X obj 2700 211 delay;
#X obj 2732 82 r sr;
#X obj 2732 160 /;
#X obj 2747 105 r \$0-lengthbuf;
#X obj 2747 131 t b f;
#X obj 2732 185 * 1000;
#X msg 2746 32 1;
#X obj 2700 240 t b b;
#X msg 2700 269 0;
#X obj 2700 8 t b b b;
#X obj 1832 13 bng 15 250 50 0 empty empty n 5 5 0 10 #15ff62 #033806
#000000;
#X obj 2538 207 delay;
#X obj 2570 78 r sr;
#X obj 2570 156 /;
#X obj 2585 101 r \$0-lengthbuf;
#X obj 2585 127 t b f;
#X obj 2570 181 * 1000;
#X msg 2584 28 1;
#X obj 2538 236 t b b;
#X msg 2538 265 0;
#X obj 2538 4 t b b b;
#X obj 1582 13 bng 15 250 50 0 empty empty k 5 5 0 10 #15ff62 #033806
#000000;
#X obj 2530 -87 delay;
#X obj 2562 -216 r sr;
#X obj 2562 -138 /;
#X obj 2577 -193 r \$0-lengthbuf;
#X obj 2577 -167 t b f;
#X obj 2562 -113 * 1000;
#X msg 2576 -266 1;
#X obj 2530 -58 t b b;
#X msg 2530 -29 0;
#X obj 2530 -290 t b b b;
#X obj 1749 13 bng 15 250 50 0 empty empty m 5 5 0 10 #15ff62 #033806
#000000;
#X obj 2366 205 delay;
#X obj 2398 76 r sr;
#X obj 2398 154 /;
#X obj 2413 99 r \$0-lengthbuf;
#X obj 2413 125 t b f;
#X obj 2398 179 * 1000;
#X msg 2412 26 1;
#X obj 2366 234 t b b;
#X obj 2366 2 t b b b;
#X obj 1664 13 bng 15 250 50 0 empty empty l 5 5 0 10 #15ff62 #033806
#000000;
#X obj 2370 -87 delay;
#X obj 2402 -216 r sr;
#X obj 2402 -138 /;
#X obj 2417 -193 r \$0-lengthbuf;
#X obj 2417 -167 t b f;
#X obj 2402 -113 * 1000;
#X msg 2416 -266 1;
#X obj 2370 -58 t b b;
#X obj 2370 -290 t b b b;
#X obj 2393 -242 s \$0-array8-start;
#X obj 2402 -28 s \$0-array8-stop;
#X msg 2370 -29 0;
#X msg 2366 263 0;
#X obj 2553 -242 s \$0-array9-start;
#X obj 2562 -28 s \$0-array9-stop;
#X obj 2721 -244 s \$0-array10-start;
#X obj 2730 -30 s \$0-array10-stop;
#X obj 2886 -239 s \$0-array11-start;
#X obj 2895 -25 s \$0-array11-stop;
#X obj 2389 50 s \$0-array12-start;
#X obj 2398 264 s \$0-array12-stop;
#X obj 2561 52 s \$0-array13-start;
#X obj 2570 266 s \$0-array13-stop;
#X obj 2723 56 s \$0-array14-start;
#X obj 2732 270 s \$0-array14-stop;
#X obj 2902 272 s \$0-array15-stop;
#X obj 2893 58 s \$0-array15-start;
#X text 628 31 loop start/stop;
#X obj 1630 -480 key;
#X floatatom 1630 -451 5 0 0 0 - - -, f 5;
#X obj 1630 -423 sel 97 98 99 100 101 102 103 104 105 106 107 108 109
110 111 112 113 114 115;
#X connect 52 0 578 1;
#X connect 53 0 579 1;
#X connect 54 0 580 1;
#X connect 55 0 581 1;
#X connect 56 0 572 1;
#X connect 57 0 575 1;
#X connect 58 0 576 1;
#X connect 59 0 577 1;
#X connect 60 0 570 1;
#X connect 61 0 571 1;
#X connect 62 0 573 1;
#X connect 63 0 574 1;
#X connect 64 0 566 1;
#X connect 65 0 567 1;
#X connect 66 0 568 1;
#X connect 67 0 569 1;
#X connect 68 0 64 0;
#X connect 68 0 65 0;
#X connect 68 0 66 0;
#X connect 68 0 67 0;
#X connect 68 0 60 0;
#X connect 68 0 61 0;
#X connect 68 0 62 0;
#X connect 68 0 63 0;
#X connect 68 0 56 0;
#X connect 68 0 57 0;
#X connect 68 0 58 0;
#X connect 68 0 59 0;
#X connect 68 0 52 0;
#X connect 68 0 53 0;
#X connect 68 0 54 0;
#X connect 68 0 55 0;
#X connect 70 0 119 1;
#X connect 74 0 76 0;
#X connect 75 0 81 0;
#X connect 76 0 78 1;
#X connect 77 0 75 0;
#X connect 78 0 75 0;
#X connect 79 0 117 0;
#X connect 80 0 19 0;
#X connect 81 0 84 0;
#X connect 82 0 77 0;
#X connect 83 0 120 0;
#X connect 84 0 566 0;
#X connect 85 0 86 0;
#X connect 86 0 64 0;
#X connect 87 0 65 0;
#X connect 88 0 87 0;
#X connect 89 0 66 0;
#X connect 90 0 67 0;
#X connect 91 0 60 0;
#X connect 92 0 61 0;
#X connect 93 0 62 0;
#X connect 94 0 63 0;
#X connect 95 0 56 0;
#X connect 96 0 57 0;
#X connect 97 0 58 0;
#X connect 98 0 59 0;
#X connect 99 0 52 0;
#X connect 100 0 53 0;
#X connect 101 0 54 0;
#X connect 102 0 55 0;
#X connect 103 0 89 0;
#X connect 104 0 90 0;
#X connect 105 0 91 0;
#X connect 106 0 92 0;
#X connect 107 0 93 0;
#X connect 108 0 94 0;
#X connect 109 0 95 0;
#X connect 110 0 96 0;
#X connect 111 0 97 0;
#X connect 112 0 98 0;
#X connect 113 0 99 0;
#X connect 114 0 100 0;
#X connect 115 0 101 0;
#X connect 116 0 102 0;
#X connect 117 0 76 0;
#X connect 117 1 76 1;
#X connect 117 2 81 1;
#X connect 117 3 118 1;
#X connect 118 0 127 0;
#X connect 119 0 124 1;
#X connect 120 0 118 0;
#X connect 120 1 78 0;
#X connect 121 0 122 0;
#X connect 122 0 123 0;
#X connect 123 0 71 0;
#X connect 124 0 73 0;
#X connect 125 0 129 0;
#X connect 126 0 127 1;
#X connect 127 0 128 0;
#X connect 128 0 130 0;
#X connect 129 0 124 0;
#X connect 129 1 72 0;
#X connect 130 0 125 0;
#X connect 130 1 125 1;
#X connect 130 2 119 0;
#X connect 131 0 133 0;
#X connect 132 0 138 0;
#X connect 133 0 135 1;
#X connect 134 0 132 0;
#X connect 135 0 132 0;
#X connect 136 0 139 0;
#X connect 137 0 16 0;
#X connect 138 0 329 0;
#X connect 139 0 133 0;
#X connect 139 1 133 1;
#X connect 139 2 138 1;
#X connect 139 3 140 1;
#X connect 140 0 146 0;
#X connect 141 0 143 1;
#X connect 142 0 140 0;
#X connect 142 1 135 0;
#X connect 143 0 328 0;
#X connect 144 0 148 0;
#X connect 145 0 146 1;
#X connect 146 0 147 0;
#X connect 147 0 149 0;
#X connect 148 0 143 0;
#X connect 148 1 327 0;
#X connect 149 0 144 0;
#X connect 149 1 144 1;
#X connect 149 2 141 0;
#X connect 150 0 152 0;
#X connect 151 0 157 0;
#X connect 152 0 154 1;
#X connect 153 0 151 0;
#X connect 154 0 151 0;
#X connect 155 0 158 0;
#X connect 156 0 20 0;
#X connect 157 0 330 0;
#X connect 158 0 152 0;
#X connect 158 1 152 1;
#X connect 158 2 157 1;
#X connect 158 3 159 1;
#X connect 159 0 165 0;
#X connect 160 0 162 1;
#X connect 161 0 159 0;
#X connect 161 1 154 0;
#X connect 162 0 390 0;
#X connect 163 0 167 0;
#X connect 164 0 165 1;
#X connect 165 0 166 0;
#X connect 166 0 168 0;
#X connect 167 0 162 0;
#X connect 167 1 389 0;
#X connect 168 0 163 0;
#X connect 168 1 163 1;
#X connect 168 2 160 0;
#X connect 169 0 171 0;
#X connect 170 0 176 0;
#X connect 171 0 173 1;
#X connect 172 0 170 0;
#X connect 173 0 170 0;
#X connect 174 0 177 0;
#X connect 175 0 21 0;
#X connect 176 0 331 0;
#X connect 177 0 171 0;
#X connect 177 1 171 1;
#X connect 177 2 176 1;
#X connect 177 3 178 1;
#X connect 178 0 184 0;
#X connect 179 0 181 1;
#X connect 180 0 178 0;
#X connect 180 1 173 0;
#X connect 181 0 391 0;
#X connect 182 0 186 0;
#X connect 183 0 184 1;
#X connect 184 0 185 0;
#X connect 185 0 187 0;
#X connect 186 0 181 0;
#X connect 186 1 392 0;
#X connect 187 0 182 0;
#X connect 187 1 182 1;
#X connect 187 2 179 0;
#X connect 188 0 190 0;
#X connect 189 0 195 0;
#X connect 190 0 192 1;
#X connect 191 0 189 0;
#X connect 192 0 189 0;
#X connect 193 0 196 0;
#X connect 194 0 22 0;
#X connect 195 0 332 0;
#X connect 196 0 190 0;
#X connect 196 1 190 1;
#X connect 196 2 195 1;
#X connect 196 3 197 1;
#X connect 197 0 203 0;
#X connect 198 0 200 1;
#X connect 199 0 197 0;
#X connect 199 1 192 0;
#X connect 200 0 400 0;
#X connect 201 0 205 0;
#X connect 202 0 203 1;
#X connect 203 0 204 0;
#X connect 204 0 206 0;
#X connect 205 0 200 0;
#X connect 205 1 399 0;
#X connect 206 0 201 0;
#X connect 206 1 201 1;
#X connect 206 2 198 0;
#X connect 207 0 209 0;
#X connect 208 0 214 0;
#X connect 209 0 211 1;
#X connect 210 0 208 0;
#X connect 211 0 208 0;
#X connect 212 0 215 0;
#X connect 213 0 23 0;
#X connect 214 0 333 0;
#X connect 215 0 209 0;
#X connect 215 1 209 1;
#X connect 215 2 214 1;
#X connect 215 3 216 1;
#X connect 216 0 222 0;
#X connect 217 0 219 1;
#X connect 218 0 216 0;
#X connect 218 1 211 0;
#X connect 219 0 401 0;
#X connect 220 0 224 0;
#X connect 221 0 222 1;
#X connect 222 0 223 0;
#X connect 223 0 225 0;
#X connect 224 0 219 0;
#X connect 224 1 402 0;
#X connect 225 0 220 0;
#X connect 225 1 220 1;
#X connect 225 2 217 0;
#X connect 226 0 228 0;
#X connect 227 0 233 0;
#X connect 228 0 230 1;
#X connect 229 0 227 0;
#X connect 230 0 227 0;
#X connect 231 0 234 0;
#X connect 232 0 33 0;
#X connect 233 0 334 0;
#X connect 234 0 228 0;
#X connect 234 1 228 1;
#X connect 234 2 233 1;
#X connect 234 3 235 1;
#X connect 235 0 241 0;
#X connect 236 0 238 1;
#X connect 237 0 235 0;
#X connect 237 1 230 0;
#X connect 238 0 410 0;
#X connect 239 0 243 0;
#X connect 240 0 241 1;
#X connect 241 0 242 0;
#X connect 242 0 244 0;
#X connect 243 0 238 0;
#X connect 243 1 409 0;
#X connect 244 0 239 0;
#X connect 244 1 239 1;
#X connect 244 2 236 0;
#X connect 245 0 247 0;
#X connect 246 0 252 0;
#X connect 247 0 249 1;
#X connect 248 0 246 0;
#X connect 249 0 246 0;
#X connect 250 0 253 0;
#X connect 251 0 24 0;
#X connect 252 0 335 0;
#X connect 253 0 247 0;
#X connect 253 1 247 1;
#X connect 253 2 252 1;
#X connect 253 3 254 1;
#X connect 254 0 260 0;
#X connect 255 0 257 1;
#X connect 256 0 254 0;
#X connect 256 1 249 0;
#X connect 257 0 411 0;
#X connect 258 0 262 0;
#X connect 259 0 260 1;
#X connect 260 0 261 0;
#X connect 261 0 263 0;
#X connect 262 0 257 0;
#X connect 262 1 412 0;
#X connect 263 0 258 0;
#X connect 263 1 258 1;
#X connect 263 2 255 0;
#X connect 264 0 265 0;
#X connect 265 0 266 0;
#X connect 266 0 267 0;
#X connect 268 0 269 0;
#X connect 269 0 270 0;
#X connect 270 0 271 0;
#X connect 272 0 273 0;
#X connect 273 0 274 0;
#X connect 274 0 285 0;
#X connect 275 0 276 0;
#X connect 276 0 277 0;
#X connect 277 0 286 0;
#X connect 278 0 279 0;
#X connect 279 0 280 0;
#X connect 280 0 287 0;
#X connect 281 0 282 0;
#X connect 282 0 283 0;
#X connect 283 0 284 0;
#X connect 288 0 289 0;
#X connect 289 0 290 0;
#X connect 290 0 301 0;
#X connect 291 0 292 0;
#X connect 292 0 293 0;
#X connect 293 0 302 0;
#X connect 294 0 295 0;
#X connect 295 0 296 0;
#X connect 296 0 303 0;
#X connect 297 0 298 0;
#X connect 298 0 299 0;
#X connect 299 0 300 0;
#X connect 304 0 305 0;
#X connect 305 0 306 0;
#X connect 306 0 319 0;
#X connect 307 0 308 0;
#X connect 308 0 309 0;
#X connect 309 0 320 0;
#X connect 310 0 311 0;
#X connect 311 0 312 0;
#X connect 312 0 322 0;
#X connect 313 0 314 0;
#X connect 314 0 315 0;
#X connect 315 0 323 0;
#X connect 316 0 317 0;
#X connect 317 0 318 0;
#X connect 318 0 321 0;
#X connect 324 0 134 0;
#X connect 325 0 142 0;
#X connect 326 0 141 1;
#X connect 329 0 567 0;
#X connect 330 0 568 0;
#X connect 331 0 569 0;
#X connect 332 0 570 0;
#X connect 333 0 571 0;
#X connect 334 0 573 0;
#X connect 335 0 574 0;
#X connect 336 0 338 0;
#X connect 337 0 343 0;
#X connect 338 0 340 1;
#X connect 339 0 337 0;
#X connect 340 0 337 0;
#X connect 341 0 344 0;
#X connect 342 0 26 0;
#X connect 343 0 374 0;
#X connect 344 0 338 0;
#X connect 344 1 338 1;
#X connect 344 2 343 1;
#X connect 344 3 345 1;
#X connect 345 0 351 0;
#X connect 346 0 348 1;
#X connect 347 0 345 0;
#X connect 347 1 340 0;
#X connect 348 0 385 0;
#X connect 349 0 353 0;
#X connect 350 0 351 1;
#X connect 351 0 352 0;
#X connect 352 0 354 0;
#X connect 353 0 348 0;
#X connect 353 1 384 0;
#X connect 354 0 349 0;
#X connect 354 1 349 1;
#X connect 354 2 346 0;
#X connect 355 0 357 0;
#X connect 356 0 362 0;
#X connect 357 0 359 1;
#X connect 358 0 356 0;
#X connect 359 0 356 0;
#X connect 360 0 363 0;
#X connect 361 0 25 0;
#X connect 362 0 375 0;
#X connect 363 0 357 0;
#X connect 363 1 357 1;
#X connect 363 2 362 1;
#X connect 363 3 364 1;
#X connect 364 0 370 0;
#X connect 365 0 367 1;
#X connect 366 0 364 0;
#X connect 366 1 359 0;
#X connect 367 0 376 0;
#X connect 368 0 372 0;
#X connect 369 0 370 1;
#X connect 370 0 371 0;
#X connect 371 0 373 0;
#X connect 372 0 367 0;
#X connect 372 1 377 0;
#X connect 373 0 368 0;
#X connect 373 1 368 1;
#X connect 373 2 365 0;
#X connect 374 0 572 0;
#X connect 375 0 575 0;
#X connect 378 0 358 0;
#X connect 379 0 366 0;
#X connect 380 0 365 1;
#X connect 381 0 339 0;
#X connect 382 0 347 0;
#X connect 383 0 346 1;
#X connect 386 0 153 0;
#X connect 387 0 161 0;
#X connect 388 0 160 1;
#X connect 393 0 179 1;
#X connect 394 0 180 0;
#X connect 395 0 172 0;
#X connect 396 0 191 0;
#X connect 397 0 199 0;
#X connect 398 0 198 1;
#X connect 403 0 217 1;
#X connect 404 0 218 0;
#X connect 405 0 210 0;
#X connect 406 0 229 0;
#X connect 407 0 237 0;
#X connect 408 0 236 1;
#X connect 413 0 255 1;
#X connect 414 0 256 0;
#X connect 415 0 248 0;
#X connect 416 0 418 0;
#X connect 417 0 423 0;
#X connect 418 0 420 1;
#X connect 419 0 417 0;
#X connect 420 0 417 0;
#X connect 421 0 424 0;
#X connect 422 0 32 0;
#X connect 423 0 565 0;
#X connect 424 0 418 0;
#X connect 424 1 418 1;
#X connect 424 2 423 1;
#X connect 424 3 425 1;
#X connect 425 0 431 0;
#X connect 426 0 428 1;
#X connect 427 0 425 0;
#X connect 427 1 420 0;
#X connect 428 0 564 0;
#X connect 429 0 433 0;
#X connect 430 0 431 1;
#X connect 431 0 432 0;
#X connect 432 0 434 0;
#X connect 433 0 428 0;
#X connect 433 1 563 0;
#X connect 434 0 429 0;
#X connect 434 1 429 1;
#X connect 434 2 426 0;
#X connect 435 0 437 0;
#X connect 436 0 442 0;
#X connect 437 0 439 1;
#X connect 438 0 436 0;
#X connect 439 0 436 0;
#X connect 440 0 443 0;
#X connect 441 0 28 0;
#X connect 442 0 541 0;
#X connect 443 0 437 0;
#X connect 443 1 437 1;
#X connect 443 2 442 1;
#X connect 443 3 444 1;
#X connect 444 0 450 0;
#X connect 445 0 447 1;
#X connect 446 0 444 0;
#X connect 446 1 439 0;
#X connect 447 0 540 0;
#X connect 448 0 452 0;
#X connect 449 0 450 1;
#X connect 450 0 451 0;
#X connect 451 0 453 0;
#X connect 452 0 447 0;
#X connect 452 1 539 0;
#X connect 453 0 448 0;
#X connect 453 1 448 1;
#X connect 453 2 445 0;
#X connect 454 0 456 0;
#X connect 455 0 461 0;
#X connect 456 0 458 1;
#X connect 457 0 455 0;
#X connect 458 0 455 0;
#X connect 459 0 462 0;
#X connect 460 0 27 0;
#X connect 461 0 535 0;
#X connect 462 0 456 0;
#X connect 462 1 456 1;
#X connect 462 2 461 1;
#X connect 462 3 463 1;
#X connect 463 0 469 0;
#X connect 464 0 466 1;
#X connect 465 0 463 0;
#X connect 465 1 458 0;
#X connect 466 0 534 0;
#X connect 467 0 471 0;
#X connect 468 0 469 1;
#X connect 469 0 470 0;
#X connect 470 0 472 0;
#X connect 471 0 466 0;
#X connect 471 1 533 0;
#X connect 472 0 467 0;
#X connect 472 1 467 1;
#X connect 472 2 464 0;
#X connect 473 0 475 0;
#X connect 474 0 480 0;
#X connect 475 0 477 1;
#X connect 476 0 474 0;
#X connect 477 0 474 0;
#X connect 478 0 481 0;
#X connect 479 0 29 0;
#X connect 480 0 542 0;
#X connect 481 0 475 0;
#X connect 481 1 475 1;
#X connect 481 2 480 1;
#X connect 481 3 482 1;
#X connect 482 0 488 0;
#X connect 483 0 485 1;
#X connect 484 0 482 0;
#X connect 484 1 477 0;
#X connect 485 0 543 0;
#X connect 486 0 490 0;
#X connect 487 0 488 1;
#X connect 488 0 489 0;
#X connect 489 0 491 0;
#X connect 490 0 485 0;
#X connect 490 1 544 0;
#X connect 491 0 486 0;
#X connect 491 1 486 1;
#X connect 491 2 483 0;
#X connect 492 0 494 0;
#X connect 493 0 499 0;
#X connect 494 0 496 1;
#X connect 495 0 493 0;
#X connect 496 0 493 0;
#X connect 497 0 500 0;
#X connect 498 0 30 0;
#X connect 499 0 553 0;
#X connect 500 0 494 0;
#X connect 500 1 494 1;
#X connect 500 2 499 1;
#X connect 500 3 501 1;
#X connect 501 0 507 0;
#X connect 502 0 504 1;
#X connect 503 0 501 0;
#X connect 503 1 496 0;
#X connect 504 0 552 0;
#X connect 505 0 509 0;
#X connect 506 0 507 1;
#X connect 507 0 508 0;
#X connect 508 0 510 0;
#X connect 509 0 504 0;
#X connect 509 1 551 0;
#X connect 510 0 505 0;
#X connect 510 1 505 1;
#X connect 510 2 502 0;
#X connect 511 0 513 0;
#X connect 512 0 518 0;
#X connect 513 0 515 1;
#X connect 514 0 512 0;
#X connect 515 0 512 0;
#X connect 516 0 519 0;
#X connect 517 0 31 0;
#X connect 518 0 559 0;
#X connect 519 0 513 0;
#X connect 519 1 513 1;
#X connect 519 2 518 1;
#X connect 519 3 520 1;
#X connect 520 0 526 0;
#X connect 521 0 523 1;
#X connect 522 0 520 0;
#X connect 522 1 515 0;
#X connect 523 0 558 0;
#X connect 524 0 528 0;
#X connect 525 0 526 1;
#X connect 526 0 527 0;
#X connect 527 0 529 0;
#X connect 528 0 523 0;
#X connect 528 1 557 0;
#X connect 529 0 524 0;
#X connect 529 1 524 1;
#X connect 529 2 521 0;
#X connect 530 0 457 0;
#X connect 531 0 465 0;
#X connect 532 0 464 1;
#X connect 535 0 576 0;
#X connect 536 0 438 0;
#X connect 537 0 446 0;
#X connect 538 0 445 1;
#X connect 541 0 577 0;
#X connect 542 0 578 0;
#X connect 545 0 483 1;
#X connect 546 0 484 0;
#X connect 547 0 476 0;
#X connect 548 0 495 0;
#X connect 549 0 503 0;
#X connect 550 0 502 1;
#X connect 553 0 579 0;
#X connect 554 0 514 0;
#X connect 555 0 522 0;
#X connect 556 0 521 1;
#X connect 559 0 580 0;
#X connect 560 0 419 0;
#X connect 561 0 427 0;
#X connect 562 0 426 1;
#X connect 565 0 581 0;
#X connect 566 0 0 0;
#X connect 566 0 80 0;
#X connect 567 0 0 0;
#X connect 567 0 137 0;
#X connect 568 0 0 0;
#X connect 568 0 156 0;
#X connect 569 0 0 0;
#X connect 569 0 175 0;
#X connect 570 0 0 0;
#X connect 570 0 194 0;
#X connect 571 0 0 0;
#X connect 571 0 213 0;
#X connect 572 0 0 0;
#X connect 572 0 342 0;
#X connect 573 0 0 0;
#X connect 573 0 232 0;
#X connect 574 0 0 0;
#X connect 574 0 251 0;
#X connect 575 0 0 0;
#X connect 575 0 361 0;
#X connect 576 0 0 0;
#X connect 576 0 460 0;
#X connect 577 0 0 0;
#X connect 577 0 441 0;
#X connect 578 0 0 0;
#X connect 578 0 479 0;
#X connect 579 0 0 0;
#X connect 579 0 498 0;
#X connect 580 0 0 0;
#X connect 580 0 517 0;
#X connect 581 0 0 0;
#X connect 581 0 422 0;
#X connect 584 0 591 0;
#X connect 586 0 623 0;
#X connect 588 0 592 0;
#X connect 589 0 593 0;
#X connect 590 0 594 0;
#X connect 591 0 585 0;
#X connect 592 0 585 0;
#X connect 593 0 585 0;
#X connect 594 0 585 0;
#X connect 595 0 607 0;
#X connect 596 0 608 0;
#X connect 597 0 609 0;
#X connect 598 0 610 0;
#X connect 599 0 611 0;
#X connect 600 0 612 0;
#X connect 601 0 613 0;
#X connect 602 0 614 0;
#X connect 603 0 615 0;
#X connect 604 0 616 0;
#X connect 605 0 617 0;
#X connect 606 0 618 0;
#X connect 607 0 585 0;
#X connect 608 0 585 0;
#X connect 609 0 585 0;
#X connect 610 0 585 0;
#X connect 611 0 585 0;
#X connect 612 0 585 0;
#X connect 613 0 585 0;
#X connect 614 0 585 0;
#X connect 615 0 585 0;
#X connect 616 0 585 0;
#X connect 617 0 585 0;
#X connect 618 0 585 0;
#X connect 620 0 621 0;
#X connect 620 0 622 0;
#X connect 621 0 64 0;
#X connect 621 0 65 0;
#X connect 621 0 66 0;
#X connect 621 0 67 0;
#X connect 621 0 60 0;
#X connect 621 0 61 0;
#X connect 621 0 62 0;
#X connect 621 0 63 0;
#X connect 621 0 56 0;
#X connect 621 0 57 0;
#X connect 621 0 58 0;
#X connect 621 0 59 0;
#X connect 621 0 52 0;
#X connect 621 0 53 0;
#X connect 621 0 54 0;
#X connect 621 0 55 0;
#X connect 622 0 121 0;
#X connect 622 0 264 0;
#X connect 622 0 268 0;
#X connect 622 0 281 0;
#X connect 622 0 272 0;
#X connect 622 0 275 0;
#X connect 622 0 278 0;
#X connect 622 0 297 0;
#X connect 622 0 288 0;
#X connect 622 0 291 0;
#X connect 622 0 294 0;
#X connect 622 0 304 0;
#X connect 622 0 307 0;
#X connect 622 0 316 0;
#X connect 622 0 310 0;
#X connect 622 0 313 0;
#X connect 623 0 583 0;
#X connect 624 0 636 0;
#X connect 626 0 634 0;
#X connect 627 0 628 0;
#X connect 628 0 631 0;
#X connect 629 0 630 0;
#X connect 630 0 628 0;
#X connect 630 1 628 1;
#X connect 631 0 626 1;
#X connect 632 0 64 0;
#X connect 634 0 635 0;
#X connect 634 1 633 0;
#X connect 635 0 64 0;
#X connect 636 0 626 0;
#X connect 636 1 625 0;
#X connect 636 2 632 0;
#X connect 638 0 648 0;
#X connect 639 0 646 0;
#X connect 640 0 641 0;
#X connect 641 0 644 0;
#X connect 642 0 643 0;
#X connect 643 0 641 0;
#X connect 643 1 641 1;
#X connect 644 0 639 1;
#X connect 645 0 65 0;
#X connect 646 0 647 0;
#X connect 646 1 716 0;
#X connect 647 0 65 0;
#X connect 648 0 639 0;
#X connect 648 1 715 0;
#X connect 648 2 645 0;
#X connect 649 0 659 0;
#X connect 650 0 657 0;
#X connect 651 0 652 0;
#X connect 652 0 655 0;
#X connect 653 0 654 0;
#X connect 654 0 652 0;
#X connect 654 1 652 1;
#X connect 655 0 650 1;
#X connect 656 0 63 0;
#X connect 657 0 658 0;
#X connect 657 1 726 0;
#X connect 658 0 63 0;
#X connect 659 0 650 0;
#X connect 659 1 727 0;
#X connect 659 2 656 0;
#X connect 660 0 670 0;
#X connect 661 0 668 0;
#X connect 662 0 663 0;
#X connect 663 0 666 0;
#X connect 664 0 665 0;
#X connect 665 0 663 0;
#X connect 665 1 663 1;
#X connect 666 0 661 1;
#X connect 667 0 62 0;
#X connect 668 0 669 0;
#X connect 668 1 725 0;
#X connect 669 0 62 0;
#X connect 670 0 661 0;
#X connect 670 1 728 0;
#X connect 670 2 667 0;
#X connect 671 0 681 0;
#X connect 672 0 679 0;
#X connect 673 0 674 0;
#X connect 674 0 677 0;
#X connect 675 0 676 0;
#X connect 676 0 674 0;
#X connect 676 1 674 1;
#X connect 677 0 672 1;
#X connect 678 0 61 0;
#X connect 679 0 680 0;
#X connect 679 1 724 0;
#X connect 680 0 61 0;
#X connect 681 0 672 0;
#X connect 681 1 723 0;
#X connect 681 2 678 0;
#X connect 682 0 692 0;
#X connect 683 0 690 0;
#X connect 684 0 685 0;
#X connect 685 0 688 0;
#X connect 686 0 687 0;
#X connect 687 0 685 0;
#X connect 687 1 685 1;
#X connect 688 0 683 1;
#X connect 689 0 66 0;
#X connect 690 0 691 0;
#X connect 690 1 718 0;
#X connect 691 0 66 0;
#X connect 692 0 683 0;
#X connect 692 1 717 0;
#X connect 692 2 689 0;
#X connect 693 0 703 0;
#X connect 694 0 701 0;
#X connect 695 0 696 0;
#X connect 696 0 699 0;
#X connect 697 0 698 0;
#X connect 698 0 696 0;
#X connect 698 1 696 1;
#X connect 699 0 694 1;
#X connect 700 0 60 0;
#X connect 701 0 702 0;
#X connect 701 1 722 0;
#X connect 702 0 60 0;
#X connect 703 0 694 0;
#X connect 703 1 721 0;
#X connect 703 2 700 0;
#X connect 704 0 714 0;
#X connect 705 0 712 0;
#X connect 706 0 707 0;
#X connect 707 0 710 0;
#X connect 708 0 709 0;
#X connect 709 0 707 0;
#X connect 709 1 707 1;
#X connect 710 0 705 1;
#X connect 711 0 67 0;
#X connect 712 0 713 0;
#X connect 712 1 720 0;
#X connect 713 0 67 0;
#X connect 714 0 705 0;
#X connect 714 1 719 0;
#X connect 714 2 711 0;
#X connect 729 0 814 0;
#X connect 730 0 737 0;
#X connect 731 0 732 0;
#X connect 732 0 735 0;
#X connect 733 0 734 0;
#X connect 734 0 732 0;
#X connect 734 1 732 1;
#X connect 735 0 730 1;
#X connect 736 0 59 0;
#X connect 737 0 738 0;
#X connect 737 1 824 0;
#X connect 738 0 59 0;
#X connect 739 0 730 0;
#X connect 739 1 823 0;
#X connect 739 2 736 0;
#X connect 740 0 794 0;
#X connect 741 0 748 0;
#X connect 742 0 743 0;
#X connect 743 0 746 0;
#X connect 744 0 745 0;
#X connect 745 0 743 0;
#X connect 745 1 743 1;
#X connect 746 0 741 1;
#X connect 747 0 58 0;
#X connect 748 0 749 0;
#X connect 748 1 822 0;
#X connect 749 0 58 0;
#X connect 750 0 741 0;
#X connect 750 1 821 0;
#X connect 750 2 747 0;
#X connect 751 0 761 0;
#X connect 752 0 759 0;
#X connect 753 0 754 0;
#X connect 754 0 757 0;
#X connect 755 0 756 0;
#X connect 756 0 754 0;
#X connect 756 1 754 1;
#X connect 757 0 752 1;
#X connect 758 0 55 0;
#X connect 759 0 760 0;
#X connect 759 1 831 0;
#X connect 760 0 55 0;
#X connect 761 0 752 0;
#X connect 761 1 832 0;
#X connect 761 2 758 0;
#X connect 762 0 772 0;
#X connect 763 0 770 0;
#X connect 764 0 765 0;
#X connect 765 0 768 0;
#X connect 766 0 767 0;
#X connect 767 0 765 0;
#X connect 767 1 765 1;
#X connect 768 0 763 1;
#X connect 769 0 54 0;
#X connect 770 0 771 0;
#X connect 770 1 830 0;
#X connect 771 0 54 0;
#X connect 772 0 763 0;
#X connect 772 1 829 0;
#X connect 772 2 769 0;
#X connect 773 0 783 0;
#X connect 774 0 781 0;
#X connect 775 0 776 0;
#X connect 776 0 779 0;
#X connect 777 0 778 0;
#X connect 778 0 776 0;
#X connect 778 1 776 1;
#X connect 779 0 774 1;
#X connect 780 0 53 0;
#X connect 781 0 782 0;
#X connect 781 1 828 0;
#X connect 782 0 53 0;
#X connect 783 0 774 0;
#X connect 783 1 827 0;
#X connect 783 2 780 0;
#X connect 784 0 750 0;
#X connect 785 0 792 0;
#X connect 786 0 787 0;
#X connect 787 0 790 0;
#X connect 788 0 789 0;
#X connect 789 0 787 0;
#X connect 789 1 787 1;
#X connect 790 0 785 1;
#X connect 791 0 57 0;
#X connect 792 0 793 0;
#X connect 792 1 820 0;
#X connect 793 0 57 0;
#X connect 794 0 785 0;
#X connect 794 1 819 0;
#X connect 794 2 791 0;
#X connect 795 0 804 0;
#X connect 796 0 803 0;
#X connect 797 0 798 0;
#X connect 798 0 801 0;
#X connect 799 0 800 0;
#X connect 800 0 798 0;
#X connect 800 1 798 1;
#X connect 801 0 796 1;
#X connect 802 0 52 0;
#X connect 803 0 818 0;
#X connect 803 1 826 0;
#X connect 804 0 796 0;
#X connect 804 1 825 0;
#X connect 804 2 802 0;
#X connect 805 0 739 0;
#X connect 806 0 813 0;
#X connect 807 0 808 0;
#X connect 808 0 811 0;
#X connect 809 0 810 0;
#X connect 810 0 808 0;
#X connect 810 1 808 1;
#X connect 811 0 806 1;
#X connect 812 0 56 0;
#X connect 813 0 817 0;
#X connect 813 1 816 0;
#X connect 814 0 806 0;
#X connect 814 1 815 0;
#X connect 814 2 812 0;
#X connect 817 0 56 0;
#X connect 818 0 52 0;
#X connect 834 0 835 0;
#X connect 835 0 836 0;
#X connect 836 0 624 0;
#X connect 836 1 638 0;
#X connect 836 2 682 0;
#X connect 836 3 704 0;
#X connect 836 4 693 0;
#X connect 836 5 671 0;
#X connect 836 6 660 0;
#X connect 836 7 649 0;
#X connect 836 8 729 0;
#X connect 836 9 740 0;
#X connect 836 10 784 0;
#X connect 836 11 805 0;
#X connect 836 12 795 0;
#X connect 836 13 773 0;
#X connect 836 14 762 0;
#X connect 836 15 751 0;
#X coords 0 -1 1 1 1497 192 1 580 -86;
#X restore 333 -103 pd TheArrays;
#N canvas 502 239 1351 839 init 0;
#X obj 20 13 loadbang;
#X obj 20 42 samplerate~;
#X obj 20 71 s sr;
#X obj 86 16 bng 15 250 50 0 empty empty empty 17 7 0 10 #fcfcfc #000000
#000000;
#X obj 189 36 loadbang;
#X msg 57 220 \; \$0-array0 resize \$1;
#X msg 66 260 \; \$0-array1 resize \$1;
#X msg 81 301 \; \$0-array2 resize \$1;
#X msg 89 341 \; \$0-array3 resize \$1;
#X msg 209 220 \; \$0-array4 resize \$1;
#X msg 218 260 \; \$0-array5 resize \$1;
#X msg 233 301 \; \$0-array6 resize \$1;
#X msg 243 341 \; \$0-array7 resize \$1;
#X msg 357 220 \; \$0-array8 resize \$1;
#X msg 366 260 \; \$0-array9 resize \$1;
#X msg 381 301 \; \$0-array10 resize \$1;
#X msg 390 341 \; \$0-array11 resize \$1;
#X msg 509 220 \; \$0-array12 resize \$1;
#X msg 518 260 \; \$0-array13 resize \$1;
#X msg 533 301 \; \$0-array14 resize \$1;
#X msg 542 341 \; \$0-array15 resize \$1;
#X obj 57 190 r \$0-lengthbuf;
#X obj 189 94 s \$0-lengthbuf;
#X obj 140 -101 r INIT;
#X obj 512 -138 r CLEAR;
#X msg 471 -78 \; \$0-array0 const 0;
#X msg 480 -38 \; \$0-array1 const 0;
#X msg 495 3 \; \$0-array2 const 0;
#X msg 503 43 \; \$0-array3 const 0;
#X msg 623 -78 \; \$0-array4 const 0;
#X msg 632 -38 \; \$0-array5 const 0;
#X msg 647 3 \; \$0-array6 const 0;
#X msg 657 43 \; \$0-array7 const 0;
#X msg 771 -78 \; \$0-array8 const 0;
#X msg 780 -38 \; \$0-array9 const 0;
#X msg 795 3 \; \$0-array10 const 0;
#X msg 804 43 \; \$0-array11 const 0;
#X msg 923 -78 \; \$0-array12 const 0;
#X msg 932 -38 \; \$0-array13 const 0;
#X msg 947 3 \; \$0-array14 const 0;
#X msg 956 43 \; \$0-array15 const 0;
#X msg 189 65 48000;
#X connect 0 0 1 0;
#X connect 1 0 2 0;
#X connect 3 0 1 0;
#X connect 4 0 41 0;
#X connect 21 0 5 0;
#X connect 21 0 6 0;
#X connect 21 0 7 0;
#X connect 21 0 8 0;
#X connect 21 0 12 0;
#X connect 21 0 11 0;
#X connect 21 0 10 0;
#X connect 21 0 9 0;
#X connect 21 0 13 0;
#X connect 21 0 14 0;
#X connect 21 0 15 0;
#X connect 21 0 16 0;
#X connect 21 0 17 0;
#X connect 21 0 18 0;
#X connect 21 0 19 0;
#X connect 21 0 20 0;
#X connect 23 0 41 0;
#X connect 23 0 1 0;
#X connect 24 0 25 0;
#X connect 24 0 26 0;
#X connect 24 0 27 0;
#X connect 24 0 28 0;
#X connect 24 0 29 0;
#X connect 24 0 33 0;
#X connect 24 0 30 0;
#X connect 24 0 31 0;
#X connect 24 0 32 0;
#X connect 24 0 34 0;
#X connect 24 0 35 0;
#X connect 24 0 36 0;
#X connect 24 0 37 0;
#X connect 24 0 38 0;
#X connect 24 0 39 0;
#X connect 24 0 40 0;
#X connect 41 0 22 0;
#X restore 30 -330 pd init;
#X obj 310 160 dac~ 1 2;
#X obj 30 -250 s INIT;
#X obj 30 -260 bng 50 250 50 0 empty empty init 7 24 0 14 #fcfcfc #000000
#000000;
#X obj 30 -167 s CLEAR;
#X obj 30 -197 bng 50 250 50 0 empty empty clear 5 24 0 14 #fcfcfc
#000000 #000000;
#X text 80 -250 re-send init values;
#X text 80 -190 clear everyone;
#X text 80 -170 & get started afresh;
#N canvas 455 272 1059 806 detect-attacks 0;
#X obj 244 14 inlet~;
#X obj 206 121 bonk~;
#X obj 141 21 loadbang;
#X obj 206 158 t b b b, f 24;
#X msg 288 188 0;
#X obj 319 273 spigot;
#X obj 420 143 loadbang;
#X msg 420 172 1;
#X obj 206 187 delay 300;
#X msg 206 216 1;
#X text 365 204 allow an attack to pass and then close during 300ms
before allowing the next possible attack to pass through;
#X obj 319 298 s att;
#X obj 254 418 bng 72 250 50 0 empty empty ATTACK 7 32 0 16 #ffea24
#ff0000 #000000;
#X msg 141 49 minvel 30;
#X connect 0 0 1 0;
#X connect 1 0 3 0;
#X connect 2 0 13 0;
#X connect 3 0 8 0;
#X connect 3 1 4 0;
#X connect 3 2 5 0;
#X connect 4 0 5 1;
#X connect 5 0 11 0;
#X connect 5 0 12 0;
#X connect 6 0 7 0;
#X connect 7 0 5 1;
#X connect 8 0 9 0;
#X connect 9 0 5 1;
#X connect 13 0 1 0;
#X coords 0 -1 1 1 124 124 1 210 379;
#X restore 385 -261 pd detect-attacks;
#X obj 385 -316 adc~ 1;
#X obj 410 -285 delwrite~ buffer1 3000;
#N canvas 6 61 1912 1017 buffer-read-and-write 0;
#X obj 238 -1246 delread~ buffer1;
#X obj 238 -1198 *~;
#X obj 260 -1335 line~;
#X obj 225 -1444 delay 100;
#X obj 345 -1943 + 1;
#X msg 321 -1575 start;
#X obj 177 -1581 delay 100;
#X msg 177 -1556 stop;
#X msg 210 -1494 set \$1;
#X obj 96 -1121 tabwrite~;
#X obj 345 -1914 % 16;
#X text 377 -1915 adjust to number of available arrays;
#X obj 345 -1866 makefilename \$0-array%d;
#X msg 320 -1792 \; \$1-stop bang;
#X obj 320 -1821 symbol;
#X obj 345 -1968 f -1;
#X text 399 -2011 reset;
#X obj 271 -2030 t b b b b, f 11;
#X text 444 -2042 2- stop reading this table;
#X text 444 -2022 3- write in this table;
#X text 444 -2002 4- re-start reading this table;
#X obj 270 -1741 symbol;
#X msg 270 -1712 \; \$1-start bang;
#X obj 270 -1964 delay 500;
#X text 465 -1984 after a while;
#X obj 237 -1609 r \$0-lengthbuf;
#X obj 285 -1474 r \$0-lengthbuf;
#X obj 384 -2039 r CLEAR;
#X obj 177 -1640 t b b b b, f 21;
#X obj 225 -1308 loadbang;
#X obj 271 -2059 r att;
#X text 444 -2062 1- get name of table & forward to tabwrite~;
#X text 352 -1648 3- write in this table;
#X text 378 -1628 3a- start writing immediately;
#X text 378 -1608 3b- let the delayed buffer signal pass;
#X text 378 -1588 3c- block the delayed buffer signal \, after 100
ms (or the length of the buffer \, as defined by the user);
#X msg 225 -1415 0 1;
#X msg 273 -1384 1 1;
#X text 378 -1552 3d- stop writing;
#X msg 225 -1277 900;
#X msg 388 -1710 \; \$1-start__ bang;
#X msg 406 -1967 -2;
#X obj 510 -1810 s \$0-get-current-array-number;
#X obj 20 -2040 r \$0-set-current-array-number;
#X connect 0 0 1 0;
#X connect 1 0 9 0;
#X connect 2 0 1 1;
#X connect 3 0 36 0;
#X connect 4 0 10 0;
#X connect 4 0 15 1;
#X connect 5 0 9 0;
#X connect 6 0 7 0;
#X connect 7 0 9 0;
#X connect 8 0 9 0;
#X connect 10 0 12 0;
#X connect 10 0 42 0;
#X connect 12 0 14 1;
#X connect 12 0 21 1;
#X connect 12 0 8 0;
#X connect 14 0 13 0;
#X connect 15 0 4 0;
#X connect 17 0 23 0;
#X connect 17 1 28 0;
#X connect 17 2 14 0;
#X connect 17 3 15 0;
#X connect 21 0 22 0;
#X connect 21 0 40 0;
#X connect 23 0 21 0;
#X connect 25 0 6 1;
#X connect 26 0 3 1;
#X connect 27 0 41 0;
#X connect 28 0 6 0;
#X connect 28 1 3 0;
#X connect 28 2 37 0;
#X connect 28 3 5 0;
#X connect 29 0 39 0;
#X connect 30 0 17 0;
#X connect 36 0 2 0;
#X connect 37 0 2 0;
#X connect 39 0 0 0;
#X connect 41 0 15 0;
#X connect 43 0 15 0;
#X restore 31 -305 pd buffer-read-and-write;
#X obj 424 138 env~;
#X floatatom 424 167 5 0 0 0 - - -, f 5;
#X connect 1 0 3 1;
#X connect 1 0 3 0;
#X connect 1 0 15 0;
#X connect 5 0 4 0;
#X connect 7 0 6 0;
#X connect 12 0 11 0;
#X connect 12 0 13 0;
#X connect 15 0 16 0;
