#N canvas 6 59 1908 965 12;
#X obj 20 -270 cnv 15 212 130 empty empty empty 20 12 0 14 #e0e0e0
#404040 0;
#N canvas 502 239 1351 839 init 0;
#X obj 20 13 loadbang;
#X obj 20 42 samplerate~;
#X obj 20 71 s sr;
#X obj 86 16 bng 15 250 50 0 empty empty empty 17 7 0 10 #fcfcfc #000000
#000000;
#X obj 189 36 loadbang;
#X msg 57 220 \; \$0-array0 resize \$1;
#X msg 66 260 \; \$0-array1 resize \$1;
#X msg 81 301 \; \$0-array2 resize \$1;
#X msg 89 341 \; \$0-array3 resize \$1;
#X msg 209 220 \; \$0-array4 resize \$1;
#X msg 218 260 \; \$0-array5 resize \$1;
#X msg 233 301 \; \$0-array6 resize \$1;
#X msg 243 341 \; \$0-array7 resize \$1;
#X msg 357 220 \; \$0-array8 resize \$1;
#X msg 366 260 \; \$0-array9 resize \$1;
#X msg 381 301 \; \$0-array10 resize \$1;
#X msg 390 341 \; \$0-array11 resize \$1;
#X msg 509 220 \; \$0-array12 resize \$1;
#X msg 518 260 \; \$0-array13 resize \$1;
#X msg 533 301 \; \$0-array14 resize \$1;
#X msg 542 341 \; \$0-array15 resize \$1;
#X obj 57 190 r \$0-lengthbuf;
#X obj 189 94 s \$0-lengthbuf;
#X obj 140 -101 r INIT;
#X obj 512 -138 r CLEAR;
#X msg 471 -78 \; \$0-array0 const 0;
#X msg 480 -38 \; \$0-array1 const 0;
#X msg 495 3 \; \$0-array2 const 0;
#X msg 503 43 \; \$0-array3 const 0;
#X msg 623 -78 \; \$0-array4 const 0;
#X msg 632 -38 \; \$0-array5 const 0;
#X msg 647 3 \; \$0-array6 const 0;
#X msg 657 43 \; \$0-array7 const 0;
#X msg 771 -78 \; \$0-array8 const 0;
#X msg 780 -38 \; \$0-array9 const 0;
#X msg 795 3 \; \$0-array10 const 0;
#X msg 804 43 \; \$0-array11 const 0;
#X msg 923 -78 \; \$0-array12 const 0;
#X msg 932 -38 \; \$0-array13 const 0;
#X msg 947 3 \; \$0-array14 const 0;
#X msg 956 43 \; \$0-array15 const 0;
#X msg 189 65 48000;
#X connect 0 0 1 0;
#X connect 1 0 2 0;
#X connect 3 0 1 0;
#X connect 4 0 41 0;
#X connect 21 0 5 0;
#X connect 21 0 6 0;
#X connect 21 0 7 0;
#X connect 21 0 8 0;
#X connect 21 0 12 0;
#X connect 21 0 11 0;
#X connect 21 0 10 0;
#X connect 21 0 9 0;
#X connect 21 0 13 0;
#X connect 21 0 14 0;
#X connect 21 0 15 0;
#X connect 21 0 16 0;
#X connect 21 0 17 0;
#X connect 21 0 18 0;
#X connect 21 0 19 0;
#X connect 21 0 20 0;
#X connect 23 0 41 0;
#X connect 23 0 1 0;
#X connect 24 0 25 0;
#X connect 24 0 26 0;
#X connect 24 0 27 0;
#X connect 24 0 28 0;
#X connect 24 0 29 0;
#X connect 24 0 33 0;
#X connect 24 0 30 0;
#X connect 24 0 31 0;
#X connect 24 0 32 0;
#X connect 24 0 34 0;
#X connect 24 0 35 0;
#X connect 24 0 36 0;
#X connect 24 0 37 0;
#X connect 24 0 38 0;
#X connect 24 0 39 0;
#X connect 24 0 40 0;
#X connect 41 0 22 0;
#X restore 30 -330 pd init;
#X obj 310 160 dac~ 1 2;
#X obj 30 -250 s INIT;
#X obj 30 -260 bng 50 250 50 0 empty empty init 7 24 0 14 #fcfcfc #000000
#000000;
#X obj 30 -167 s CLEAR;
#X obj 30 -197 bng 50 250 50 0 empty empty clear 5 24 0 14 #fcfcfc
#000000 #000000;
#X text 80 -250 re-send init values;
#X text 80 -190 clear everyone;
#X text 80 -170 & get started afresh;
#X obj 385 -316 adc~ 1;
#X obj 410 -285 delwrite~ buffer1 3000;
#N canvas 6 61 1912 1017 buffer-read-and-write 0;
#X obj 238 -1246 delread~ buffer1;
#X obj 238 -1198 *~;
#X obj 260 -1335 line~;
#X obj 225 -1444 delay 100;
#X obj 345 -1943 + 1;
#X msg 321 -1575 start;
#X obj 177 -1581 delay 100;
#X msg 177 -1556 stop;
#X msg 210 -1494 set \$1;
#X obj 96 -1121 tabwrite~;
#X obj 345 -1914 % 16;
#X text 377 -1915 adjust to number of available arrays;
#X obj 345 -1866 makefilename \$0-array%d;
#X msg 320 -1792 \; \$1-stop bang;
#X obj 320 -1821 symbol;
#X obj 345 -1968 f -1;
#X text 399 -2011 reset;
#X obj 271 -2030 t b b b b, f 11;
#X text 444 -2042 2- stop reading this table;
#X text 444 -2022 3- write in this table;
#X text 444 -2002 4- re-start reading this table;
#X obj 270 -1741 symbol;
#X msg 270 -1712 \; \$1-start bang;
#X obj 270 -1964 delay 500;
#X text 465 -1984 after a while;
#X obj 237 -1609 r \$0-lengthbuf;
#X obj 285 -1474 r \$0-lengthbuf;
#X obj 384 -2039 r CLEAR;
#X obj 177 -1640 t b b b b, f 21;
#X obj 225 -1308 loadbang;
#X obj 271 -2059 r att;
#X text 444 -2062 1- get name of table & forward to tabwrite~;
#X text 352 -1648 3- write in this table;
#X text 378 -1628 3a- start writing immediately;
#X text 378 -1608 3b- let the delayed buffer signal pass;
#X text 378 -1588 3c- block the delayed buffer signal \, after 100
ms (or the length of the buffer \, as defined by the user);
#X msg 225 -1415 0 1;
#X msg 273 -1384 1 1;
#X text 378 -1552 3d- stop writing;
#X msg 225 -1277 900;
#X msg 388 -1710 \; \$1-start__ bang;
#X msg 406 -1967 -2;
#X obj 510 -1810 s \$0-get-current-array-number;
#X obj 20 -2040 r \$0-set-current-array-number;
#X connect 0 0 1 0;
#X connect 1 0 9 0;
#X connect 2 0 1 1;
#X connect 3 0 36 0;
#X connect 4 0 10 0;
#X connect 4 0 15 1;
#X connect 5 0 9 0;
#X connect 6 0 7 0;
#X connect 7 0 9 0;
#X connect 8 0 9 0;
#X connect 10 0 12 0;
#X connect 10 0 42 0;
#X connect 12 0 14 1;
#X connect 12 0 21 1;
#X connect 12 0 8 0;
#X connect 14 0 13 0;
#X connect 15 0 4 0;
#X connect 17 0 23 0;
#X connect 17 1 28 0;
#X connect 17 2 14 0;
#X connect 17 3 15 0;
#X connect 21 0 22 0;
#X connect 21 0 40 0;
#X connect 23 0 21 0;
#X connect 25 0 6 1;
#X connect 26 0 3 1;
#X connect 27 0 41 0;
#X connect 28 0 6 0;
#X connect 28 1 3 0;
#X connect 28 2 37 0;
#X connect 28 3 5 0;
#X connect 29 0 39 0;
#X connect 30 0 17 0;
#X connect 36 0 2 0;
#X connect 37 0 2 0;
#X connect 39 0 0 0;
#X connect 41 0 15 0;
#X connect 43 0 15 0;
#X restore 31 -305 pd buffer-read-and-write;
#X obj 424 138 env~;
#X floatatom 424 167 5 0 0 0 - - -, f 5;
#X obj 290 -190 saccades;
#X connect 4 0 3 0;
#X connect 6 0 5 0;
#X connect 10 0 11 0;
#X connect 10 0 15 0;
#X connect 13 0 14 0;
#X connect 15 0 2 0;
#X connect 15 0 2 1;
#X connect 15 0 13 0;
