#N canvas 6 59 1908 965 12;
#X text 705 249 Sakina;
#N canvas 6 59 1908 990 saccades1 0;
#X obj 69 -489 cnv 15 212 130 empty empty empty 20 12 0 14 #e0e0e0
#404040 0;
#N canvas 6 59 1908 965 TheArrays 0;
#X obj 860 900 outlet~;
#X obj 260 -560 table 1-array0;
#X obj 260 -511 table 1-array2;
#X obj 260 -487 table 1-array3;
#X obj 377 -560 table 1-array4;
#X obj 377 -536 table 1-array5;
#X obj 377 -511 table 1-array6;
#X obj 377 -487 table 1-array7;
#X floatatom 825 54 5 0 0 0 - - -, f 5;
#X obj 260 -536 table 1-array1;
#X floatatom 739 54 5 0 0 0 - - -, f 5;
#X floatatom 909 54 5 0 0 0 - - -, f 5;
#X floatatom 992 54 5 0 0 0 - - -, f 5;
#X floatatom 1076 54 5 0 0 0 - - -, f 5;
#X floatatom 1160 54 5 0 0 0 - - -, f 5;
#X floatatom 1329 54 5 0 0 0 - - -, f 5;
#X floatatom 1244 54 5 0 0 0 - - -, f 5;
#X text 827 -28 1;
#X text 911 -28 2;
#X text 992 -28 3;
#X text 1078 -28 4;
#X text 1162 -28 5;
#X text 1246 -28 6;
#X text 1330 -28 7;
#X text 741 -28 0;
#X text 698 -29 array;
#X text 688 54 vumeter;
#X obj 1076 34 tgl 15 0 empty empty empty 17 7 0 10 #fcfcfc #000000
#000000 1 1;
#X obj 1160 34 tgl 15 0 empty empty empty 17 7 0 10 #fcfcfc #000000
#000000 1 1;
#X obj 1244 34 tgl 15 0 empty empty empty 17 7 0 10 #fcfcfc #000000
#000000 1 1;
#X obj 1328 34 tgl 15 0 empty empty empty 17 7 0 10 #fcfcfc #000000
#000000 1 1;
#X obj 740 34 tgl 15 0 empty empty empty 17 7 0 10 #fcfcfc #000000
#000000 1 1;
#X obj 825 34 tgl 15 0 empty empty empty 17 7 0 10 #fcfcfc #000000
#000000 1 1;
#X obj 909 34 tgl 15 0 empty empty empty 17 7 0 10 #fcfcfc #000000
#000000 1 1;
#X obj 992 34 tgl 15 0 empty empty empty 17 7 0 10 #fcfcfc #000000
#000000 1 1;
#X obj 783 -46 tgl 15 0 empty empty empty 17 7 0 10 #fcfcfc #000000
#000000 0 1;
#X text 800 -50 start/stop all;
#X obj -51 486 r 1-array0-silenceMult;
#X obj 740 210 s 1-array0-silenceMult;
#X obj -116 572 s 1-array0-stop;
#X obj -136 627 s 1-array0-start;
#X obj -21 363 r sr;
#X obj -39 677 phasor~;
#X obj -21 390 / 100, f 6;
#X msg -140 291 0;
#X obj -39 419 f;
#X obj 18 336 r 1-lengthbuf;
#X obj -39 767 env~;
#X obj -39 706 *~;
#X obj -140 262 r 1-array0-stop;
#X obj -105 291 r 1-array0-start;
#X obj -39 737 tabread~ 1-array0;
#X obj 553 -172 r 1-array0-start__;
#X msg 553 -143 1;
#X msg 552 -207 1;
#X obj 552 -236 r 1-array1-start__;
#X msg 552 -272 1;
#X msg 551 -336 1;
#X msg 390 -138 1;
#X msg 389 -202 1;
#X msg 389 -267 1;
#X msg 388 -331 1;
#X obj 552 -301 r 1-array2-start__;
#X obj 551 -365 r 1-array3-start__;
#X obj 390 -167 r 1-array4-start__;
#X obj 389 -231 r 1-array5-start__;
#X obj 389 -296 r 1-array6-start__;
#X obj 388 -360 r 1-array7-start__;
#X obj 18 359 t b f f f;
#X obj -148 395 f;
#X obj -69 517 *;
#X obj -105 320 t b b;
#X obj 740 79 hsl 60 15 0 127 0 0 empty empty empty -2 -8 0 10 #fcfcfc
#000000 #000000 0 1;
#X obj 740 113 / 127;
#X obj -136 601 delay 1000;
#X obj -148 517 delay 1000;
#X obj -116 395 r sr;
#X obj -148 424 / 48000;
#X obj -148 453 * 1000;
#X obj -148 546 t b b;
#X obj -148 480 t b f f;
#X obj 283 369 r sr;
#X obj 265 683 phasor~;
#X obj 283 396 / 100, f 6;
#X msg 164 297 0;
#X obj 265 425 f;
#X obj 322 342 r 1-lengthbuf;
#X obj 265 773 env~;
#X obj 265 712 *~;
#X obj 322 365 t b f f f;
#X obj 156 401 f;
#X obj 235 523 *;
#X obj 199 326 t b b;
#X obj 168 607 delay 1000;
#X obj 156 523 delay 1000;
#X obj 188 401 r sr;
#X obj 156 430 / 48000;
#X obj 156 459 * 1000;
#X obj 156 552 t b b;
#X obj 156 486 t b f f;
#X obj 582 376 r sr;
#X obj 564 690 phasor~;
#X obj 582 403 / 100, f 6;
#X msg 463 304 0;
#X obj 564 432 f;
#X obj 621 349 r 1-lengthbuf;
#X obj 564 780 env~;
#X obj 564 719 *~;
#X obj 621 372 t b f f f;
#X obj 455 408 f;
#X obj 534 530 *;
#X obj 498 333 t b b;
#X obj 467 614 delay 1000;
#X obj 455 530 delay 1000;
#X obj 487 408 r sr;
#X obj 455 437 / 48000;
#X obj 455 466 * 1000;
#X obj 455 559 t b b;
#X obj 455 493 t b f f;
#X obj 900 371 r sr;
#X obj 882 685 phasor~;
#X obj 900 398 / 100, f 6;
#X msg 781 299 0;
#X obj 882 427 f;
#X obj 939 344 r 1-lengthbuf;
#X obj 882 775 env~;
#X obj 882 714 *~;
#X obj 939 367 t b f f f;
#X obj 773 403 f;
#X obj 852 525 *;
#X obj 816 328 t b b;
#X obj 785 609 delay 1000;
#X obj 773 525 delay 1000;
#X obj 805 403 r sr;
#X obj 773 432 / 48000;
#X obj 773 461 * 1000;
#X obj 773 554 t b b;
#X obj 773 488 t b f f;
#X obj 1207 363 r sr;
#X obj 1189 677 phasor~;
#X obj 1207 390 / 100, f 6;
#X msg 1088 291 0;
#X obj 1189 419 f;
#X obj 1246 336 r 1-lengthbuf;
#X obj 1189 767 env~;
#X obj 1189 706 *~;
#X obj 1246 359 t b f f f;
#X obj 1080 395 f;
#X obj 1159 517 *;
#X obj 1123 320 t b b;
#X obj 1092 601 delay 1000;
#X obj 1080 517 delay 1000;
#X obj 1112 395 r sr;
#X obj 1080 424 / 48000;
#X obj 1080 453 * 1000;
#X obj 1080 546 t b b;
#X obj 1080 480 t b f f;
#X obj 1511 369 r sr;
#X obj 1493 683 phasor~;
#X obj 1511 396 / 100, f 6;
#X msg 1392 297 0;
#X obj 1493 425 f;
#X obj 1550 342 r 1-lengthbuf;
#X obj 1493 773 env~;
#X obj 1493 712 *~;
#X obj 1550 365 t b f f f;
#X obj 1384 401 f;
#X obj 1463 523 *;
#X obj 1427 326 t b b;
#X obj 1396 607 delay 1000;
#X obj 1384 523 delay 1000;
#X obj 1416 401 r sr;
#X obj 1384 430 / 48000;
#X obj 1384 459 * 1000;
#X obj 1384 552 t b b;
#X obj 1384 486 t b f f;
#X obj 1810 376 r sr;
#X obj 1792 690 phasor~;
#X obj 1810 403 / 100, f 6;
#X msg 1691 304 0;
#X obj 1792 432 f;
#X obj 1849 349 r 1-lengthbuf;
#X obj 1792 780 env~;
#X obj 1792 719 *~;
#X obj 1849 372 t b f f f;
#X obj 1683 408 f;
#X obj 1762 530 *;
#X obj 1726 333 t b b;
#X obj 1695 614 delay 1000;
#X obj 1683 530 delay 1000;
#X obj 1715 408 r sr;
#X obj 1683 437 / 48000;
#X obj 1683 466 * 1000;
#X obj 1683 559 t b b;
#X obj 1683 493 t b f f;
#X obj 2128 371 r sr;
#X obj 2110 685 phasor~;
#X obj 2128 398 / 100, f 6;
#X msg 2009 299 0;
#X obj 2110 427 f;
#X obj 2167 344 r 1-lengthbuf;
#X obj 2110 775 env~;
#X obj 2110 714 *~;
#X obj 2167 367 t b f f f;
#X obj 2001 403 f;
#X obj 2080 525 *;
#X obj 2044 328 t b b;
#X obj 2013 609 delay 1000;
#X obj 2001 525 delay 1000;
#X obj 2033 403 r sr;
#X obj 2001 432 / 48000;
#X obj 2001 461 * 1000;
#X obj 2001 554 t b b;
#X obj 2001 488 t b f f;
#X obj 826 79 hsl 60 15 0 127 0 0 empty empty empty -2 -8 0 10 #fcfcfc
#000000 #000000 0 1;
#X obj 826 113 / 127;
#X obj 826 235 s 1-array1-silenceMult;
#X obj 909 79 hsl 60 15 0 127 0 0 empty empty empty -2 -8 0 10 #fcfcfc
#000000 #000000 0 1;
#X obj 909 113 / 127;
#X obj 909 209 s 1-array2-silenceMult;
#X obj 1076 78 hsl 60 15 0 127 0 0 empty empty empty -2 -8 0 10 #fcfcfc
#000000 #000000 0 1;
#X obj 1076 112 / 127;
#X obj 1160 78 hsl 60 15 0 127 0 0 empty empty empty -2 -8 0 10 #fcfcfc
#000000 #000000 0 1;
#X obj 1160 112 / 127;
#X obj 1244 78 hsl 60 15 0 127 0 0 empty empty empty -2 -8 0 10 #fcfcfc
#000000 #000000 0 1;
#X obj 1244 112 / 127;
#X obj 992 79 hsl 60 15 0 127 0 0 empty empty empty -2 -8 0 10 #fcfcfc
#000000 #000000 0 1;
#X obj 992 113 / 127;
#X obj 992 235 s 1-array3-silenceMult;
#X obj 1076 209 s 1-array4-silenceMult;
#X obj 1160 234 s 1-array5-silenceMult;
#X obj 1244 208 s 1-array6-silenceMult;
#X obj 1329 78 hsl 60 15 0 127 0 0 empty empty empty -2 -8 0 10 #fcfcfc
#000000 #000000 0 1;
#X obj 1329 112 / 127;
#X obj 1329 234 s 1-array7-silenceMult;
#X obj 164 268 r 1-array1-stop;
#X obj 199 297 r 1-array1-start;
#X obj 254 492 r 1-array1-silenceMult;
#X obj 188 578 s 1-array1-stop;
#X obj 168 633 s 1-array1-start;
#X obj 265 743 tabread~ 1-array1;
#X obj 564 750 tabread~ 1-array2;
#X obj 882 745 tabread~ 1-array3;
#X obj 1189 737 tabread~ 1-array4;
#X obj 1493 743 tabread~ 1-array5;
#X obj 1792 750 tabread~ 1-array6;
#X obj 2110 745 tabread~ 1-array7;
#X obj 463 275 r 1-array2-stop;
#X obj 498 304 r 1-array2-start;
#X obj 552 499 r 1-array2-silenceMult;
#X obj 487 585 s 1-array2-stop;
#X obj 467 640 s 1-array2-start;
#X obj 785 635 s 1-array3-start;
#X obj 805 580 s 1-array3-stop;
#X obj 870 494 r 1-array3-silenceMult;
#X obj 816 299 r 1-array3-start;
#X obj 781 270 r 1-array3-stop;
#X obj 1088 262 r 1-array4-stop;
#X obj 1123 291 r 1-array4-start;
#X obj 1177 486 r 1-array4-silenceMult;
#X obj 1112 572 s 1-array4-stop;
#X obj 1092 627 s 1-array4-start;
#X obj 1396 633 s 1-array5-start;
#X obj 1416 578 s 1-array5-stop;
#X obj 1481 492 r 1-array5-silenceMult;
#X obj 1427 297 r 1-array5-start;
#X obj 1392 268 r 1-array5-stop;
#X obj 1691 275 r 1-array6-stop;
#X obj 1726 304 r 1-array6-start;
#X obj 1780 499 r 1-array6-silenceMult;
#X obj 1715 585 s 1-array6-stop;
#X obj 1695 640 s 1-array6-start;
#X obj 2013 635 s 1-array7-start;
#X obj 2033 580 s 1-array7-stop;
#X obj 2098 494 r 1-array7-silenceMult;
#X obj 2044 299 r 1-array7-start;
#X obj 2009 270 r 1-array7-stop;
#X obj -3 767 *~;
#X obj 302 773 *~;
#X obj 599 780 *~;
#X obj 917 775 *~;
#X obj 1225 767 *~;
#X obj 1530 773 *~;
#X obj 1828 780 *~;
#X obj 2147 775 *~;
#X text 586 76 silence between loops;
#X floatatom 1020 -51 5 0 0 0 - - -, f 5;
#X obj 740 -6 bng 15 250 50 0 empty empty empty 17 7 0 10 #fcfcfc #000000
#000000;
#X obj 850 -337 s 1-set-current-array-number;
#X obj 1100 -290 r 1-get-current-array-number;
#X text 610 -10 load for recording;
#X obj 825 -6 bng 15 250 50 0 empty empty empty 17 7 0 10 #fcfcfc #000000
#000000;
#X obj 909 -6 bng 15 250 50 0 empty empty empty 17 7 0 10 #fcfcfc #000000
#000000;
#X obj 991 -6 bng 15 250 50 0 empty empty empty 17 7 0 10 #fcfcfc #000000
#000000;
#X msg 850 -470 -2;
#X msg 882 -469 -1;
#X msg 912 -469 0;
#X msg 942 -469 1;
#X obj 1076 -5 bng 15 250 50 0 empty empty empty 17 7 0 10 #fcfcfc
#000000 #000000;
#X obj 1161 -5 bng 15 250 50 0 empty empty empty 17 7 0 10 #fcfcfc
#000000 #000000;
#X obj 1245 -5 bng 15 250 50 0 empty empty empty 17 7 0 10 #fcfcfc
#000000 #000000;
#X obj 1327 -5 bng 15 250 50 0 empty empty empty 17 7 0 10 #fcfcfc
#000000 #000000;
#X msg 880 -440 2;
#X msg 912 -439 3;
#X msg 942 -439 4;
#X msg 972 -439 5;
#X text 1059 -51 next array in line for recording;
#X obj 1270 -490 r CLEAR;
#X msg 1270 -461 0;
#X msg 1320 -460 0;
#X obj 1100 -261 + 1;
#X obj 740 13 bng 15 250 50 0 empty empty a 5 5 0 10 #15ff6e #033806
#000000;
#X obj -374 -129 s 1-array0-start;
#X obj -397 26 delay;
#X obj -365 -103 r sr;
#X obj -365 -25 /;
#X obj -350 -80 r 1-lengthbuf;
#X obj -350 -54 t b f;
#X obj -365 0 * 1000;
#X msg -351 -153 1;
#X obj -365 85 s 1-array0-stop;
#X obj -397 55 t b b;
#X msg -397 84 0;
#X obj -397 -177 t b b b;
#X text 617 11 pulse (play once);
#X obj 825 13 bng 15 250 50 0 empty empty b 5 5 0 10 #15ff62 #033806
#000000;
#X obj -562 21 delay;
#X obj -530 -108 r sr;
#X obj -530 -30 /;
#X obj -515 -85 r 1-lengthbuf;
#X obj -515 -59 t b f;
#X obj -530 -5 * 1000;
#X msg -516 -158 1;
#X obj -562 50 t b b;
#X msg -562 79 0;
#X obj -562 -182 t b b b;
#X obj 1327 13 bng 15 250 50 0 empty empty h 5 5 0 10 #15ff62 #033806
#000000;
#X obj -390 323 delay;
#X obj -358 194 r sr;
#X obj -358 272 /;
#X obj -343 217 r 1-lengthbuf;
#X obj -343 243 t b f;
#X obj -358 297 * 1000;
#X msg -344 144 1;
#X obj -390 352 t b b;
#X msg -390 381 0;
#X obj -390 120 t b b b;
#X obj 1244 13 bng 15 250 50 0 empty empty g 5 5 0 10 #15ff62 #033806
#000000;
#X obj -560 321 delay;
#X obj -528 192 r sr;
#X obj -528 270 /;
#X obj -513 215 r 1-lengthbuf;
#X obj -513 241 t b f;
#X obj -528 295 * 1000;
#X msg -514 142 1;
#X obj -560 350 t b b;
#X msg -560 379 0;
#X obj -560 118 t b b b;
#X obj 1161 13 bng 15 250 50 0 empty empty f 5 5 0 10 #15ff62 #033806
#000000;
#X obj -722 317 delay;
#X obj -690 188 r sr;
#X obj -690 266 /;
#X obj -675 211 r 1-lengthbuf;
#X obj -675 237 t b f;
#X obj -690 291 * 1000;
#X msg -676 138 1;
#X obj -722 346 t b b;
#X msg -722 375 0;
#X obj -722 114 t b b b;
#X obj 909 13 bng 15 250 50 0 empty empty c 5 5 0 10 #15ff62 #033806
#000000;
#X obj -730 23 delay;
#X obj -698 -106 r sr;
#X obj -698 -28 /;
#X obj -683 -83 r 1-lengthbuf;
#X obj -683 -57 t b f;
#X obj -698 -3 * 1000;
#X msg -684 -156 1;
#X obj -730 52 t b b;
#X msg -730 81 0;
#X obj -730 -180 t b b b;
#X obj 1076 13 bng 15 250 50 0 empty empty e 5 5 0 10 #15ff62 #033806
#000000;
#X obj -894 315 delay;
#X obj -862 186 r sr;
#X obj -862 264 /;
#X obj -847 209 r 1-lengthbuf;
#X obj -847 235 t b f;
#X obj -862 289 * 1000;
#X msg -848 136 1;
#X obj -894 344 t b b;
#X msg -894 373 0;
#X obj -894 112 t b b b;
#X obj 991 13 bng 15 250 50 0 empty empty d 5 5 0 10 #15ff62 #033806
#000000;
#X obj -890 23 delay;
#X obj -858 -106 r sr;
#X obj -858 -28 /;
#X obj -843 -83 r 1-lengthbuf;
#X obj -843 -57 t b f;
#X obj -858 -3 * 1000;
#X msg -844 -156 1;
#X obj -890 52 t b b;
#X msg -890 81 0;
#X obj -890 -180 t b b b;
#X obj -539 -134 s 1-array1-start;
#X obj -530 80 s 1-array1-stop;
#X obj -707 -132 s 1-array2-start;
#X obj -698 82 s 1-array2-stop;
#X obj -867 -132 s 1-array3-start;
#X obj -858 82 s 1-array3-stop;
#X obj -871 160 s 1-array4-start;
#X obj -862 374 s 1-array4-stop;
#X obj -699 162 s 1-array5-start;
#X obj -690 376 s 1-array5-stop;
#X obj -528 380 s 1-array6-stop;
#X obj -358 382 s 1-array7-stop;
#X obj -367 168 s 1-array7-start;
#X obj -537 166 s 1-array6-start;
#X text 628 31 loop start/stop;
#X obj 1630 -480 key;
#X floatatom 1630 -451 5 0 0 0 - - -, f 5;
#X obj 1400 78 bng 15 250 50 0 empty empty empty 17 7 0 10 #fcfcfc
#000000 #000000;
#N canvas 741 1111 865 475 random_series 0;
#X obj 110 71 inlet bang;
#X obj 110 131 random 127;
#X obj 110 240 outlet rand1;
#X obj 200 131 random 127;
#X obj 290 131 random 127;
#X obj 380 131 random 127;
#X obj 470 131 random 127;
#X obj 560 131 random 127;
#X obj 650 131 random 127;
#X obj 740 131 random 127;
#X obj 200 240 outlet rand2;
#X obj 290 240 outlet rand3;
#X obj 380 240 outlet rand4;
#X obj 470 240 outlet rand5;
#X obj 560 240 outlet rand6;
#X obj 650 240 outlet rand7;
#X obj 740 240 outlet rand8;
#X connect 0 0 1 0;
#X connect 0 0 3 0;
#X connect 0 0 4 0;
#X connect 0 0 5 0;
#X connect 0 0 6 0;
#X connect 0 0 7 0;
#X connect 0 0 8 0;
#X connect 0 0 9 0;
#X connect 1 0 2 0;
#X connect 3 0 10 0;
#X connect 4 0 11 0;
#X connect 5 0 12 0;
#X connect 6 0 13 0;
#X connect 7 0 14 0;
#X connect 8 0 15 0;
#X connect 9 0 16 0;
#X restore 740 -395 pd random_series;
#X text 1420 66 randomize;
#X text 1420 86 loop times;
#X obj 1630 -420 sel 97 98 99 100 101 102 103 104;
#X obj 740 142 * 15;
#X obj 740 171 + 15;
#X obj 826 141 * 15;
#X obj 826 170 + 15;
#X obj 909 141 * 15;
#X obj 909 170 + 15;
#X obj 992 141 * 15;
#X obj 992 170 + 15;
#X obj 1076 140 * 15;
#X obj 1076 169 + 15;
#X obj 1159 140 * 15;
#X obj 1159 169 + 15;
#X obj 1244 141 * 15;
#X obj 1244 170 + 15;
#X obj 1329 141 * 15;
#X obj 1329 170 + 15;
#X obj 1400 16 tgl 15 0 empty empty empty 17 7 0 10 #fcfcfc #000000
#000000 0 1;
#X text 1400 -50 automatically;
#X text 1400 -30 change;
#X text 1400 -10 loop times;
#X obj 1400 40 metro 100000;
#X connect 27 0 281 1;
#X connect 28 0 282 1;
#X connect 29 0 283 1;
#X connect 30 0 284 1;
#X connect 31 0 277 1;
#X connect 32 0 278 1;
#X connect 33 0 279 1;
#X connect 34 0 280 1;
#X connect 35 0 31 0;
#X connect 35 0 32 0;
#X connect 35 0 33 0;
#X connect 35 0 34 0;
#X connect 35 0 27 0;
#X connect 35 0 28 0;
#X connect 35 0 29 0;
#X connect 35 0 30 0;
#X connect 37 0 70 1;
#X connect 41 0 43 0;
#X connect 42 0 48 0;
#X connect 43 0 45 1;
#X connect 44 0 42 0;
#X connect 45 0 42 0;
#X connect 46 0 68 0;
#X connect 47 0 10 0;
#X connect 48 0 51 0;
#X connect 49 0 44 0;
#X connect 50 0 71 0;
#X connect 51 0 277 0;
#X connect 52 0 53 0;
#X connect 53 0 31 0;
#X connect 54 0 32 0;
#X connect 55 0 54 0;
#X connect 56 0 33 0;
#X connect 57 0 34 0;
#X connect 58 0 27 0;
#X connect 59 0 28 0;
#X connect 60 0 29 0;
#X connect 61 0 30 0;
#X connect 62 0 56 0;
#X connect 63 0 57 0;
#X connect 64 0 58 0;
#X connect 65 0 59 0;
#X connect 66 0 60 0;
#X connect 67 0 61 0;
#X connect 68 0 43 0;
#X connect 68 1 43 1;
#X connect 68 2 48 1;
#X connect 68 3 69 1;
#X connect 69 0 77 0;
#X connect 70 0 74 1;
#X connect 71 0 69 0;
#X connect 71 1 45 0;
#X connect 72 0 73 0;
#X connect 73 0 424 0;
#X connect 74 0 40 0;
#X connect 75 0 79 0;
#X connect 76 0 77 1;
#X connect 77 0 78 0;
#X connect 78 0 80 0;
#X connect 79 0 74 0;
#X connect 79 1 39 0;
#X connect 80 0 75 0;
#X connect 80 1 75 1;
#X connect 80 2 70 0;
#X connect 81 0 83 0;
#X connect 82 0 88 0;
#X connect 83 0 85 1;
#X connect 84 0 82 0;
#X connect 85 0 82 0;
#X connect 86 0 89 0;
#X connect 87 0 8 0;
#X connect 88 0 240 0;
#X connect 89 0 83 0;
#X connect 89 1 83 1;
#X connect 89 2 88 1;
#X connect 89 3 90 1;
#X connect 90 0 96 0;
#X connect 91 0 93 1;
#X connect 92 0 90 0;
#X connect 92 1 85 0;
#X connect 93 0 239 0;
#X connect 94 0 98 0;
#X connect 95 0 96 1;
#X connect 96 0 97 0;
#X connect 97 0 99 0;
#X connect 98 0 93 0;
#X connect 98 1 238 0;
#X connect 99 0 94 0;
#X connect 99 1 94 1;
#X connect 99 2 91 0;
#X connect 100 0 102 0;
#X connect 101 0 107 0;
#X connect 102 0 104 1;
#X connect 103 0 101 0;
#X connect 104 0 101 0;
#X connect 105 0 108 0;
#X connect 106 0 11 0;
#X connect 107 0 241 0;
#X connect 108 0 102 0;
#X connect 108 1 102 1;
#X connect 108 2 107 1;
#X connect 108 3 109 1;
#X connect 109 0 115 0;
#X connect 110 0 112 1;
#X connect 111 0 109 0;
#X connect 111 1 104 0;
#X connect 112 0 251 0;
#X connect 113 0 117 0;
#X connect 114 0 115 1;
#X connect 115 0 116 0;
#X connect 116 0 118 0;
#X connect 117 0 112 0;
#X connect 117 1 250 0;
#X connect 118 0 113 0;
#X connect 118 1 113 1;
#X connect 118 2 110 0;
#X connect 119 0 121 0;
#X connect 120 0 126 0;
#X connect 121 0 123 1;
#X connect 122 0 120 0;
#X connect 123 0 120 0;
#X connect 124 0 127 0;
#X connect 125 0 12 0;
#X connect 126 0 242 0;
#X connect 127 0 121 0;
#X connect 127 1 121 1;
#X connect 127 2 126 1;
#X connect 127 3 128 1;
#X connect 128 0 134 0;
#X connect 129 0 131 1;
#X connect 130 0 128 0;
#X connect 130 1 123 0;
#X connect 131 0 252 0;
#X connect 132 0 136 0;
#X connect 133 0 134 1;
#X connect 134 0 135 0;
#X connect 135 0 137 0;
#X connect 136 0 131 0;
#X connect 136 1 253 0;
#X connect 137 0 132 0;
#X connect 137 1 132 1;
#X connect 137 2 129 0;
#X connect 138 0 140 0;
#X connect 139 0 145 0;
#X connect 140 0 142 1;
#X connect 141 0 139 0;
#X connect 142 0 139 0;
#X connect 143 0 146 0;
#X connect 144 0 13 0;
#X connect 145 0 243 0;
#X connect 146 0 140 0;
#X connect 146 1 140 1;
#X connect 146 2 145 1;
#X connect 146 3 147 1;
#X connect 147 0 153 0;
#X connect 148 0 150 1;
#X connect 149 0 147 0;
#X connect 149 1 142 0;
#X connect 150 0 261 0;
#X connect 151 0 155 0;
#X connect 152 0 153 1;
#X connect 153 0 154 0;
#X connect 154 0 156 0;
#X connect 155 0 150 0;
#X connect 155 1 260 0;
#X connect 156 0 151 0;
#X connect 156 1 151 1;
#X connect 156 2 148 0;
#X connect 157 0 159 0;
#X connect 158 0 164 0;
#X connect 159 0 161 1;
#X connect 160 0 158 0;
#X connect 161 0 158 0;
#X connect 162 0 165 0;
#X connect 163 0 14 0;
#X connect 164 0 244 0;
#X connect 165 0 159 0;
#X connect 165 1 159 1;
#X connect 165 2 164 1;
#X connect 165 3 166 1;
#X connect 166 0 172 0;
#X connect 167 0 169 1;
#X connect 168 0 166 0;
#X connect 168 1 161 0;
#X connect 169 0 262 0;
#X connect 170 0 174 0;
#X connect 171 0 172 1;
#X connect 172 0 173 0;
#X connect 173 0 175 0;
#X connect 174 0 169 0;
#X connect 174 1 263 0;
#X connect 175 0 170 0;
#X connect 175 1 170 1;
#X connect 175 2 167 0;
#X connect 176 0 178 0;
#X connect 177 0 183 0;
#X connect 178 0 180 1;
#X connect 179 0 177 0;
#X connect 180 0 177 0;
#X connect 181 0 184 0;
#X connect 182 0 16 0;
#X connect 183 0 245 0;
#X connect 184 0 178 0;
#X connect 184 1 178 1;
#X connect 184 2 183 1;
#X connect 184 3 185 1;
#X connect 185 0 191 0;
#X connect 186 0 188 1;
#X connect 187 0 185 0;
#X connect 187 1 180 0;
#X connect 188 0 271 0;
#X connect 189 0 193 0;
#X connect 190 0 191 1;
#X connect 191 0 192 0;
#X connect 192 0 194 0;
#X connect 193 0 188 0;
#X connect 193 1 270 0;
#X connect 194 0 189 0;
#X connect 194 1 189 1;
#X connect 194 2 186 0;
#X connect 195 0 197 0;
#X connect 196 0 202 0;
#X connect 197 0 199 1;
#X connect 198 0 196 0;
#X connect 199 0 196 0;
#X connect 200 0 203 0;
#X connect 201 0 15 0;
#X connect 202 0 246 0;
#X connect 203 0 197 0;
#X connect 203 1 197 1;
#X connect 203 2 202 1;
#X connect 203 3 204 1;
#X connect 204 0 210 0;
#X connect 205 0 207 1;
#X connect 206 0 204 0;
#X connect 206 1 199 0;
#X connect 207 0 272 0;
#X connect 208 0 212 0;
#X connect 209 0 210 1;
#X connect 210 0 211 0;
#X connect 211 0 213 0;
#X connect 212 0 207 0;
#X connect 212 1 273 0;
#X connect 213 0 208 0;
#X connect 213 1 208 1;
#X connect 213 2 205 0;
#X connect 214 0 215 0;
#X connect 215 0 426 0;
#X connect 217 0 218 0;
#X connect 218 0 428 0;
#X connect 220 0 221 0;
#X connect 221 0 432 0;
#X connect 222 0 223 0;
#X connect 223 0 434 0;
#X connect 224 0 225 0;
#X connect 225 0 436 0;
#X connect 226 0 227 0;
#X connect 227 0 430 0;
#X connect 232 0 233 0;
#X connect 233 0 438 0;
#X connect 235 0 84 0;
#X connect 236 0 92 0;
#X connect 237 0 91 1;
#X connect 240 0 278 0;
#X connect 241 0 279 0;
#X connect 242 0 280 0;
#X connect 243 0 281 0;
#X connect 244 0 282 0;
#X connect 245 0 283 0;
#X connect 246 0 284 0;
#X connect 247 0 103 0;
#X connect 248 0 111 0;
#X connect 249 0 110 1;
#X connect 254 0 129 1;
#X connect 255 0 130 0;
#X connect 256 0 122 0;
#X connect 257 0 141 0;
#X connect 258 0 149 0;
#X connect 259 0 148 1;
#X connect 264 0 167 1;
#X connect 265 0 168 0;
#X connect 266 0 160 0;
#X connect 267 0 179 0;
#X connect 268 0 187 0;
#X connect 269 0 186 1;
#X connect 274 0 205 1;
#X connect 275 0 206 0;
#X connect 276 0 198 0;
#X connect 277 0 0 0;
#X connect 277 0 47 0;
#X connect 278 0 0 0;
#X connect 278 0 87 0;
#X connect 279 0 0 0;
#X connect 279 0 106 0;
#X connect 280 0 0 0;
#X connect 280 0 125 0;
#X connect 281 0 0 0;
#X connect 281 0 144 0;
#X connect 282 0 0 0;
#X connect 282 0 163 0;
#X connect 283 0 0 0;
#X connect 283 0 182 0;
#X connect 284 0 0 0;
#X connect 284 0 201 0;
#X connect 287 0 294 0;
#X connect 289 0 310 0;
#X connect 291 0 295 0;
#X connect 292 0 296 0;
#X connect 293 0 297 0;
#X connect 294 0 288 0;
#X connect 295 0 288 0;
#X connect 296 0 288 0;
#X connect 297 0 288 0;
#X connect 298 0 302 0;
#X connect 299 0 303 0;
#X connect 300 0 304 0;
#X connect 301 0 305 0;
#X connect 302 0 288 0;
#X connect 303 0 288 0;
#X connect 304 0 288 0;
#X connect 305 0 288 0;
#X connect 307 0 308 0;
#X connect 307 0 309 0;
#X connect 308 0 31 0;
#X connect 308 0 32 0;
#X connect 308 0 33 0;
#X connect 308 0 34 0;
#X connect 308 0 27 0;
#X connect 308 0 28 0;
#X connect 308 0 29 0;
#X connect 308 0 30 0;
#X connect 309 0 72 0;
#X connect 309 0 214 0;
#X connect 309 0 217 0;
#X connect 309 0 226 0;
#X connect 309 0 220 0;
#X connect 309 0 222 0;
#X connect 309 0 224 0;
#X connect 309 0 232 0;
#X connect 310 0 286 0;
#X connect 311 0 323 0;
#X connect 313 0 321 0;
#X connect 314 0 315 0;
#X connect 315 0 318 0;
#X connect 316 0 317 0;
#X connect 317 0 315 0;
#X connect 317 1 315 1;
#X connect 318 0 313 1;
#X connect 319 0 31 0;
#X connect 321 0 322 0;
#X connect 321 1 320 0;
#X connect 322 0 31 0;
#X connect 323 0 313 0;
#X connect 323 1 312 0;
#X connect 323 2 319 0;
#X connect 325 0 335 0;
#X connect 326 0 333 0;
#X connect 327 0 328 0;
#X connect 328 0 331 0;
#X connect 329 0 330 0;
#X connect 330 0 328 0;
#X connect 330 1 328 1;
#X connect 331 0 326 1;
#X connect 332 0 32 0;
#X connect 333 0 334 0;
#X connect 333 1 403 0;
#X connect 334 0 32 0;
#X connect 335 0 326 0;
#X connect 335 1 402 0;
#X connect 335 2 332 0;
#X connect 336 0 346 0;
#X connect 337 0 344 0;
#X connect 338 0 339 0;
#X connect 339 0 342 0;
#X connect 340 0 341 0;
#X connect 341 0 339 0;
#X connect 341 1 339 1;
#X connect 342 0 337 1;
#X connect 343 0 30 0;
#X connect 344 0 345 0;
#X connect 344 1 413 0;
#X connect 345 0 30 0;
#X connect 346 0 337 0;
#X connect 346 1 414 0;
#X connect 346 2 343 0;
#X connect 347 0 357 0;
#X connect 348 0 355 0;
#X connect 349 0 350 0;
#X connect 350 0 353 0;
#X connect 351 0 352 0;
#X connect 352 0 350 0;
#X connect 352 1 350 1;
#X connect 353 0 348 1;
#X connect 354 0 29 0;
#X connect 355 0 356 0;
#X connect 355 1 412 0;
#X connect 356 0 29 0;
#X connect 357 0 348 0;
#X connect 357 1 415 0;
#X connect 357 2 354 0;
#X connect 358 0 368 0;
#X connect 359 0 366 0;
#X connect 360 0 361 0;
#X connect 361 0 364 0;
#X connect 362 0 363 0;
#X connect 363 0 361 0;
#X connect 363 1 361 1;
#X connect 364 0 359 1;
#X connect 365 0 28 0;
#X connect 366 0 367 0;
#X connect 366 1 411 0;
#X connect 367 0 28 0;
#X connect 368 0 359 0;
#X connect 368 1 410 0;
#X connect 368 2 365 0;
#X connect 369 0 379 0;
#X connect 370 0 377 0;
#X connect 371 0 372 0;
#X connect 372 0 375 0;
#X connect 373 0 374 0;
#X connect 374 0 372 0;
#X connect 374 1 372 1;
#X connect 375 0 370 1;
#X connect 376 0 33 0;
#X connect 377 0 378 0;
#X connect 377 1 405 0;
#X connect 378 0 33 0;
#X connect 379 0 370 0;
#X connect 379 1 404 0;
#X connect 379 2 376 0;
#X connect 380 0 390 0;
#X connect 381 0 388 0;
#X connect 382 0 383 0;
#X connect 383 0 386 0;
#X connect 384 0 385 0;
#X connect 385 0 383 0;
#X connect 385 1 383 1;
#X connect 386 0 381 1;
#X connect 387 0 27 0;
#X connect 388 0 389 0;
#X connect 388 1 409 0;
#X connect 389 0 27 0;
#X connect 390 0 381 0;
#X connect 390 1 408 0;
#X connect 390 2 387 0;
#X connect 391 0 401 0;
#X connect 392 0 399 0;
#X connect 393 0 394 0;
#X connect 394 0 397 0;
#X connect 395 0 396 0;
#X connect 396 0 394 0;
#X connect 396 1 394 1;
#X connect 397 0 392 1;
#X connect 398 0 34 0;
#X connect 399 0 400 0;
#X connect 399 1 407 0;
#X connect 400 0 34 0;
#X connect 401 0 392 0;
#X connect 401 1 406 0;
#X connect 401 2 398 0;
#X connect 417 0 418 0;
#X connect 418 0 423 0;
#X connect 419 0 420 0;
#X connect 420 0 72 0;
#X connect 420 1 214 0;
#X connect 420 2 217 0;
#X connect 420 3 226 0;
#X connect 420 4 220 0;
#X connect 420 5 222 0;
#X connect 420 6 224 0;
#X connect 420 7 232 0;
#X connect 423 0 311 0;
#X connect 423 1 325 0;
#X connect 423 2 369 0;
#X connect 423 3 391 0;
#X connect 423 4 380 0;
#X connect 423 5 358 0;
#X connect 423 6 347 0;
#X connect 423 7 336 0;
#X connect 424 0 425 0;
#X connect 425 0 38 0;
#X connect 426 0 427 0;
#X connect 427 0 216 0;
#X connect 428 0 429 0;
#X connect 429 0 219 0;
#X connect 430 0 431 0;
#X connect 431 0 228 0;
#X connect 432 0 433 0;
#X connect 433 0 229 0;
#X connect 434 0 435 0;
#X connect 435 0 230 0;
#X connect 436 0 437 0;
#X connect 437 0 231 0;
#X connect 438 0 439 0;
#X connect 439 0 234 0;
#X connect 440 0 444 0;
#X connect 444 0 419 0;
#X coords 0 -1 1 1 920 192 1 580 -86;
#X restore 382 -322 pd TheArrays;
#N canvas 508 185 1351 839 init 0;
#X obj 20 13 loadbang;
#X obj 20 42 samplerate~;
#X obj 20 71 s sr;
#X obj 86 16 bng 15 250 50 0 empty empty empty 17 7 0 10 #fcfcfc #000000
#000000;
#X obj 189 36 loadbang;
#X msg 57 220 \; 1-array0 resize \$1;
#X msg 66 260 \; 1-array1 resize \$1;
#X msg 81 301 \; 1-array2 resize \$1;
#X msg 89 341 \; 1-array3 resize \$1;
#X msg 209 220 \; 1-array4 resize \$1;
#X msg 218 260 \; 1-array5 resize \$1;
#X msg 233 301 \; 1-array6 resize \$1;
#X msg 243 341 \; 1-array7 resize \$1;
#X obj 57 190 r 1-lengthbuf;
#X obj 189 94 s 1-lengthbuf;
#X obj 140 -101 r INIT;
#X obj 512 -138 r CLEAR;
#X msg 471 -78 \; 1-array0 const 0;
#X msg 480 -38 \; 1-array1 const 0;
#X msg 495 3 \; 1-array2 const 0;
#X msg 503 43 \; 1-array3 const 0;
#X msg 623 -78 \; 1-array4 const 0;
#X msg 632 -38 \; 1-array5 const 0;
#X msg 647 3 \; 1-array6 const 0;
#X msg 657 43 \; 1-array7 const 0;
#X msg 189 65 48000;
#X connect 0 0 1 0;
#X connect 1 0 2 0;
#X connect 3 0 1 0;
#X connect 4 0 25 0;
#X connect 13 0 5 0;
#X connect 13 0 6 0;
#X connect 13 0 7 0;
#X connect 13 0 8 0;
#X connect 13 0 12 0;
#X connect 13 0 11 0;
#X connect 13 0 10 0;
#X connect 13 0 9 0;
#X connect 15 0 25 0;
#X connect 15 0 1 0;
#X connect 16 0 17 0;
#X connect 16 0 18 0;
#X connect 16 0 19 0;
#X connect 16 0 20 0;
#X connect 16 0 21 0;
#X connect 16 0 22 0;
#X connect 16 0 23 0;
#X connect 16 0 24 0;
#X connect 25 0 14 0;
#X restore 79 -549 pd init;
#X obj 79 -469 s INIT;
#X obj 79 -479 bng 50 250 50 0 empty empty init 7 24 0 14 #fcfcfc #000000
#000000;
#X obj 79 -386 s CLEAR;
#X obj 79 -416 bng 50 250 50 0 empty empty clear 5 24 0 14 #fcfcfc
#000000 #000000;
#X text 129 -469 re-send init values;
#X text 129 -409 clear everyone;
#X text 129 -389 & get started afresh;
#N canvas 461 218 1059 806 detect-attacks 0;
#X obj 244 14 inlet~;
#X obj 206 121 bonk~;
#X obj 141 21 loadbang;
#X obj 206 158 t b b b, f 24;
#X msg 288 188 0;
#X obj 319 273 spigot;
#X obj 420 143 loadbang;
#X msg 420 172 1;
#X obj 206 187 delay 300;
#X msg 206 216 1;
#X text 365 204 allow an attack to pass and then close during 300ms
before allowing the next possible attack to pass through;
#X msg 141 49 minvel 30;
#X obj 319 302 s att1;
#X connect 0 0 1 0;
#X connect 1 0 3 0;
#X connect 2 0 11 0;
#X connect 3 0 8 0;
#X connect 3 1 4 0;
#X connect 3 2 5 0;
#X connect 4 0 5 1;
#X connect 5 0 12 0;
#X connect 6 0 7 0;
#X connect 7 0 5 1;
#X connect 8 0 9 0;
#X connect 9 0 5 1;
#X connect 11 0 1 0;
#X coords 0 0 1 1 124 124 0;
#X restore 440 -420 pd detect-attacks;
#X obj 465 -444 delwrite~ buffer1 3000;
#N canvas 6 59 1908 1015 buffer-read-and-write 0;
#X obj 238 -1246 delread~ buffer1;
#X obj 238 -1198 *~;
#X obj 260 -1335 line~;
#X obj 225 -1444 delay 100;
#X obj 345 -1943 + 1;
#X msg 321 -1575 start;
#X obj 177 -1581 delay 100;
#X msg 177 -1556 stop;
#X msg 210 -1494 set \$1;
#X obj 96 -1121 tabwrite~;
#X text 377 -1915 adjust to number of available arrays;
#X obj 345 -1866 makefilename 1-array%d;
#X msg 320 -1792 \; \$1-stop bang;
#X obj 320 -1821 symbol;
#X obj 345 -1968 f -1;
#X text 399 -2011 reset;
#X obj 271 -2030 t b b b b, f 11;
#X text 444 -2042 2- stop reading this table;
#X text 444 -2022 3- write in this table;
#X text 444 -2002 4- re-start reading this table;
#X obj 270 -1741 symbol;
#X msg 270 -1712 \; \$1-start bang;
#X obj 270 -1964 delay 500;
#X text 465 -1984 after a while;
#X obj 237 -1609 r 1-lengthbuf;
#X obj 285 -1474 r 1-lengthbuf;
#X obj 384 -2039 r CLEAR;
#X obj 177 -1640 t b b b b, f 21;
#X obj 225 -1308 loadbang;
#X text 444 -2062 1- get name of table & forward to tabwrite~;
#X text 352 -1648 3- write in this table;
#X text 378 -1628 3a- start writing immediately;
#X text 378 -1608 3b- let the delayed buffer signal pass;
#X text 378 -1588 3c- block the delayed buffer signal \, after 100
ms (or the length of the buffer \, as defined by the user);
#X msg 225 -1415 0 1;
#X msg 273 -1384 1 1;
#X text 378 -1552 3d- stop writing;
#X msg 225 -1277 900;
#X msg 388 -1710 \; \$1-start__ bang;
#X msg 406 -1967 -2;
#X obj 510 -1810 s 1-get-current-array-number;
#X obj 20 -2040 r 1-set-current-array-number;
#X obj 271 -2059 r att1;
#X obj 345 -1914 % 8;
#X connect 0 0 1 0;
#X connect 1 0 9 0;
#X connect 2 0 1 1;
#X connect 3 0 34 0;
#X connect 4 0 14 1;
#X connect 4 0 43 0;
#X connect 5 0 9 0;
#X connect 6 0 7 0;
#X connect 7 0 9 0;
#X connect 8 0 9 0;
#X connect 11 0 13 1;
#X connect 11 0 20 1;
#X connect 11 0 8 0;
#X connect 13 0 12 0;
#X connect 14 0 4 0;
#X connect 16 0 22 0;
#X connect 16 1 27 0;
#X connect 16 2 13 0;
#X connect 16 3 14 0;
#X connect 20 0 21 0;
#X connect 20 0 38 0;
#X connect 22 0 20 0;
#X connect 24 0 6 1;
#X connect 25 0 3 1;
#X connect 26 0 39 0;
#X connect 27 0 6 0;
#X connect 27 1 3 0;
#X connect 27 2 35 0;
#X connect 27 3 5 0;
#X connect 28 0 37 0;
#X connect 34 0 2 0;
#X connect 35 0 2 0;
#X connect 37 0 0 0;
#X connect 39 0 14 0;
#X connect 41 0 14 0;
#X connect 42 0 16 0;
#X connect 43 0 11 0;
#X connect 43 0 40 0;
#X restore 80 -524 pd buffer-read-and-write;
#X obj 473 -81 env~;
#X floatatom 473 -52 5 0 0 0 - - -, f 5;
#X obj 380 -540 inlet~;
#X obj 382 101 outlet~;
#X obj 321 -270 bng 54 250 50 0 empty empty ATTACK 7 26 0 12 #ffea24
#ff0000 #000000;
#X obj 150 -270 r att1;
#X obj 440 -470 *~;
#X obj 480 -340 tgl 15 0 empty empty empty 17 7 0 10 #fcfcfc #000000
#000000 0 1;
#X text 497 -342 let audio in;
#X connect 1 0 13 0;
#X connect 1 0 16 0;
#X connect 4 0 3 0;
#X connect 6 0 5 0;
#X connect 13 0 14 0;
#X connect 15 0 19 0;
#X connect 18 0 17 0;
#X connect 19 0 11 0;
#X connect 19 0 10 0;
#X connect 20 0 19 1;
#X coords 0 -1 1 1 992 219 1 316 -343;
#X restore 811 -10 pd saccades1;
#N canvas 6 71 1908 965 spectres1 0;
#N canvas 6 62 1908 965 filterbank 0;
#X obj 100 20 inlet~;
#X obj 170 120 bp~ 63 10;
#X text 300 0 /! CHANGE QUALITY FACTORS;
#X obj 70 120 bp~ 31.5 10;
#X obj 250 120 bp~ 125 10;
#X obj 340 120 bp~ 250 10;
#X obj 429 120 bp~ 500 10;
#X obj 518 120 bp~ 1000 10;
#X obj 611 120 bp~ 2000 10;
#X obj 705 120 bp~ 4000 10;
#X obj 802 120 bp~ 8000 10;
#X obj 900 120 bp~ 16000 10;
#X obj 70 156 delwrite~ 1-buffer-b1;
#X obj 170 190 delwrite~ 1-buffer-b2;
#X obj 250 161 delwrite~ 1-buffer-b3;
#X obj 340 195 delwrite~ 1-buffer-b4;
#X obj 429 161 delwrite~ 1-buffer-b5;
#X obj 518 196 delwrite~ 1-buffer-b6;
#X obj 611 161 delwrite~ 1-buffer-b7;
#X obj 705 196 delwrite~ 1-buffer-b8;
#X obj 802 163 delwrite~ 1-buffer-b9;
#X obj 900 195 delwrite~ 1-buffer-b10;
#X obj 229 300 bng 15 250 50 0 empty empty empty 17 7 0 10 #fcfcfc
#000000 #000000;
#X obj 472 298 bng 15 250 50 0 empty empty empty 17 7 0 10 #fcfcfc
#000000 #000000;
#X obj 107 66 r 1-b1-fc;
#X obj 200 66 r 1-b2-fc;
#X obj 283 66 r 1-b3-fc;
#X obj 373 66 r 1-b4-fc;
#X obj 462 66 r 1-b5-fc;
#X obj 555 66 r 1-b6-fc;
#X obj 648 66 r 1-b7-fc;
#X obj 742 66 r 1-b8-fc;
#X obj 839 66 r 1-b9-fc;
#X obj 940 66 r 1-b10-fc;
#X obj 981 93 r 1-b10-Q;
#X obj 876 93 r 1-b9-Q;
#X obj 779 93 r 1-b8-Q;
#X obj 685 93 r 1-b7-Q;
#X obj 592 93 r 1-b6-Q;
#X obj 496 93 r 1-b5-Q;
#X obj 407 93 r 1-b4-Q;
#X obj 317 93 r 1-b3-Q;
#X obj 230 92 r 1-b2-Q;
#X obj 144 93 r 1-b1-Q;
#X msg 1004 495 \; 1-b1-gain 10 \; 1-b2-gain 10 \; 1-b3-gain 10 \;
1-b4-gain 10 \; 1-b5-gain 10 \; 1-b6-gain 10 \; 1-b7-gain 10 \; 1-b8-gain
10 \; 1-b9-gain 10 \; 1-b10-gain 10;
#X obj 472 337 bng 15 250 50 0 empty empty empty 17 7 0 10 #fcfcfc
#000000 #000000;
#X msg 791 325 \; 1-b1-gain 1 \; 1-b2-gain 1 \; 1-b3-gain 1 \; 1-b4-gain
1 \; 1-b5-gain 1 \; 1-b6-gain 1 \; 1-b7-gain 1 \; 1-b8-gain 1 \; 1-b9-gain
1 \; 1-b10-gain 1;
#X obj 472 318 bng 15 250 50 0 empty empty empty 17 7 0 10 #fcfcfc
#000000 #000000;
#X msg 965 767 \; 1-b1-gain 2 \; 1-b2-gain 2 \; 1-b3-gain 2 \; 1-b4-gain
2 \; 1-b5-gain 2 \; 1-b6-gain 2 \; 1-b7-gain 2 \; 1-b8-gain 2 \; 1-b9-gain
2 \; 1-b10-gain 2;
#X text 246 298 center on 8ve bands;
#X text 174 270 CENTER FREQUENCIES;
#X text 445 270 QUALITY FACTORS;
#X text 489 295 high;
#X text 489 335 low;
#X text 489 316 medium;
#X obj 592 270 loadbang;
#X msg 621 724 \; 1-b1-fc__ 31.5 \; 1-b2-fc__ 63 \; 1-b3-fc__ 125 \;
1-b4-fc__ 250 \; 1-b5-fc__ 500 \; 1-b6-fc__ 1000 \; 1-b7-fc__ 2000
\; 1-b8-fc__ 4000 \; 1-b9-fc__ 8000 \; 1-b10-fc__ 16000;
#X msg 863 766 \; 1-b1-Q__ 10 \; 1-b2-Q__ 10 \; 1-b3-Q__ 10 \; 1-b4-Q__
10 \; 1-b5-Q__ 10 \; 1-b6-Q__ 10 \; 1-b7-Q__ 10 \; 1-b8-Q__ 10 \; 1-b9-Q__
10 \; 1-b10-Q__ 10;
#X msg 689 324 \; 1-b1-Q__ 1.41 \; 1-b2-Q__ 1.41 \; 1-b3-Q__ 1.41 \;
1-b4-Q__ 1.41 \; 1-b5-Q__ 1.41 \; 1-b6-Q__ 1.41 \; 1-b7-Q__ 1.41 \;
1-b8-Q__ 1.41 \; 1-b9-Q__ 1.41 \; 1-b10-Q__ 1.41;
#X msg 902 494 \; 1-b1-Q__ 100 \; 1-b2-Q__ 100 \; 1-b3-Q__ 100 \; 1-b4-Q__
100 \; 1-b5-Q__ 100 \; 1-b6-Q__ 100 \; 1-b7-Q__ 100 \; 1-b8-Q__ 100
\; 1-b9-Q__ 100 \; 1-b10-Q__ 100;
#X obj -80 1019 s 1-b1-fc;
#X obj -72 1046 s 1-b1-Q;
#X obj -28 1069 s 1-b2-fc;
#X obj -25 1092 s 1-b2-Q;
#X obj 7 1045 s 1-b3-Q;
#X obj 3 1020 s 1-b3-fc;
#X obj 50 1069 s 1-b4-fc;
#X obj 50 1091 s 1-b4-Q;
#X obj 83 1020 s 1-b5-fc;
#X obj 78 1046 s 1-b5-Q;
#X obj 130 1069 s 1-b6-fc;
#X obj 125 1092 s 1-b6-Q;
#X obj 159 1021 s 1-b7-fc;
#X obj 149 1043 s 1-b7-Q;
#X obj 207 1068 s 1-b8-fc;
#X obj 195 1090 s 1-b8-Q;
#X obj 238 1021 s 1-b9-fc;
#X obj 218 1043 s 1-b9-Q;
#X obj 284 1067 s 1-b10-fc;
#X obj 265 1092 s 1-b10-Q;
#X obj -231 801 r 1-b1-fc__;
#X obj -225 824 r 1-b1-Q__;
#X obj -192 758 r 1-b2-fc__;
#X obj -179 780 r 1-b2-Q__;
#X obj -140 799 r 1-b3-fc__;
#X obj -137 824 r 1-b3-Q__;
#X obj -96 757 r 1-b4-fc__;
#X obj -92 779 r 1-b4-Q__;
#X obj -50 800 r 1-b5-fc__;
#X obj -51 823 r 1-b5-Q__;
#X obj -5 757 r 1-b6-fc__;
#X obj -7 779 r 1-b6-Q__;
#X obj 40 801 r 1-b7-fc__;
#X obj 32 823 r 1-b7-Q__;
#X obj 85 756 r 1-b8-fc__;
#X obj 79 781 r 1-b8-Q__;
#X obj 131 802 r 1-b9-fc__;
#X obj 116 824 r 1-b9-Q__;
#X obj 175 755 r 1-b10-fc__;
#X obj 163 782 r 1-b10-Q__;
#X floatatom 226 435 5 0 0 0 - - -, f 5;
#X floatatom 226 458 5 0 0 0 - - -, f 5;
#X floatatom 265 435 5 0 0 0 - - -, f 5;
#X floatatom 265 458 5 0 0 0 - - -, f 5;
#X floatatom 304 435 5 0 0 0 - - -, f 5;
#X floatatom 304 458 5 0 0 0 - - -, f 5;
#X floatatom 343 435 5 0 0 0 - - -, f 5;
#X floatatom 343 458 5 0 0 0 - - -, f 5;
#X floatatom 382 435 5 0 0 0 - - -, f 5;
#X floatatom 382 458 5 0 0 0 - - -, f 5;
#X floatatom 421 435 5 0 0 0 - - -, f 5;
#X floatatom 421 458 5 0 0 0 - - -, f 5;
#X floatatom 460 435 5 0 0 0 - - -, f 5;
#X floatatom 460 458 5 0 0 0 - - -, f 5;
#X floatatom 499 435 5 0 0 0 - - -, f 5;
#X floatatom 500 458 5 0 0 0 - - -, f 5;
#X floatatom 538 435 5 0 0 0 - - -, f 5;
#X floatatom 539 458 5 0 0 0 - - -, f 5;
#X floatatom 577 435 5 0 0 0 - - -, f 5;
#X floatatom 578 458 5 0 0 0 - - -, f 5;
#X text 174 435 fc (Hz);
#X text 212 457 Q;
#X text 235 413 b1;
#X text 276 413 b2;
#X text 313 413 b3;
#X text 354 413 b4;
#X text 393 413 b5;
#X text 431 413 b6;
#X text 470 413 b7;
#X text 507 413 b8;
#X text 546 413 b9;
#X text 584 413 b10;
#X text 182 248 ... presets ...;
#X text 170 384 ... or change manually ...;
#X obj 229 326 bng 15 250 50 0 empty empty empty 17 7 0 10 #fcfcfc
#000000 #000000;
#X text 246 324 treble (beta...);
#X msg 1181 463 \; 1-b1-fc__ 2000 \; 1-b2-fc__ 2500 \; 1-b3-fc__ 3000
\; 1-b4-fc__ 3500 \; 1-b5-fc__ 4000 \; 1-b6-fc__ 4500 \; 1-b7-fc__
5000 \; 1-b8-fc__ 6000 \; 1-b9-fc__ 7000 \; 1-b10-fc__ 8000;
#X obj 230 349 bng 15 250 50 0 empty empty empty 17 7 0 10 #fcfcfc
#000000 #000000;
#X text 247 347 bass (beta...);
#X msg 1175 676 \; 1-b1-fc__ 50 \; 1-b2-fc__ 100 \; 1-b3-fc__ 150 \;
1-b4-fc__ 200 \; 1-b5-fc__ 250 \; 1-b6-fc__ 300 \; 1-b7-fc__ 350 \;
1-b8-fc__ 400 \; 1-b9-fc__ 450 \; 1-b10-fc__ 500;
#X obj 3 261 loadbang;
#X connect 0 0 3 0;
#X connect 0 0 1 0;
#X connect 0 0 4 0;
#X connect 0 0 5 0;
#X connect 0 0 6 0;
#X connect 0 0 7 0;
#X connect 0 0 8 0;
#X connect 0 0 9 0;
#X connect 0 0 10 0;
#X connect 0 0 11 0;
#X connect 1 0 13 0;
#X connect 3 0 12 0;
#X connect 4 0 14 0;
#X connect 5 0 15 0;
#X connect 6 0 16 0;
#X connect 7 0 17 0;
#X connect 8 0 18 0;
#X connect 9 0 19 0;
#X connect 10 0 20 0;
#X connect 11 0 21 0;
#X connect 22 0 56 0;
#X connect 23 0 59 0;
#X connect 23 0 44 0;
#X connect 24 0 3 1;
#X connect 25 0 1 1;
#X connect 26 0 4 1;
#X connect 27 0 5 1;
#X connect 28 0 6 1;
#X connect 29 0 7 1;
#X connect 30 0 8 1;
#X connect 31 0 9 1;
#X connect 32 0 10 1;
#X connect 33 0 11 1;
#X connect 34 0 11 2;
#X connect 35 0 10 2;
#X connect 36 0 9 2;
#X connect 37 0 8 2;
#X connect 38 0 7 2;
#X connect 39 0 6 2;
#X connect 40 0 5 2;
#X connect 41 0 4 2;
#X connect 42 0 1 2;
#X connect 43 0 3 2;
#X connect 45 0 58 0;
#X connect 45 0 46 0;
#X connect 47 0 57 0;
#X connect 47 0 48 0;
#X connect 55 0 47 0;
#X connect 80 0 100 0;
#X connect 81 0 101 0;
#X connect 82 0 102 0;
#X connect 83 0 103 0;
#X connect 84 0 104 0;
#X connect 85 0 105 0;
#X connect 86 0 106 0;
#X connect 87 0 107 0;
#X connect 88 0 108 0;
#X connect 89 0 109 0;
#X connect 90 0 110 0;
#X connect 91 0 111 0;
#X connect 92 0 112 0;
#X connect 93 0 113 0;
#X connect 94 0 114 0;
#X connect 95 0 115 0;
#X connect 96 0 116 0;
#X connect 97 0 117 0;
#X connect 98 0 118 0;
#X connect 99 0 119 0;
#X connect 100 0 60 0;
#X connect 101 0 61 0;
#X connect 102 0 62 0;
#X connect 103 0 63 0;
#X connect 104 0 65 0;
#X connect 105 0 64 0;
#X connect 106 0 66 0;
#X connect 107 0 67 0;
#X connect 108 0 68 0;
#X connect 109 0 69 0;
#X connect 110 0 70 0;
#X connect 111 0 71 0;
#X connect 112 0 72 0;
#X connect 113 0 73 0;
#X connect 114 0 74 0;
#X connect 115 0 75 0;
#X connect 116 0 76 0;
#X connect 117 0 77 0;
#X connect 118 0 78 0;
#X connect 119 0 79 0;
#X connect 134 0 136 0;
#X connect 137 0 139 0;
#X connect 140 0 22 0;
#X coords 0 -1 1 1 456 248 1 168 236;
#X restore 116 -441 pd filterbank;
#N canvas 6 59 1908 990 delay-lines 0;
#X obj 380 500 outlet~;
#X obj 92 132 r 1-b1-del;
#X obj 92 161 sig~;
#X obj 221 161 sig~;
#X obj 221 132 r 1-b2-del;
#X obj 960 -10 vsl 15 128 0 1500 0 0 empty empty empty 0 -9 0 10 #fcfcfc
#000000 #000000 423 1;
#X obj 960 210 s 1-b1-del;
#X obj 1001 -10 vsl 15 128 0 1500 0 0 empty empty empty 0 -9 0 10 #fcfcfc
#000000 #000000 847 1;
#X obj 1001 185 s 1-b2-del;
#X obj 1041 -10 vsl 15 128 0 1500 0 0 empty empty empty 0 -9 0 10 #fcfcfc
#000000 #000000 1270 1;
#X obj 1082 -10 vsl 15 128 0 1500 0 0 empty empty empty 0 -9 0 10 #fcfcfc
#000000 #000000 1693 1;
#X obj 1041 162 s 1-b3-del;
#X obj 1082 211 s 1-b4-del;
#X obj 1123 -10 vsl 15 128 0 1500 0 0 empty empty empty 0 -9 0 10 #fcfcfc
#000000 #000000 2117 1;
#X obj 1165 -10 vsl 15 128 0 1500 0 0 empty empty empty 0 -9 0 10 #fcfcfc
#000000 #000000 2540 1;
#X obj 1206 -10 vsl 15 128 0 1500 0 0 empty empty empty 0 -9 0 10 #fcfcfc
#000000 #000000 2963 1;
#X obj 1246 -10 vsl 15 128 0 1500 0 0 empty empty empty 0 -9 0 10 #fcfcfc
#000000 #000000 3387 1;
#X obj 1123 185 s 1-b5-del;
#X obj 1246 185 s 1-b8-del;
#X obj 1206 211 s 1-b7-del;
#X obj 1165 162 s 1-b6-del;
#X obj 1287 -9 vsl 15 128 0 1500 0 0 empty empty empty 0 -9 0 10 #fcfcfc
#000000 #000000 3810 1;
#X obj 1328 -9 vsl 15 128 0 1500 0 0 empty empty empty 0 -9 0 10 #fcfcfc
#000000 #000000 4233 1;
#X obj 1287 163 s 1-b9-del;
#X obj 1328 212 s 1-b10-del;
#X obj 1371 33 bng 19 250 50 0 empty empty empty 17 7 0 10 #fcfcfc
#000000 #000000;
#X text 1392 33 preset 1;
#X obj 1371 -90 loadbang;
#X text 959 -31 b1;
#X text 999 -31 b2;
#X text 1039 -30 b3;
#X text 1079 -30 b4;
#X text 1121 -30 b5;
#X text 1160 -30 b6;
#X text 1200 -30 b7;
#X text 1243 -29 b8;
#X text 1283 -29 b9;
#X text 1327 -29 b10;
#X floatatom 960 132 5 0 0 0 - - -, f 5;
#X floatatom 1001 132 5 0 0 0 - - -, f 5;
#X floatatom 1041 132 5 0 0 0 - - -, f 5;
#X floatatom 1082 132 5 0 0 0 - - -, f 5;
#X floatatom 1123 132 5 0 0 0 - - -, f 5;
#X floatatom 1165 132 5 0 0 0 - - -, f 5;
#X floatatom 1206 132 5 0 0 0 - - -, f 5;
#X floatatom 1246 132 5 0 0 0 - - -, f 5;
#X floatatom 1287 133 5 0 0 0 - - -, f 5;
#X floatatom 1328 133 5 0 0 0 - - -, f 5;
#X text 1368 132 (ms);
#X obj 92 192 vd~ 1-buffer-b1;
#X obj 221 192 vd~ 1-buffer-b2;
#X msg 1683 81 \; 1-b1-del__ 50 \; 1-b2-del__ 100 \; 1-b3-del__ 150
\; 1-b4-del__ 200 \; 1-b5-del__ 250 \; 1-b6-del__ 300 \; 1-b7-del__
350 \; 1-b8-del__ 400 \; 1-b9-del__ 450 \; 1-b10-del__ 500;
#X obj 960 -132 r 1-b1-del__;
#X obj 1001 -157 r 1-b2-del__;
#X obj 1328 -130 r 1-b10-del__;
#X obj 1287 -179 r 1-b9-del__;
#X obj 1246 -156 r 1-b8-del__;
#X obj 1206 -131 r 1-b7-del__;
#X obj 1165 -180 r 1-b6-del__;
#X obj 1123 -157 r 1-b5-del__;
#X obj 1082 -131 r 1-b4-del__;
#X obj 1041 -180 r 1-b3-del__;
#X msg 1482 334 \; 1-b1-del__ 500 \; 1-b2-del__ 450 \; 1-b3-del__ 400
\; 1-b4-del__ 350 \; 1-b5-del__ 300 \; 1-b6-del__ 250 \; 1-b7-del__
200 \; 1-b8-del__ 150 \; 1-b9-del__ 100 \; 1-b10-del__ 50;
#X obj 1371 56 bng 19 250 50 0 empty empty empty 17 7 0 10 #fcfcfc
#000000 #000000;
#X text 1392 56 preset 2;
#X msg 1679 323 \; 1-b1-del__ 0 \; 1-b2-del__ 0 \; 1-b3-del__ 0 \;
1-b4-del__ 0 \; 1-b5-del__ 0 \; 1-b6-del__ 0 \; 1-b7-del__ 0 \; 1-b8-del__
0 \; 1-b9-del__ 0 \; 1-b10-del__ 0;
#X obj 1381 6 bng 19 250 50 0 empty empty empty 17 7 0 10 #fcfcfc #000000
#000000;
#X text 1402 6 reset;
#X obj 92 249 *~;
#X obj 110 224 r 1-b1-gain;
#X obj 221 253 *~;
#X obj 239 228 r 1-b2-gain;
#X obj 353 161 sig~;
#X obj 482 161 sig~;
#X obj 353 249 *~;
#X obj 482 253 *~;
#X obj 611 161 sig~;
#X obj 611 253 *~;
#X obj 93 314 sig~;
#X obj 222 314 sig~;
#X obj 93 402 *~;
#X obj 222 406 *~;
#X obj 354 314 sig~;
#X obj 483 314 sig~;
#X obj 354 402 *~;
#X obj 483 406 *~;
#X obj 612 314 sig~;
#X obj 612 406 *~;
#X obj 353 132 r 1-b3-del;
#X obj 353 192 vd~ 1-buffer-b3;
#X obj 371 224 r 1-b3-gain;
#X obj 482 132 r 1-b4-del;
#X obj 482 192 vd~ 1-buffer-b4;
#X obj 500 228 r 1-b4-gain;
#X obj 611 132 r 1-b5-del;
#X obj 611 192 vd~ 1-buffer-b5;
#X obj 629 228 r 1-b5-gain;
#X obj 93 285 r 1-b6-del;
#X obj 93 345 vd~ 1-buffer-b6;
#X obj 111 377 r 1-b6-gain;
#X obj 222 285 r 1-b7-del;
#X obj 222 345 vd~ 1-buffer-b7;
#X obj 240 381 r 1-b7-gain;
#X obj 354 285 r 1-b8-del;
#X obj 354 345 vd~ 1-buffer-b8;
#X obj 372 377 r 1-b8-gain;
#X obj 483 285 r 1-b9-del;
#X obj 483 345 vd~ 1-buffer-b9;
#X obj 501 381 r 1-b9-gain;
#X obj 612 285 r 1-b10-del;
#X obj 612 345 vd~ 1-buffer-b10;
#X obj 630 381 r 1-b10-gain;
#X msg 1120 400 \; 1-b1-del__ 100 \; 1-b2-del__ 200 \; 1-b3-del__ 300
\; 1-b4-del__ 400 \; 1-b5-del__ 500 \; 1-b6-del__ 600 \; 1-b7-del__
700 \; 1-b8-del__ 800 \; 1-b9-del__ 900 \; 1-b10-del__ 1000;
#X obj 1371 80 bng 19 250 50 0 empty empty empty 17 7 0 10 #fcfcfc
#000000 #000000;
#X text 1392 80 preset 3;
#X connect 1 0 2 0;
#X connect 2 0 49 0;
#X connect 3 0 50 0;
#X connect 4 0 3 0;
#X connect 5 0 6 0;
#X connect 5 0 38 0;
#X connect 7 0 8 0;
#X connect 7 0 39 0;
#X connect 9 0 11 0;
#X connect 9 0 40 0;
#X connect 10 0 12 0;
#X connect 10 0 41 0;
#X connect 13 0 17 0;
#X connect 13 0 42 0;
#X connect 14 0 20 0;
#X connect 14 0 43 0;
#X connect 15 0 19 0;
#X connect 15 0 44 0;
#X connect 16 0 18 0;
#X connect 16 0 45 0;
#X connect 21 0 23 0;
#X connect 21 0 46 0;
#X connect 22 0 24 0;
#X connect 22 0 47 0;
#X connect 25 0 51 0;
#X connect 27 0 25 0;
#X connect 49 0 68 0;
#X connect 50 0 70 0;
#X connect 52 0 5 0;
#X connect 53 0 7 0;
#X connect 54 0 22 0;
#X connect 55 0 21 0;
#X connect 56 0 16 0;
#X connect 57 0 15 0;
#X connect 58 0 14 0;
#X connect 59 0 13 0;
#X connect 60 0 10 0;
#X connect 61 0 9 0;
#X connect 63 0 62 0;
#X connect 66 0 65 0;
#X connect 68 0 0 0;
#X connect 69 0 68 1;
#X connect 70 0 0 0;
#X connect 71 0 70 1;
#X connect 72 0 89 0;
#X connect 73 0 92 0;
#X connect 74 0 0 0;
#X connect 75 0 0 0;
#X connect 76 0 95 0;
#X connect 77 0 0 0;
#X connect 78 0 98 0;
#X connect 79 0 101 0;
#X connect 80 0 0 0;
#X connect 81 0 0 0;
#X connect 82 0 104 0;
#X connect 83 0 107 0;
#X connect 84 0 0 0;
#X connect 85 0 0 0;
#X connect 86 0 110 0;
#X connect 87 0 0 0;
#X connect 88 0 72 0;
#X connect 89 0 74 0;
#X connect 90 0 74 1;
#X connect 91 0 73 0;
#X connect 92 0 75 0;
#X connect 93 0 75 1;
#X connect 94 0 76 0;
#X connect 95 0 77 0;
#X connect 96 0 77 1;
#X connect 97 0 78 0;
#X connect 98 0 80 0;
#X connect 99 0 80 1;
#X connect 100 0 79 0;
#X connect 101 0 81 0;
#X connect 102 0 81 1;
#X connect 103 0 82 0;
#X connect 104 0 84 0;
#X connect 105 0 84 1;
#X connect 106 0 83 0;
#X connect 107 0 85 0;
#X connect 108 0 85 1;
#X connect 109 0 86 0;
#X connect 110 0 87 0;
#X connect 111 0 87 1;
#X connect 113 0 112 0;
#X coords 0 -1 1 1 505 208 1 952 -54;
#X restore 92 -190 pd delay-lines;
#X obj 116 -497 inlet~;
#X obj 92 104 outlet~;
#X obj 170 50 env~;
#X floatatom 410 -462 5 0 0 0 - - -, f 5;
#X text 450 -462 output level;
#X connect 1 0 3 0;
#X connect 1 0 4 0;
#X connect 2 0 0 0;
#X connect 4 0 5 0;
#X coords 0 -1 1 1 513 487 1 87 -465;
#X restore 20 -20 pd spectres1;
#N canvas 6 59 1908 990 spectres2 0;
#N canvas 6 62 1908 965 filterbank 0;
#X obj 100 20 inlet~;
#X obj 170 120 bp~ 63 10;
#X text 300 0 /! CHANGE QUALITY FACTORS;
#X obj 70 120 bp~ 31.5 10;
#X obj 250 120 bp~ 125 10;
#X obj 340 120 bp~ 250 10;
#X obj 429 120 bp~ 500 10;
#X obj 518 120 bp~ 1000 10;
#X obj 611 120 bp~ 2000 10;
#X obj 705 120 bp~ 4000 10;
#X obj 802 120 bp~ 8000 10;
#X obj 900 120 bp~ 16000 10;
#X obj 229 300 bng 15 250 50 0 empty empty empty 17 7 0 10 #fcfcfc
#000000 #000000;
#X obj 472 298 bng 15 250 50 0 empty empty empty 17 7 0 10 #fcfcfc
#000000 #000000;
#X obj 472 337 bng 15 250 50 0 empty empty empty 17 7 0 10 #fcfcfc
#000000 #000000;
#X obj 472 318 bng 15 250 50 0 empty empty empty 17 7 0 10 #fcfcfc
#000000 #000000;
#X text 246 298 center on 8ve bands;
#X text 174 270 CENTER FREQUENCIES;
#X text 445 270 QUALITY FACTORS;
#X text 489 295 high;
#X text 489 335 low;
#X text 489 316 medium;
#X obj 592 270 loadbang;
#X floatatom 226 435 5 0 0 0 - - -, f 5;
#X floatatom 226 458 5 0 0 0 - - -, f 5;
#X floatatom 265 435 5 0 0 0 - - -, f 5;
#X floatatom 265 458 5 0 0 0 - - -, f 5;
#X floatatom 304 435 5 0 0 0 - - -, f 5;
#X floatatom 304 458 5 0 0 0 - - -, f 5;
#X floatatom 343 435 5 0 0 0 - - -, f 5;
#X floatatom 343 458 5 0 0 0 - - -, f 5;
#X floatatom 382 435 5 0 0 0 - - -, f 5;
#X floatatom 382 458 5 0 0 0 - - -, f 5;
#X floatatom 421 435 5 0 0 0 - - -, f 5;
#X floatatom 421 458 5 0 0 0 - - -, f 5;
#X floatatom 460 435 5 0 0 0 - - -, f 5;
#X floatatom 460 458 5 0 0 0 - - -, f 5;
#X floatatom 499 435 5 0 0 0 - - -, f 5;
#X floatatom 500 458 5 0 0 0 - - -, f 5;
#X floatatom 538 435 5 0 0 0 - - -, f 5;
#X floatatom 539 458 5 0 0 0 - - -, f 5;
#X floatatom 577 435 5 0 0 0 - - -, f 5;
#X floatatom 578 458 5 0 0 0 - - -, f 5;
#X text 174 435 fc (Hz);
#X text 212 457 Q;
#X text 235 413 b1;
#X text 276 413 b2;
#X text 313 413 b3;
#X text 354 413 b4;
#X text 393 413 b5;
#X text 431 413 b6;
#X text 470 413 b7;
#X text 507 413 b8;
#X text 546 413 b9;
#X text 584 413 b10;
#X text 182 248 ... presets ...;
#X text 170 384 ... or change manually ...;
#X obj 229 326 bng 15 250 50 0 empty empty empty 17 7 0 10 #fcfcfc
#000000 #000000;
#X text 246 324 treble (beta...);
#X obj 230 349 bng 15 250 50 0 empty empty empty 17 7 0 10 #fcfcfc
#000000 #000000;
#X text 247 347 bass (beta...);
#X obj 70 156 delwrite~ 2-buffer-b1;
#X obj 250 161 delwrite~ 2-buffer-b3;
#X obj 170 190 delwrite~ 2-buffer-b2;
#X obj 429 161 delwrite~ 2-buffer-b5;
#X obj 340 195 delwrite~ 2-buffer-b4;
#X obj 518 196 delwrite~ 2-buffer-b6;
#X obj 611 161 delwrite~ 2-buffer-b7;
#X obj 705 196 delwrite~ 2-buffer-b8;
#X obj 802 163 delwrite~ 2-buffer-b9;
#X obj 900 195 delwrite~ 2-buffer-b10;
#X msg 1181 463 \; 2-b1-fc__ 2000 \; 2-b2-fc__ 2500 \; 2-b3-fc__ 3000
\; 2-b4-fc__ 3500 \; 2-b5-fc__ 4000 \; 2-b6-fc__ 4500 \; 2-b7-fc__
5000 \; 2-b8-fc__ 6000 \; 2-b9-fc__ 7000 \; 2-b10-fc__ 8000;
#X msg 1175 676 \; 2-b1-fc__ 50 \; 2-b2-fc__ 100 \; 2-b3-fc__ 150 \;
2-b4-fc__ 200 \; 2-b5-fc__ 250 \; 2-b6-fc__ 300 \; 2-b7-fc__ 350 \;
2-b8-fc__ 400 \; 2-b9-fc__ 450 \; 2-b10-fc__ 500;
#X msg 1004 495 \; 2-b1-gain 10 \; 2-b2-gain 10 \; 2-b3-gain 10 \;
2-b4-gain 10 \; 2-b5-gain 10 \; 2-b6-gain 10 \; 2-b7-gain 10 \; 2-b8-gain
10 \; 2-b9-gain 10 \; 2-b10-gain 10;
#X msg 902 494 \; 2-b1-Q__ 100 \; 2-b2-Q__ 100 \; 2-b3-Q__ 100 \; 2-b4-Q__
100 \; 2-b5-Q__ 100 \; 2-b6-Q__ 100 \; 2-b7-Q__ 100 \; 2-b8-Q__ 100
\; 2-b9-Q__ 100 \; 2-b10-Q__ 100;
#X msg 689 324 \; 2-b1-Q__ 1.41 \; 2-b2-Q__ 1.41 \; 2-b3-Q__ 1.41 \;
2-b4-Q__ 1.41 \; 2-b5-Q__ 1.41 \; 2-b6-Q__ 1.41 \; 2-b7-Q__ 1.41 \;
2-b8-Q__ 1.41 \; 2-b9-Q__ 1.41 \; 2-b10-Q__ 1.41;
#X msg 791 325 \; 2-b1-gain 1 \; 2-b2-gain 1 \; 2-b3-gain 1 \; 2-b4-gain
1 \; 2-b5-gain 1 \; 2-b6-gain 1 \; 2-b7-gain 1 \; 2-b8-gain 1 \; 2-b9-gain
1 \; 2-b10-gain 1;
#X msg 621 724 \; 2-b1-fc__ 31.5 \; 2-b2-fc__ 63 \; 2-b3-fc__ 125 \;
2-b4-fc__ 250 \; 2-b5-fc__ 500 \; 2-b6-fc__ 1000 \; 2-b7-fc__ 2000
\; 2-b8-fc__ 4000 \; 2-b9-fc__ 8000 \; 2-b10-fc__ 16000;
#X msg 863 766 \; 2-b1-Q__ 10 \; 2-b2-Q__ 10 \; 2-b3-Q__ 10 \; 2-b4-Q__
10 \; 2-b5-Q__ 10 \; 2-b6-Q__ 10 \; 2-b7-Q__ 10 \; 2-b8-Q__ 10 \; 2-b9-Q__
10 \; 2-b10-Q__ 10;
#X msg 965 767 \; 2-b1-gain 2 \; 2-b2-gain 2 \; 2-b3-gain 2 \; 2-b4-gain
2 \; 2-b5-gain 2 \; 2-b6-gain 2 \; 2-b7-gain 2 \; 2-b8-gain 2 \; 2-b9-gain
2 \; 2-b10-gain 2;
#X obj -192 758 r 2-b2-fc__;
#X obj -231 801 r 2-b1-fc__;
#X obj -225 824 r 2-b1-Q__;
#X obj -179 780 r 2-b2-Q__;
#X obj -96 757 r 2-b4-fc__;
#X obj -92 779 r 2-b4-Q__;
#X obj -140 799 r 2-b3-fc__;
#X obj -137 824 r 2-b3-Q__;
#X obj -5 757 r 2-b6-fc__;
#X obj -7 779 r 2-b6-Q__;
#X obj -50 800 r 2-b5-fc__;
#X obj -51 823 r 2-b5-Q__;
#X obj 85 756 r 2-b8-fc__;
#X obj 79 781 r 2-b8-Q__;
#X obj 40 801 r 2-b7-fc__;
#X obj 32 823 r 2-b7-Q__;
#X obj 116 824 r 2-b9-Q__;
#X obj 131 802 r 2-b9-fc__;
#X obj 163 782 r 2-b10-Q__;
#X obj 175 755 r 2-b10-fc__;
#X obj -80 1019 s 2-b1-fc;
#X obj -72 1046 s 2-b1-Q;
#X obj -28 1069 s 2-b2-fc;
#X obj -25 1092 s 2-b2-Q;
#X obj 7 1045 s 2-b3-Q;
#X obj 3 1020 s 2-b3-fc;
#X obj 83 1020 s 2-b5-fc;
#X obj 78 1046 s 2-b5-Q;
#X obj 50 1069 s 2-b4-fc;
#X obj 50 1091 s 2-b4-Q;
#X obj 159 1021 s 2-b7-fc;
#X obj 149 1043 s 2-b7-Q;
#X obj 130 1069 s 2-b6-fc;
#X obj 125 1092 s 2-b6-Q;
#X obj 238 1021 s 2-b9-fc;
#X obj 218 1043 s 2-b9-Q;
#X obj 207 1068 s 2-b8-fc;
#X obj 195 1090 s 2-b8-Q;
#X obj 284 1067 s 2-b10-fc;
#X obj 265 1092 s 2-b10-Q;
#X obj 107 66 r 2-b1-fc;
#X obj 144 93 r 2-b1-Q;
#X obj 200 66 r 2-b2-fc;
#X obj 230 92 r 2-b2-Q;
#X obj 283 66 r 2-b3-fc;
#X obj 317 93 r 2-b3-Q;
#X obj 373 66 r 2-b4-fc;
#X obj 407 93 r 2-b4-Q;
#X obj 462 66 r 2-b5-fc;
#X obj 496 93 r 2-b5-Q;
#X obj 555 66 r 2-b6-fc;
#X obj 592 93 r 2-b6-Q;
#X obj 648 66 r 2-b7-fc;
#X obj 685 93 r 2-b7-Q;
#X obj 742 66 r 2-b8-fc;
#X obj 779 93 r 2-b8-Q;
#X obj 839 66 r 2-b9-fc;
#X obj 876 93 r 2-b9-Q;
#X obj 940 66 r 2-b10-fc;
#X obj 981 93 r 2-b10-Q;
#X obj 38 237 loadbang;
#X connect 0 0 3 0;
#X connect 0 0 1 0;
#X connect 0 0 4 0;
#X connect 0 0 5 0;
#X connect 0 0 6 0;
#X connect 0 0 7 0;
#X connect 0 0 8 0;
#X connect 0 0 9 0;
#X connect 0 0 10 0;
#X connect 0 0 11 0;
#X connect 1 0 63 0;
#X connect 3 0 61 0;
#X connect 4 0 62 0;
#X connect 5 0 65 0;
#X connect 6 0 64 0;
#X connect 7 0 66 0;
#X connect 8 0 67 0;
#X connect 9 0 68 0;
#X connect 10 0 69 0;
#X connect 11 0 70 0;
#X connect 12 0 77 0;
#X connect 13 0 74 0;
#X connect 13 0 73 0;
#X connect 14 0 75 0;
#X connect 14 0 76 0;
#X connect 15 0 78 0;
#X connect 15 0 79 0;
#X connect 22 0 15 0;
#X connect 23 0 100 0;
#X connect 24 0 101 0;
#X connect 25 0 102 0;
#X connect 26 0 103 0;
#X connect 27 0 105 0;
#X connect 28 0 104 0;
#X connect 29 0 108 0;
#X connect 30 0 109 0;
#X connect 31 0 106 0;
#X connect 32 0 107 0;
#X connect 33 0 112 0;
#X connect 34 0 113 0;
#X connect 35 0 110 0;
#X connect 36 0 111 0;
#X connect 37 0 116 0;
#X connect 38 0 117 0;
#X connect 39 0 114 0;
#X connect 40 0 115 0;
#X connect 41 0 118 0;
#X connect 42 0 119 0;
#X connect 57 0 71 0;
#X connect 59 0 72 0;
#X connect 80 0 25 0;
#X connect 81 0 23 0;
#X connect 82 0 24 0;
#X connect 83 0 26 0;
#X connect 84 0 29 0;
#X connect 85 0 30 0;
#X connect 86 0 27 0;
#X connect 87 0 28 0;
#X connect 88 0 33 0;
#X connect 89 0 34 0;
#X connect 90 0 31 0;
#X connect 91 0 32 0;
#X connect 92 0 37 0;
#X connect 93 0 38 0;
#X connect 94 0 35 0;
#X connect 95 0 36 0;
#X connect 96 0 40 0;
#X connect 97 0 39 0;
#X connect 98 0 42 0;
#X connect 99 0 41 0;
#X connect 120 0 3 1;
#X connect 121 0 3 2;
#X connect 122 0 1 1;
#X connect 123 0 1 2;
#X connect 124 0 4 1;
#X connect 125 0 4 2;
#X connect 126 0 5 1;
#X connect 127 0 5 2;
#X connect 128 0 6 1;
#X connect 129 0 6 2;
#X connect 130 0 7 1;
#X connect 131 0 7 2;
#X connect 132 0 8 1;
#X connect 133 0 8 2;
#X connect 134 0 9 1;
#X connect 135 0 9 2;
#X connect 136 0 10 1;
#X connect 137 0 10 2;
#X connect 138 0 11 1;
#X connect 139 0 11 2;
#X connect 140 0 12 0;
#X coords 0 -1 1 1 448 244 1 170 236;
#X restore 116 -402 pd filterbank;
#N canvas 6 62 1908 965 delay-lines 0;
#X obj 380 500 outlet~;
#X obj 92 161 sig~;
#X obj 221 161 sig~;
#X obj 960 -10 vsl 15 128 0 1500 0 0 empty empty empty 0 -9 0 10 #fcfcfc
#000000 #000000 423 1;
#X obj 1001 -10 vsl 15 128 0 1500 0 0 empty empty empty 0 -9 0 10 #fcfcfc
#000000 #000000 847 1;
#X obj 1041 -10 vsl 15 128 0 1500 0 0 empty empty empty 0 -9 0 10 #fcfcfc
#000000 #000000 1270 1;
#X obj 1082 -10 vsl 15 128 0 1500 0 0 empty empty empty 0 -9 0 10 #fcfcfc
#000000 #000000 1693 1;
#X obj 1123 -10 vsl 15 128 0 1500 0 0 empty empty empty 0 -9 0 10 #fcfcfc
#000000 #000000 2117 1;
#X obj 1165 -10 vsl 15 128 0 1500 0 0 empty empty empty 0 -9 0 10 #fcfcfc
#000000 #000000 2540 1;
#X obj 1206 -10 vsl 15 128 0 1500 0 0 empty empty empty 0 -9 0 10 #fcfcfc
#000000 #000000 2963 1;
#X obj 1246 -10 vsl 15 128 0 1500 0 0 empty empty empty 0 -9 0 10 #fcfcfc
#000000 #000000 3387 1;
#X obj 1287 -9 vsl 15 128 0 1500 0 0 empty empty empty 0 -9 0 10 #fcfcfc
#000000 #000000 3810 1;
#X obj 1328 -9 vsl 15 128 0 1500 0 0 empty empty empty 0 -9 0 10 #fcfcfc
#000000 #000000 4233 1;
#X obj 1371 33 bng 19 250 50 0 empty empty empty 17 7 0 10 #fcfcfc
#000000 #000000;
#X text 1392 33 preset 1;
#X obj 1371 -90 loadbang;
#X text 959 -31 b1;
#X text 999 -31 b2;
#X text 1039 -30 b3;
#X text 1079 -30 b4;
#X text 1121 -30 b5;
#X text 1160 -30 b6;
#X text 1200 -30 b7;
#X text 1243 -29 b8;
#X text 1283 -29 b9;
#X text 1327 -29 b10;
#X floatatom 960 132 5 0 0 0 - - -, f 5;
#X floatatom 1001 132 5 0 0 0 - - -, f 5;
#X floatatom 1041 132 5 0 0 0 - - -, f 5;
#X floatatom 1082 132 5 0 0 0 - - -, f 5;
#X floatatom 1123 132 5 0 0 0 - - -, f 5;
#X floatatom 1165 132 5 0 0 0 - - -, f 5;
#X floatatom 1206 132 5 0 0 0 - - -, f 5;
#X floatatom 1246 132 5 0 0 0 - - -, f 5;
#X floatatom 1287 133 5 0 0 0 - - -, f 5;
#X floatatom 1328 133 5 0 0 0 - - -, f 5;
#X text 1368 132 (ms);
#X obj 1371 56 bng 19 250 50 0 empty empty empty 17 7 0 10 #fcfcfc
#000000 #000000;
#X text 1392 56 preset 2;
#X obj 1381 6 bng 19 250 50 0 empty empty empty 17 7 0 10 #fcfcfc #000000
#000000;
#X text 1402 6 reset;
#X obj 92 249 *~;
#X obj 221 253 *~;
#X obj 353 161 sig~;
#X obj 482 161 sig~;
#X obj 353 249 *~;
#X obj 482 253 *~;
#X obj 611 161 sig~;
#X obj 611 253 *~;
#X obj 93 314 sig~;
#X obj 222 314 sig~;
#X obj 93 402 *~;
#X obj 222 406 *~;
#X obj 354 314 sig~;
#X obj 483 314 sig~;
#X obj 354 402 *~;
#X obj 483 406 *~;
#X obj 612 314 sig~;
#X obj 612 406 *~;
#X obj 1371 80 bng 19 250 50 0 empty empty empty 17 7 0 10 #fcfcfc
#000000 #000000;
#X text 1392 80 preset 3;
#X obj 960 210 s 2-b1-del;
#X obj 1001 185 s 2-b2-del;
#X obj 1041 162 s 2-b3-del;
#X obj 1082 211 s 2-b4-del;
#X obj 1123 185 s 2-b5-del;
#X obj 1165 162 s 2-b6-del;
#X obj 1206 211 s 2-b7-del;
#X obj 1246 185 s 2-b8-del;
#X obj 1287 163 s 2-b9-del;
#X obj 1328 212 s 2-b10-del;
#X msg 1120 400 \; 2-b1-del__ 100 \; 2-b2-del__ 200 \; 2-b3-del__ 300
\; 2-b4-del__ 400 \; 2-b5-del__ 500 \; 2-b6-del__ 600 \; 2-b7-del__
700 \; 2-b8-del__ 800 \; 2-b9-del__ 900 \; 2-b10-del__ 1000;
#X msg 1482 334 \; 2-b1-del__ 500 \; 2-b2-del__ 450 \; 2-b3-del__ 400
\; 2-b4-del__ 350 \; 2-b5-del__ 300 \; 2-b6-del__ 250 \; 2-b7-del__
200 \; 2-b8-del__ 150 \; 2-b9-del__ 100 \; 2-b10-del__ 50;
#X msg 1679 323 \; 2-b1-del__ 0 \; 2-b2-del__ 0 \; 2-b3-del__ 0 \;
2-b4-del__ 0 \; 2-b5-del__ 0 \; 2-b6-del__ 0 \; 2-b7-del__ 0 \; 2-b8-del__
0 \; 2-b9-del__ 0 \; 2-b10-del__ 0;
#X msg 1683 81 \; 2-b1-del__ 50 \; 2-b2-del__ 100 \; 2-b3-del__ 150
\; 2-b4-del__ 200 \; 2-b5-del__ 250 \; 2-b6-del__ 300 \; 2-b7-del__
350 \; 2-b8-del__ 400 \; 2-b9-del__ 450 \; 2-b10-del__ 500;
#X obj 1041 -180 r 2-b3-del__;
#X obj 1001 -157 r 2-b2-del__;
#X obj 960 -132 r 2-b1-del__;
#X obj 1082 -131 r 2-b4-del__;
#X obj 1123 -157 r 2-b5-del__;
#X obj 1165 -180 r 2-b6-del__;
#X obj 1287 -179 r 2-b9-del__;
#X obj 1246 -156 r 2-b8-del__;
#X obj 1206 -131 r 2-b7-del__;
#X obj 1328 -130 r 2-b10-del__;
#X obj 92 132 r 2-b1-del;
#X obj 92 192 vd~ 2-buffer-b1;
#X obj 110 224 r 2-b1-gain;
#X obj 93 285 r 2-b6-del;
#X obj 93 345 vd~ 2-buffer-b6;
#X obj 111 377 r 2-b6-gain;
#X obj 240 381 r 2-b7-gain;
#X obj 222 345 vd~ 2-buffer-b7;
#X obj 222 285 r 2-b7-del;
#X obj 239 228 r 2-b2-gain;
#X obj 221 192 vd~ 2-buffer-b2;
#X obj 221 132 r 2-b2-del;
#X obj 353 132 r 2-b3-del;
#X obj 353 192 vd~ 2-buffer-b3;
#X obj 371 224 r 2-b3-gain;
#X obj 354 285 r 2-b8-del;
#X obj 354 345 vd~ 2-buffer-b8;
#X obj 372 377 r 2-b8-gain;
#X obj 501 381 r 2-b9-gain;
#X obj 630 381 r 2-b10-gain;
#X obj 612 345 vd~ 2-buffer-b10;
#X obj 483 345 vd~ 2-buffer-b9;
#X obj 483 285 r 2-b9-del;
#X obj 612 285 r 2-b10-del;
#X obj 500 228 r 2-b4-gain;
#X obj 629 228 r 2-b5-gain;
#X obj 611 192 vd~ 2-buffer-b5;
#X obj 482 192 vd~ 2-buffer-b4;
#X obj 482 132 r 2-b4-del;
#X obj 611 132 r 2-b5-del;
#X connect 1 0 86 0;
#X connect 2 0 95 0;
#X connect 3 0 26 0;
#X connect 3 0 61 0;
#X connect 4 0 27 0;
#X connect 4 0 62 0;
#X connect 5 0 28 0;
#X connect 5 0 63 0;
#X connect 6 0 29 0;
#X connect 6 0 64 0;
#X connect 7 0 30 0;
#X connect 7 0 65 0;
#X connect 8 0 31 0;
#X connect 8 0 66 0;
#X connect 9 0 32 0;
#X connect 9 0 67 0;
#X connect 10 0 33 0;
#X connect 10 0 68 0;
#X connect 11 0 34 0;
#X connect 11 0 69 0;
#X connect 12 0 35 0;
#X connect 12 0 70 0;
#X connect 13 0 74 0;
#X connect 15 0 13 0;
#X connect 37 0 72 0;
#X connect 39 0 73 0;
#X connect 41 0 0 0;
#X connect 42 0 0 0;
#X connect 43 0 98 0;
#X connect 44 0 112 0;
#X connect 45 0 0 0;
#X connect 46 0 0 0;
#X connect 47 0 111 0;
#X connect 48 0 0 0;
#X connect 49 0 89 0;
#X connect 50 0 92 0;
#X connect 51 0 0 0;
#X connect 52 0 0 0;
#X connect 53 0 101 0;
#X connect 54 0 106 0;
#X connect 55 0 0 0;
#X connect 56 0 0 0;
#X connect 57 0 105 0;
#X connect 58 0 0 0;
#X connect 59 0 71 0;
#X connect 75 0 5 0;
#X connect 76 0 4 0;
#X connect 77 0 3 0;
#X connect 78 0 6 0;
#X connect 79 0 7 0;
#X connect 80 0 8 0;
#X connect 81 0 11 0;
#X connect 82 0 10 0;
#X connect 83 0 9 0;
#X connect 84 0 12 0;
#X connect 85 0 1 0;
#X connect 86 0 41 0;
#X connect 87 0 41 1;
#X connect 88 0 49 0;
#X connect 89 0 51 0;
#X connect 90 0 51 1;
#X connect 91 0 52 1;
#X connect 92 0 52 0;
#X connect 93 0 50 0;
#X connect 94 0 42 1;
#X connect 95 0 42 0;
#X connect 96 0 2 0;
#X connect 97 0 43 0;
#X connect 98 0 45 0;
#X connect 99 0 45 1;
#X connect 100 0 53 0;
#X connect 101 0 55 0;
#X connect 102 0 55 1;
#X connect 103 0 56 1;
#X connect 104 0 58 1;
#X connect 105 0 58 0;
#X connect 106 0 56 0;
#X connect 107 0 54 0;
#X connect 108 0 57 0;
#X connect 109 0 46 1;
#X connect 110 0 48 1;
#X connect 111 0 48 0;
#X connect 112 0 46 0;
#X connect 113 0 44 0;
#X connect 114 0 47 0;
#X coords 0 -1 1 1 498 204 1 957 -50;
#X restore 92 -156 pd delay-lines;
#X obj 116 -497 inlet~;
#X obj 92 104 outlet~;
#X obj 172 85 env~;
#X floatatom 420 -424 5 0 0 0 - - -, f 5;
#X text 460 -424 output level;
#X connect 1 0 3 0;
#X connect 1 0 4 0;
#X connect 2 0 0 0;
#X connect 4 0 5 0;
#X coords 0 -1 1 1 499 479 1 91 -428;
#X restore 20 503 pd spectres2;
#N canvas 6 59 1908 990 saccades2 0;
#X obj 69 -489 cnv 15 212 130 empty empty empty 20 12 0 14 #e0e0e0
#404040 0;
#N canvas 6 59 1908 965 TheArrays 0;
#X obj 700 940 outlet~;
#X obj 260 -560 table 2-array0;
#X obj 260 -511 table 2-array2;
#X obj 260 -487 table 2-array3;
#X obj 377 -560 table 2-array4;
#X obj 377 -536 table 2-array5;
#X obj 377 -511 table 2-array6;
#X obj 377 -487 table 2-array7;
#X floatatom 825 54 5 0 0 0 - - -, f 5;
#X obj 260 -536 table 2-array1;
#X floatatom 739 54 5 0 0 0 - - -, f 5;
#X floatatom 909 54 5 0 0 0 - - -, f 5;
#X floatatom 992 54 5 0 0 0 - - -, f 5;
#X floatatom 1076 54 5 0 0 0 - - -, f 5;
#X floatatom 1160 54 5 0 0 0 - - -, f 5;
#X floatatom 1329 54 5 0 0 0 - - -, f 5;
#X floatatom 1244 54 5 0 0 0 - - -, f 5;
#X text 827 -28 1;
#X text 911 -28 2;
#X text 992 -28 3;
#X text 1078 -28 4;
#X text 1162 -28 5;
#X text 1246 -28 6;
#X text 1330 -28 7;
#X text 741 -28 0;
#X text 698 -29 array;
#X text 688 54 vumeter;
#X obj 1076 34 tgl 15 0 empty empty empty 17 7 0 10 #fcfcfc #000000
#000000 1 1;
#X obj 1160 34 tgl 15 0 empty empty empty 17 7 0 10 #fcfcfc #000000
#000000 1 1;
#X obj 1244 34 tgl 15 0 empty empty empty 17 7 0 10 #fcfcfc #000000
#000000 1 1;
#X obj 1328 34 tgl 15 0 empty empty empty 17 7 0 10 #fcfcfc #000000
#000000 1 1;
#X obj 740 34 tgl 15 0 empty empty empty 17 7 0 10 #fcfcfc #000000
#000000 1 1;
#X obj 825 34 tgl 15 0 empty empty empty 17 7 0 10 #fcfcfc #000000
#000000 1 1;
#X obj 909 34 tgl 15 0 empty empty empty 17 7 0 10 #fcfcfc #000000
#000000 1 1;
#X obj 992 34 tgl 15 0 empty empty empty 17 7 0 10 #fcfcfc #000000
#000000 1 1;
#X obj 783 -46 tgl 15 0 empty empty empty 17 7 0 10 #fcfcfc #000000
#000000 0 1;
#X text 800 -50 start/stop all;
#X obj -51 486 r 2-array0-silenceMult;
#X obj 740 190 s 2-array0-silenceMult;
#X obj -116 572 s 2-array0-stop;
#X obj -136 627 s 2-array0-start;
#X obj -21 363 r sr;
#X obj -39 677 phasor~;
#X obj -21 390 / 100, f 6;
#X msg -140 291 0;
#X obj -39 419 f;
#X obj 18 336 r 2-lengthbuf;
#X obj -39 767 env~;
#X obj -39 706 *~;
#X obj -140 262 r 2-array0-stop;
#X obj -105 291 r 2-array0-start;
#X obj -39 737 tabread~ 2-array0;
#X obj 553 -172 r 2-array0-start__;
#X msg 553 -143 1;
#X msg 552 -207 1;
#X obj 552 -236 r 2-array1-start__;
#X msg 552 -272 1;
#X msg 551 -336 1;
#X msg 390 -138 1;
#X msg 389 -202 1;
#X msg 389 -267 1;
#X msg 388 -331 1;
#X obj 552 -301 r 2-array2-start__;
#X obj 551 -365 r 2-array3-start__;
#X obj 390 -167 r 2-array4-start__;
#X obj 389 -231 r 2-array5-start__;
#X obj 389 -296 r 2-array6-start__;
#X obj 388 -360 r 2-array7-start__;
#X obj 18 359 t b f f f;
#X obj -148 395 f;
#X obj -69 517 *;
#X obj -105 320 t b b;
#X obj 740 79 hsl 60 15 0 127 0 0 empty empty empty -2 -8 0 10 #fcfcfc
#000000 #000000 0 1;
#X obj -136 601 delay 1000;
#X obj -148 517 delay 1000;
#X obj -116 395 r sr;
#X obj -148 424 / 48000;
#X obj -148 453 * 1000;
#X obj -148 546 t b b;
#X obj -148 480 t b f f;
#X obj 283 369 r sr;
#X obj 265 683 phasor~;
#X obj 283 396 / 100, f 6;
#X msg 164 297 0;
#X obj 265 425 f;
#X obj 322 342 r 2-lengthbuf;
#X obj 265 773 env~;
#X obj 265 712 *~;
#X obj 322 365 t b f f f;
#X obj 156 401 f;
#X obj 235 523 *;
#X obj 199 326 t b b;
#X obj 168 607 delay 1000;
#X obj 156 523 delay 1000;
#X obj 188 401 r sr;
#X obj 156 430 / 48000;
#X obj 156 459 * 1000;
#X obj 156 552 t b b;
#X obj 156 486 t b f f;
#X obj 582 376 r sr;
#X obj 564 690 phasor~;
#X obj 582 403 / 100, f 6;
#X msg 463 304 0;
#X obj 564 432 f;
#X obj 621 349 r 2-lengthbuf;
#X obj 564 780 env~;
#X obj 564 719 *~;
#X obj 621 372 t b f f f;
#X obj 455 408 f;
#X obj 534 530 *;
#X obj 498 333 t b b;
#X obj 467 614 delay 1000;
#X obj 455 530 delay 1000;
#X obj 487 408 r sr;
#X obj 455 437 / 48000;
#X obj 455 466 * 1000;
#X obj 455 559 t b b;
#X obj 455 493 t b f f;
#X obj 900 371 r sr;
#X obj 882 685 phasor~;
#X obj 900 398 / 100, f 6;
#X msg 781 299 0;
#X obj 882 427 f;
#X obj 939 344 r 2-lengthbuf;
#X obj 882 775 env~;
#X obj 882 714 *~;
#X obj 939 367 t b f f f;
#X obj 773 403 f;
#X obj 852 525 *;
#X obj 816 328 t b b;
#X obj 785 609 delay 1000;
#X obj 773 525 delay 1000;
#X obj 805 403 r sr;
#X obj 773 432 / 48000;
#X obj 773 461 * 1000;
#X obj 773 554 t b b;
#X obj 773 488 t b f f;
#X obj 1207 363 r sr;
#X obj 1189 677 phasor~;
#X obj 1207 390 / 100, f 6;
#X msg 1088 291 0;
#X obj 1189 419 f;
#X obj 1246 336 r 2-lengthbuf;
#X obj 1189 767 env~;
#X obj 1189 706 *~;
#X obj 1246 359 t b f f f;
#X obj 1080 395 f;
#X obj 1159 517 *;
#X obj 1123 320 t b b;
#X obj 1092 601 delay 1000;
#X obj 1080 517 delay 1000;
#X obj 1112 395 r sr;
#X obj 1080 424 / 48000;
#X obj 1080 453 * 1000;
#X obj 1080 546 t b b;
#X obj 1080 480 t b f f;
#X obj 1511 369 r sr;
#X obj 1493 683 phasor~;
#X obj 1511 396 / 100, f 6;
#X msg 1392 297 0;
#X obj 1493 425 f;
#X obj 1550 342 r 2-lengthbuf;
#X obj 1493 773 env~;
#X obj 1493 712 *~;
#X obj 1550 365 t b f f f;
#X obj 1384 401 f;
#X obj 1463 523 *;
#X obj 1427 326 t b b;
#X obj 1396 607 delay 1000;
#X obj 1384 523 delay 1000;
#X obj 1416 401 r sr;
#X obj 1384 430 / 48000;
#X obj 1384 459 * 1000;
#X obj 1384 552 t b b;
#X obj 1384 486 t b f f;
#X obj 1810 376 r sr;
#X obj 1792 690 phasor~;
#X obj 1810 403 / 100, f 6;
#X msg 1691 304 0;
#X obj 1792 432 f;
#X obj 1849 349 r 2-lengthbuf;
#X obj 1792 780 env~;
#X obj 1792 719 *~;
#X obj 1849 372 t b f f f;
#X obj 1683 408 f;
#X obj 1762 530 *;
#X obj 1726 333 t b b;
#X obj 1695 614 delay 1000;
#X obj 1683 530 delay 1000;
#X obj 1715 408 r sr;
#X obj 1683 437 / 48000;
#X obj 1683 466 * 1000;
#X obj 1683 559 t b b;
#X obj 1683 493 t b f f;
#X obj 2128 371 r sr;
#X obj 2110 685 phasor~;
#X obj 2128 398 / 100, f 6;
#X msg 2009 299 0;
#X obj 2110 427 f;
#X obj 2167 344 r 2-lengthbuf;
#X obj 2110 775 env~;
#X obj 2110 714 *~;
#X obj 2167 367 t b f f f;
#X obj 2001 403 f;
#X obj 2080 525 *;
#X obj 2044 328 t b b;
#X obj 2013 609 delay 1000;
#X obj 2001 525 delay 1000;
#X obj 2033 403 r sr;
#X obj 2001 432 / 48000;
#X obj 2001 461 * 1000;
#X obj 2001 554 t b b;
#X obj 2001 488 t b f f;
#X obj 826 79 hsl 60 15 0 127 0 0 empty empty empty -2 -8 0 10 #fcfcfc
#000000 #000000 0 1;
#X obj 826 215 s 2-array1-silenceMult;
#X obj 909 79 hsl 60 15 0 127 0 0 empty empty empty -2 -8 0 10 #fcfcfc
#000000 #000000 0 1;
#X obj 909 189 s 2-array2-silenceMult;
#X obj 1076 78 hsl 60 15 0 127 0 0 empty empty empty -2 -8 0 10 #fcfcfc
#000000 #000000 0 1;
#X obj 1160 78 hsl 60 15 0 127 0 0 empty empty empty -2 -8 0 10 #fcfcfc
#000000 #000000 0 1;
#X obj 1244 78 hsl 60 15 0 127 0 0 empty empty empty -2 -8 0 10 #fcfcfc
#000000 #000000 0 1;
#X obj 992 79 hsl 60 15 0 127 0 0 empty empty empty -2 -8 0 10 #fcfcfc
#000000 #000000 0 1;
#X obj 992 215 s 2-array3-silenceMult;
#X obj 1076 189 s 2-array4-silenceMult;
#X obj 1160 214 s 2-array5-silenceMult;
#X obj 1244 188 s 2-array6-silenceMult;
#X obj 1329 78 hsl 60 15 0 127 0 0 empty empty empty -2 -8 0 10 #fcfcfc
#000000 #000000 0 1;
#X obj 1329 214 s 2-array7-silenceMult;
#X obj 164 268 r 2-array1-stop;
#X obj 199 297 r 2-array1-start;
#X obj 254 492 r 2-array1-silenceMult;
#X obj 188 578 s 2-array1-stop;
#X obj 168 633 s 2-array1-start;
#X obj 265 743 tabread~ 2-array1;
#X obj 564 750 tabread~ 2-array2;
#X obj 882 745 tabread~ 2-array3;
#X obj 1189 737 tabread~ 2-array4;
#X obj 1493 743 tabread~ 2-array5;
#X obj 1792 750 tabread~ 2-array6;
#X obj 2110 745 tabread~ 2-array7;
#X obj 463 275 r 2-array2-stop;
#X obj 498 304 r 2-array2-start;
#X obj 552 499 r 2-array2-silenceMult;
#X obj 487 585 s 2-array2-stop;
#X obj 467 640 s 2-array2-start;
#X obj 785 635 s 2-array3-start;
#X obj 805 580 s 2-array3-stop;
#X obj 870 494 r 2-array3-silenceMult;
#X obj 816 299 r 2-array3-start;
#X obj 781 270 r 2-array3-stop;
#X obj 1088 262 r 2-array4-stop;
#X obj 1123 291 r 2-array4-start;
#X obj 1177 486 r 2-array4-silenceMult;
#X obj 1112 572 s 2-array4-stop;
#X obj 1092 627 s 2-array4-start;
#X obj 1396 633 s 2-array5-start;
#X obj 1416 578 s 2-array5-stop;
#X obj 1481 492 r 2-array5-silenceMult;
#X obj 1427 297 r 2-array5-start;
#X obj 1392 268 r 2-array5-stop;
#X obj 1691 275 r 2-array6-stop;
#X obj 1726 304 r 2-array6-start;
#X obj 1780 499 r 2-array6-silenceMult;
#X obj 1715 585 s 2-array6-stop;
#X obj 1695 640 s 2-array6-start;
#X obj 2013 635 s 2-array7-start;
#X obj 2033 580 s 2-array7-stop;
#X obj 2098 494 r 2-array7-silenceMult;
#X obj 2044 299 r 2-array7-start;
#X obj 2009 270 r 2-array7-stop;
#X obj -3 767 *~;
#X obj 302 773 *~;
#X obj 599 780 *~;
#X obj 917 775 *~;
#X obj 1225 767 *~;
#X obj 1530 773 *~;
#X obj 1828 780 *~;
#X obj 2147 775 *~;
#X text 586 76 silence between loops;
#X floatatom 1020 -51 5 0 0 0 - - -, f 5;
#X obj 740 -6 bng 15 250 50 0 empty empty empty 17 7 0 10 #fcfcfc #000000
#000000;
#X obj 850 -337 s 2-set-current-array-number;
#X obj 1100 -290 r 2-get-current-array-number;
#X text 610 -10 load for recording;
#X obj 825 -6 bng 15 250 50 0 empty empty empty 17 7 0 10 #fcfcfc #000000
#000000;
#X obj 909 -6 bng 15 250 50 0 empty empty empty 17 7 0 10 #fcfcfc #000000
#000000;
#X obj 991 -6 bng 15 250 50 0 empty empty empty 17 7 0 10 #fcfcfc #000000
#000000;
#X msg 850 -470 -2;
#X msg 882 -469 -1;
#X msg 912 -469 0;
#X msg 942 -469 1;
#X obj 1076 -5 bng 15 250 50 0 empty empty empty 17 7 0 10 #fcfcfc
#000000 #000000;
#X obj 1161 -5 bng 15 250 50 0 empty empty empty 17 7 0 10 #fcfcfc
#000000 #000000;
#X obj 1245 -5 bng 15 250 50 0 empty empty empty 17 7 0 10 #fcfcfc
#000000 #000000;
#X obj 1327 -5 bng 15 250 50 0 empty empty empty 17 7 0 10 #fcfcfc
#000000 #000000;
#X msg 880 -440 2;
#X msg 912 -439 3;
#X msg 942 -439 4;
#X msg 972 -439 5;
#X text 1059 -51 next array in line for recording;
#X obj 1270 -490 r CLEAR;
#X msg 1270 -461 0;
#X msg 1320 -460 0;
#X obj 1100 -261 + 1;
#X obj 740 13 bng 15 250 50 0 empty empty i 5 5 0 10 #15ff6e #033806
#000000;
#X obj -374 -129 s 2-array0-start;
#X obj -397 26 delay;
#X obj -365 -103 r sr;
#X obj -365 -25 /;
#X obj -350 -80 r 2-lengthbuf;
#X obj -350 -54 t b f;
#X obj -365 0 * 1000;
#X msg -351 -153 1;
#X obj -365 85 s 2-array0-stop;
#X obj -397 55 t b b;
#X msg -397 84 0;
#X obj -397 -177 t b b b;
#X text 617 11 pulse (play once);
#X obj 825 13 bng 15 250 50 0 empty empty j 5 5 0 10 #15ff62 #033806
#000000;
#X obj -562 21 delay;
#X obj -530 -108 r sr;
#X obj -530 -30 /;
#X obj -515 -85 r 2-lengthbuf;
#X obj -515 -59 t b f;
#X obj -530 -5 * 1000;
#X msg -516 -158 1;
#X obj -562 50 t b b;
#X msg -562 79 0;
#X obj -562 -182 t b b b;
#X obj 1327 13 bng 15 250 50 0 empty empty p 5 5 0 10 #15ff62 #033806
#000000;
#X obj -390 323 delay;
#X obj -358 194 r sr;
#X obj -358 272 /;
#X obj -343 217 r 2-lengthbuf;
#X obj -343 243 t b f;
#X obj -358 297 * 1000;
#X msg -344 144 1;
#X obj -390 352 t b b;
#X msg -390 381 0;
#X obj -390 120 t b b b;
#X obj 1244 13 bng 15 250 50 0 empty empty o 5 5 0 10 #15ff62 #033806
#000000;
#X obj -560 321 delay;
#X obj -528 192 r sr;
#X obj -528 270 /;
#X obj -513 215 r 2-lengthbuf;
#X obj -513 241 t b f;
#X obj -528 295 * 1000;
#X msg -514 142 1;
#X obj -560 350 t b b;
#X msg -560 379 0;
#X obj -560 118 t b b b;
#X obj 1161 13 bng 15 250 50 0 empty empty n 5 5 0 10 #15ff62 #033806
#000000;
#X obj -722 317 delay;
#X obj -690 188 r sr;
#X obj -690 266 /;
#X obj -675 211 r 2-lengthbuf;
#X obj -675 237 t b f;
#X obj -690 291 * 1000;
#X msg -676 138 1;
#X obj -722 346 t b b;
#X msg -722 375 0;
#X obj -722 114 t b b b;
#X obj 909 13 bng 15 250 50 0 empty empty k 5 5 0 10 #15ff62 #033806
#000000;
#X obj -730 23 delay;
#X obj -698 -106 r sr;
#X obj -698 -28 /;
#X obj -683 -83 r 2-lengthbuf;
#X obj -683 -57 t b f;
#X obj -698 -3 * 1000;
#X msg -684 -156 1;
#X obj -730 52 t b b;
#X msg -730 81 0;
#X obj -730 -180 t b b b;
#X obj 1076 13 bng 15 250 50 0 empty empty m 5 5 0 10 #15ff62 #033806
#000000;
#X obj -894 315 delay;
#X obj -862 186 r sr;
#X obj -862 264 /;
#X obj -847 209 r 2-lengthbuf;
#X obj -847 235 t b f;
#X obj -862 289 * 1000;
#X msg -848 136 1;
#X obj -894 344 t b b;
#X msg -894 373 0;
#X obj -894 112 t b b b;
#X obj 991 13 bng 15 250 50 0 empty empty l 5 5 0 10 #15ff62 #033806
#000000;
#X obj -890 23 delay;
#X obj -858 -106 r sr;
#X obj -858 -28 /;
#X obj -843 -83 r 2-lengthbuf;
#X obj -843 -57 t b f;
#X obj -858 -3 * 1000;
#X msg -844 -156 1;
#X obj -890 52 t b b;
#X msg -890 81 0;
#X obj -890 -180 t b b b;
#X obj -539 -134 s 2-array1-start;
#X obj -530 80 s 2-array1-stop;
#X obj -707 -132 s 2-array2-start;
#X obj -698 82 s 2-array2-stop;
#X obj -867 -132 s 2-array3-start;
#X obj -858 82 s 2-array3-stop;
#X obj -871 160 s 2-array4-start;
#X obj -862 374 s 2-array4-stop;
#X obj -699 162 s 2-array5-start;
#X obj -690 376 s 2-array5-stop;
#X obj -528 380 s 2-array6-stop;
#X obj -358 382 s 2-array7-stop;
#X obj -367 168 s 2-array7-start;
#X obj -537 166 s 2-array6-start;
#X text 628 31 loop start/stop;
#X obj 1630 -480 key;
#X floatatom 1630 -451 5 0 0 0 - - -, f 5;
#X obj 1399 78 bng 15 250 50 0 empty empty empty 17 7 0 10 #fcfcfc
#000000 #000000;
#N canvas 741 1111 865 475 random_series 0;
#X obj 110 71 inlet bang;
#X obj 110 131 random 127;
#X obj 110 240 outlet rand1;
#X obj 200 131 random 127;
#X obj 290 131 random 127;
#X obj 380 131 random 127;
#X obj 470 131 random 127;
#X obj 560 131 random 127;
#X obj 650 131 random 127;
#X obj 740 131 random 127;
#X obj 200 240 outlet rand2;
#X obj 290 240 outlet rand3;
#X obj 380 240 outlet rand4;
#X obj 470 240 outlet rand5;
#X obj 560 240 outlet rand6;
#X obj 650 240 outlet rand7;
#X obj 740 240 outlet rand8;
#X connect 0 0 1 0;
#X connect 0 0 3 0;
#X connect 0 0 4 0;
#X connect 0 0 5 0;
#X connect 0 0 6 0;
#X connect 0 0 7 0;
#X connect 0 0 8 0;
#X connect 0 0 9 0;
#X connect 1 0 2 0;
#X connect 3 0 10 0;
#X connect 4 0 11 0;
#X connect 5 0 12 0;
#X connect 6 0 13 0;
#X connect 7 0 14 0;
#X connect 8 0 15 0;
#X connect 9 0 16 0;
#X restore 752 -399 pd random_series;
#X text 1419 66 randomize;
#X text 1419 86 loop times;
#X obj 1630 -423 sel 105 106 107 108 109 110 111 112;
#X obj 740 102 / 127;
#X obj 826 102 / 127;
#X obj 909 102 / 127;
#X obj 992 102 / 127;
#X obj 740 131 * 15;
#X obj 740 160 + 15;
#X obj 826 130 * 15;
#X obj 826 159 + 15;
#X obj 909 130 * 15;
#X obj 909 159 + 15;
#X obj 992 130 * 15;
#X obj 992 159 + 15;
#X obj 1076 129 * 15;
#X obj 1076 158 + 15;
#X obj 1159 129 * 15;
#X obj 1159 158 + 15;
#X obj 1244 130 * 15;
#X obj 1244 159 + 15;
#X obj 1329 130 * 15;
#X obj 1329 159 + 15;
#X obj 1080 100 / 127;
#X obj 1159 102 / 127;
#X obj 1245 98 / 127;
#X obj 1329 102 / 127;
#X obj 1399 6 tgl 15 0 empty empty empty 17 7 0 10 #fcfcfc #000000
#000000 0 1;
#X text 1400 -60 automatically;
#X text 1400 -40 change;
#X text 1400 -20 loop times;
#X obj 1399 30 metro 100000;
#X connect 27 0 273 1;
#X connect 28 0 274 1;
#X connect 29 0 275 1;
#X connect 30 0 276 1;
#X connect 31 0 269 1;
#X connect 32 0 270 1;
#X connect 33 0 271 1;
#X connect 34 0 272 1;
#X connect 35 0 31 0;
#X connect 35 0 32 0;
#X connect 35 0 33 0;
#X connect 35 0 34 0;
#X connect 35 0 27 0;
#X connect 35 0 28 0;
#X connect 35 0 29 0;
#X connect 35 0 30 0;
#X connect 37 0 70 1;
#X connect 41 0 43 0;
#X connect 42 0 48 0;
#X connect 43 0 45 1;
#X connect 44 0 42 0;
#X connect 45 0 42 0;
#X connect 46 0 68 0;
#X connect 47 0 10 0;
#X connect 48 0 51 0;
#X connect 49 0 44 0;
#X connect 50 0 71 0;
#X connect 51 0 269 0;
#X connect 52 0 53 0;
#X connect 53 0 31 0;
#X connect 54 0 32 0;
#X connect 55 0 54 0;
#X connect 56 0 33 0;
#X connect 57 0 34 0;
#X connect 58 0 27 0;
#X connect 59 0 28 0;
#X connect 60 0 29 0;
#X connect 61 0 30 0;
#X connect 62 0 56 0;
#X connect 63 0 57 0;
#X connect 64 0 58 0;
#X connect 65 0 59 0;
#X connect 66 0 60 0;
#X connect 67 0 61 0;
#X connect 68 0 43 0;
#X connect 68 1 43 1;
#X connect 68 2 48 1;
#X connect 68 3 69 1;
#X connect 69 0 76 0;
#X connect 70 0 73 1;
#X connect 71 0 69 0;
#X connect 71 1 45 0;
#X connect 72 0 416 0;
#X connect 73 0 40 0;
#X connect 74 0 78 0;
#X connect 75 0 76 1;
#X connect 76 0 77 0;
#X connect 77 0 79 0;
#X connect 78 0 73 0;
#X connect 78 1 39 0;
#X connect 79 0 74 0;
#X connect 79 1 74 1;
#X connect 79 2 70 0;
#X connect 80 0 82 0;
#X connect 81 0 87 0;
#X connect 82 0 84 1;
#X connect 83 0 81 0;
#X connect 84 0 81 0;
#X connect 85 0 88 0;
#X connect 86 0 8 0;
#X connect 87 0 232 0;
#X connect 88 0 82 0;
#X connect 88 1 82 1;
#X connect 88 2 87 1;
#X connect 88 3 89 1;
#X connect 89 0 95 0;
#X connect 90 0 92 1;
#X connect 91 0 89 0;
#X connect 91 1 84 0;
#X connect 92 0 231 0;
#X connect 93 0 97 0;
#X connect 94 0 95 1;
#X connect 95 0 96 0;
#X connect 96 0 98 0;
#X connect 97 0 92 0;
#X connect 97 1 230 0;
#X connect 98 0 93 0;
#X connect 98 1 93 1;
#X connect 98 2 90 0;
#X connect 99 0 101 0;
#X connect 100 0 106 0;
#X connect 101 0 103 1;
#X connect 102 0 100 0;
#X connect 103 0 100 0;
#X connect 104 0 107 0;
#X connect 105 0 11 0;
#X connect 106 0 233 0;
#X connect 107 0 101 0;
#X connect 107 1 101 1;
#X connect 107 2 106 1;
#X connect 107 3 108 1;
#X connect 108 0 114 0;
#X connect 109 0 111 1;
#X connect 110 0 108 0;
#X connect 110 1 103 0;
#X connect 111 0 243 0;
#X connect 112 0 116 0;
#X connect 113 0 114 1;
#X connect 114 0 115 0;
#X connect 115 0 117 0;
#X connect 116 0 111 0;
#X connect 116 1 242 0;
#X connect 117 0 112 0;
#X connect 117 1 112 1;
#X connect 117 2 109 0;
#X connect 118 0 120 0;
#X connect 119 0 125 0;
#X connect 120 0 122 1;
#X connect 121 0 119 0;
#X connect 122 0 119 0;
#X connect 123 0 126 0;
#X connect 124 0 12 0;
#X connect 125 0 234 0;
#X connect 126 0 120 0;
#X connect 126 1 120 1;
#X connect 126 2 125 1;
#X connect 126 3 127 1;
#X connect 127 0 133 0;
#X connect 128 0 130 1;
#X connect 129 0 127 0;
#X connect 129 1 122 0;
#X connect 130 0 244 0;
#X connect 131 0 135 0;
#X connect 132 0 133 1;
#X connect 133 0 134 0;
#X connect 134 0 136 0;
#X connect 135 0 130 0;
#X connect 135 1 245 0;
#X connect 136 0 131 0;
#X connect 136 1 131 1;
#X connect 136 2 128 0;
#X connect 137 0 139 0;
#X connect 138 0 144 0;
#X connect 139 0 141 1;
#X connect 140 0 138 0;
#X connect 141 0 138 0;
#X connect 142 0 145 0;
#X connect 143 0 13 0;
#X connect 144 0 235 0;
#X connect 145 0 139 0;
#X connect 145 1 139 1;
#X connect 145 2 144 1;
#X connect 145 3 146 1;
#X connect 146 0 152 0;
#X connect 147 0 149 1;
#X connect 148 0 146 0;
#X connect 148 1 141 0;
#X connect 149 0 253 0;
#X connect 150 0 154 0;
#X connect 151 0 152 1;
#X connect 152 0 153 0;
#X connect 153 0 155 0;
#X connect 154 0 149 0;
#X connect 154 1 252 0;
#X connect 155 0 150 0;
#X connect 155 1 150 1;
#X connect 155 2 147 0;
#X connect 156 0 158 0;
#X connect 157 0 163 0;
#X connect 158 0 160 1;
#X connect 159 0 157 0;
#X connect 160 0 157 0;
#X connect 161 0 164 0;
#X connect 162 0 14 0;
#X connect 163 0 236 0;
#X connect 164 0 158 0;
#X connect 164 1 158 1;
#X connect 164 2 163 1;
#X connect 164 3 165 1;
#X connect 165 0 171 0;
#X connect 166 0 168 1;
#X connect 167 0 165 0;
#X connect 167 1 160 0;
#X connect 168 0 254 0;
#X connect 169 0 173 0;
#X connect 170 0 171 1;
#X connect 171 0 172 0;
#X connect 172 0 174 0;
#X connect 173 0 168 0;
#X connect 173 1 255 0;
#X connect 174 0 169 0;
#X connect 174 1 169 1;
#X connect 174 2 166 0;
#X connect 175 0 177 0;
#X connect 176 0 182 0;
#X connect 177 0 179 1;
#X connect 178 0 176 0;
#X connect 179 0 176 0;
#X connect 180 0 183 0;
#X connect 181 0 16 0;
#X connect 182 0 237 0;
#X connect 183 0 177 0;
#X connect 183 1 177 1;
#X connect 183 2 182 1;
#X connect 183 3 184 1;
#X connect 184 0 190 0;
#X connect 185 0 187 1;
#X connect 186 0 184 0;
#X connect 186 1 179 0;
#X connect 187 0 263 0;
#X connect 188 0 192 0;
#X connect 189 0 190 1;
#X connect 190 0 191 0;
#X connect 191 0 193 0;
#X connect 192 0 187 0;
#X connect 192 1 262 0;
#X connect 193 0 188 0;
#X connect 193 1 188 1;
#X connect 193 2 185 0;
#X connect 194 0 196 0;
#X connect 195 0 201 0;
#X connect 196 0 198 1;
#X connect 197 0 195 0;
#X connect 198 0 195 0;
#X connect 199 0 202 0;
#X connect 200 0 15 0;
#X connect 201 0 238 0;
#X connect 202 0 196 0;
#X connect 202 1 196 1;
#X connect 202 2 201 1;
#X connect 202 3 203 1;
#X connect 203 0 209 0;
#X connect 204 0 206 1;
#X connect 205 0 203 0;
#X connect 205 1 198 0;
#X connect 206 0 264 0;
#X connect 207 0 211 0;
#X connect 208 0 209 1;
#X connect 209 0 210 0;
#X connect 210 0 212 0;
#X connect 211 0 206 0;
#X connect 211 1 265 0;
#X connect 212 0 207 0;
#X connect 212 1 207 1;
#X connect 212 2 204 0;
#X connect 213 0 417 0;
#X connect 215 0 418 0;
#X connect 217 0 436 0;
#X connect 218 0 437 0;
#X connect 219 0 438 0;
#X connect 220 0 419 0;
#X connect 225 0 439 0;
#X connect 227 0 83 0;
#X connect 228 0 91 0;
#X connect 229 0 90 1;
#X connect 232 0 270 0;
#X connect 233 0 271 0;
#X connect 234 0 272 0;
#X connect 235 0 273 0;
#X connect 236 0 274 0;
#X connect 237 0 275 0;
#X connect 238 0 276 0;
#X connect 239 0 102 0;
#X connect 240 0 110 0;
#X connect 241 0 109 1;
#X connect 246 0 128 1;
#X connect 247 0 129 0;
#X connect 248 0 121 0;
#X connect 249 0 140 0;
#X connect 250 0 148 0;
#X connect 251 0 147 1;
#X connect 256 0 166 1;
#X connect 257 0 167 0;
#X connect 258 0 159 0;
#X connect 259 0 178 0;
#X connect 260 0 186 0;
#X connect 261 0 185 1;
#X connect 266 0 204 1;
#X connect 267 0 205 0;
#X connect 268 0 197 0;
#X connect 269 0 0 0;
#X connect 269 0 47 0;
#X connect 270 0 0 0;
#X connect 270 0 86 0;
#X connect 271 0 0 0;
#X connect 271 0 105 0;
#X connect 272 0 0 0;
#X connect 272 0 124 0;
#X connect 273 0 0 0;
#X connect 273 0 143 0;
#X connect 274 0 0 0;
#X connect 274 0 162 0;
#X connect 275 0 0 0;
#X connect 275 0 181 0;
#X connect 276 0 0 0;
#X connect 276 0 200 0;
#X connect 279 0 286 0;
#X connect 281 0 302 0;
#X connect 283 0 287 0;
#X connect 284 0 288 0;
#X connect 285 0 289 0;
#X connect 286 0 280 0;
#X connect 287 0 280 0;
#X connect 288 0 280 0;
#X connect 289 0 280 0;
#X connect 290 0 294 0;
#X connect 291 0 295 0;
#X connect 292 0 296 0;
#X connect 293 0 297 0;
#X connect 294 0 280 0;
#X connect 295 0 280 0;
#X connect 296 0 280 0;
#X connect 297 0 280 0;
#X connect 299 0 300 0;
#X connect 299 0 301 0;
#X connect 300 0 31 0;
#X connect 300 0 32 0;
#X connect 300 0 33 0;
#X connect 300 0 34 0;
#X connect 300 0 27 0;
#X connect 300 0 28 0;
#X connect 300 0 29 0;
#X connect 300 0 30 0;
#X connect 301 0 72 0;
#X connect 301 0 213 0;
#X connect 301 0 215 0;
#X connect 301 0 220 0;
#X connect 301 0 217 0;
#X connect 301 0 218 0;
#X connect 301 0 219 0;
#X connect 301 0 225 0;
#X connect 302 0 278 0;
#X connect 303 0 315 0;
#X connect 305 0 313 0;
#X connect 306 0 307 0;
#X connect 307 0 310 0;
#X connect 308 0 309 0;
#X connect 309 0 307 0;
#X connect 309 1 307 1;
#X connect 310 0 305 1;
#X connect 311 0 31 0;
#X connect 313 0 314 0;
#X connect 313 1 312 0;
#X connect 314 0 31 0;
#X connect 315 0 305 0;
#X connect 315 1 304 0;
#X connect 315 2 311 0;
#X connect 317 0 327 0;
#X connect 318 0 325 0;
#X connect 319 0 320 0;
#X connect 320 0 323 0;
#X connect 321 0 322 0;
#X connect 322 0 320 0;
#X connect 322 1 320 1;
#X connect 323 0 318 1;
#X connect 324 0 32 0;
#X connect 325 0 326 0;
#X connect 325 1 395 0;
#X connect 326 0 32 0;
#X connect 327 0 318 0;
#X connect 327 1 394 0;
#X connect 327 2 324 0;
#X connect 328 0 338 0;
#X connect 329 0 336 0;
#X connect 330 0 331 0;
#X connect 331 0 334 0;
#X connect 332 0 333 0;
#X connect 333 0 331 0;
#X connect 333 1 331 1;
#X connect 334 0 329 1;
#X connect 335 0 30 0;
#X connect 336 0 337 0;
#X connect 336 1 405 0;
#X connect 337 0 30 0;
#X connect 338 0 329 0;
#X connect 338 1 406 0;
#X connect 338 2 335 0;
#X connect 339 0 349 0;
#X connect 340 0 347 0;
#X connect 341 0 342 0;
#X connect 342 0 345 0;
#X connect 343 0 344 0;
#X connect 344 0 342 0;
#X connect 344 1 342 1;
#X connect 345 0 340 1;
#X connect 346 0 29 0;
#X connect 347 0 348 0;
#X connect 347 1 404 0;
#X connect 348 0 29 0;
#X connect 349 0 340 0;
#X connect 349 1 407 0;
#X connect 349 2 346 0;
#X connect 350 0 360 0;
#X connect 351 0 358 0;
#X connect 352 0 353 0;
#X connect 353 0 356 0;
#X connect 354 0 355 0;
#X connect 355 0 353 0;
#X connect 355 1 353 1;
#X connect 356 0 351 1;
#X connect 357 0 28 0;
#X connect 358 0 359 0;
#X connect 358 1 403 0;
#X connect 359 0 28 0;
#X connect 360 0 351 0;
#X connect 360 1 402 0;
#X connect 360 2 357 0;
#X connect 361 0 371 0;
#X connect 362 0 369 0;
#X connect 363 0 364 0;
#X connect 364 0 367 0;
#X connect 365 0 366 0;
#X connect 366 0 364 0;
#X connect 366 1 364 1;
#X connect 367 0 362 1;
#X connect 368 0 33 0;
#X connect 369 0 370 0;
#X connect 369 1 397 0;
#X connect 370 0 33 0;
#X connect 371 0 362 0;
#X connect 371 1 396 0;
#X connect 371 2 368 0;
#X connect 372 0 382 0;
#X connect 373 0 380 0;
#X connect 374 0 375 0;
#X connect 375 0 378 0;
#X connect 376 0 377 0;
#X connect 377 0 375 0;
#X connect 377 1 375 1;
#X connect 378 0 373 1;
#X connect 379 0 27 0;
#X connect 380 0 381 0;
#X connect 380 1 401 0;
#X connect 381 0 27 0;
#X connect 382 0 373 0;
#X connect 382 1 400 0;
#X connect 382 2 379 0;
#X connect 383 0 393 0;
#X connect 384 0 391 0;
#X connect 385 0 386 0;
#X connect 386 0 389 0;
#X connect 387 0 388 0;
#X connect 388 0 386 0;
#X connect 388 1 386 1;
#X connect 389 0 384 1;
#X connect 390 0 34 0;
#X connect 391 0 392 0;
#X connect 391 1 399 0;
#X connect 392 0 34 0;
#X connect 393 0 384 0;
#X connect 393 1 398 0;
#X connect 393 2 390 0;
#X connect 409 0 410 0;
#X connect 410 0 415 0;
#X connect 411 0 412 0;
#X connect 412 0 72 0;
#X connect 412 1 213 0;
#X connect 412 2 215 0;
#X connect 412 3 220 0;
#X connect 412 4 217 0;
#X connect 412 5 218 0;
#X connect 412 6 219 0;
#X connect 412 7 225 0;
#X connect 415 0 303 0;
#X connect 415 1 317 0;
#X connect 415 2 361 0;
#X connect 415 3 383 0;
#X connect 415 4 372 0;
#X connect 415 5 350 0;
#X connect 415 6 339 0;
#X connect 415 7 328 0;
#X connect 416 0 420 0;
#X connect 417 0 422 0;
#X connect 418 0 424 0;
#X connect 419 0 426 0;
#X connect 420 0 421 0;
#X connect 421 0 38 0;
#X connect 422 0 423 0;
#X connect 423 0 214 0;
#X connect 424 0 425 0;
#X connect 425 0 216 0;
#X connect 426 0 427 0;
#X connect 427 0 221 0;
#X connect 428 0 429 0;
#X connect 429 0 222 0;
#X connect 430 0 431 0;
#X connect 431 0 223 0;
#X connect 432 0 433 0;
#X connect 433 0 224 0;
#X connect 434 0 435 0;
#X connect 435 0 226 0;
#X connect 436 0 428 0;
#X connect 437 0 430 0;
#X connect 438 0 432 0;
#X connect 439 0 434 0;
#X connect 440 0 444 0;
#X connect 444 0 411 0;
#X coords 0 -1 1 1 926 193 1 580 -86;
#X restore 382 -322 pd TheArrays;
#N canvas 508 185 1351 839 init 0;
#X obj 20 13 loadbang;
#X obj 20 42 samplerate~;
#X obj 20 71 s sr;
#X obj 86 16 bng 15 250 50 0 empty empty empty 17 7 0 10 #fcfcfc #000000
#000000;
#X obj 189 36 loadbang;
#X msg 57 220 \; 2-array0 resize \$1;
#X msg 66 260 \; 2-array1 resize \$1;
#X msg 81 301 \; 2-array2 resize \$1;
#X msg 89 341 \; 2-array3 resize \$1;
#X msg 209 220 \; 2-array4 resize \$1;
#X msg 218 260 \; 2-array5 resize \$1;
#X msg 233 301 \; 2-array6 resize \$1;
#X msg 243 341 \; 2-array7 resize \$1;
#X obj 57 190 r 2-lengthbuf;
#X obj 189 94 s 2-lengthbuf;
#X obj 140 -101 r INIT;
#X obj 512 -138 r CLEAR;
#X msg 471 -78 \; 2-array0 const 0;
#X msg 480 -38 \; 2-array1 const 0;
#X msg 495 3 \; 2-array2 const 0;
#X msg 503 43 \; 2-array3 const 0;
#X msg 623 -78 \; 2-array4 const 0;
#X msg 632 -38 \; 2-array5 const 0;
#X msg 647 3 \; 2-array6 const 0;
#X msg 657 43 \; 2-array7 const 0;
#X msg 189 65 48000;
#X connect 0 0 1 0;
#X connect 1 0 2 0;
#X connect 3 0 1 0;
#X connect 4 0 25 0;
#X connect 13 0 5 0;
#X connect 13 0 6 0;
#X connect 13 0 7 0;
#X connect 13 0 8 0;
#X connect 13 0 12 0;
#X connect 13 0 11 0;
#X connect 13 0 10 0;
#X connect 13 0 9 0;
#X connect 15 0 25 0;
#X connect 15 0 1 0;
#X connect 16 0 17 0;
#X connect 16 0 18 0;
#X connect 16 0 19 0;
#X connect 16 0 20 0;
#X connect 16 0 21 0;
#X connect 16 0 22 0;
#X connect 16 0 23 0;
#X connect 16 0 24 0;
#X connect 25 0 14 0;
#X restore 79 -549 pd init;
#X obj 79 -469 s INIT;
#X obj 79 -479 bng 50 250 50 0 empty empty init 7 24 0 14 #fcfcfc #000000
#000000;
#X obj 79 -386 s CLEAR;
#X obj 79 -416 bng 50 250 50 0 empty empty clear 5 24 0 14 #fcfcfc
#000000 #000000;
#X text 129 -469 re-send init values;
#X text 129 -409 clear everyone;
#X text 129 -389 & get started afresh;
#N canvas 6 34 1908 1015 buffer-read-and-write 0;
#X obj 238 -1246 delread~ buffer2;
#X obj 238 -1198 *~;
#X obj 260 -1335 line~;
#X obj 225 -1444 delay 100;
#X obj 345 -1943 + 1;
#X msg 321 -1575 start;
#X obj 177 -1581 delay 100;
#X msg 177 -1556 stop;
#X msg 210 -1494 set \$1;
#X obj 96 -1121 tabwrite~;
#X text 377 -1915 adjust to number of available arrays;
#X obj 345 -1866 makefilename 2-array%d;
#X msg 320 -1792 \; \$1-stop bang;
#X obj 320 -1821 symbol;
#X obj 345 -1968 f -1;
#X text 399 -2011 reset;
#X obj 271 -2030 t b b b b, f 11;
#X text 444 -2042 2- stop reading this table;
#X text 444 -2022 3- write in this table;
#X text 444 -2002 4- re-start reading this table;
#X obj 270 -1741 symbol;
#X msg 270 -1712 \; \$1-start bang;
#X obj 270 -1964 delay 500;
#X text 465 -1984 after a while;
#X obj 237 -1609 r 2-lengthbuf;
#X obj 285 -1474 r 2-lengthbuf;
#X obj 384 -2039 r CLEAR;
#X obj 177 -1640 t b b b b, f 21;
#X obj 225 -1308 loadbang;
#X text 444 -2062 1- get name of table & forward to tabwrite~;
#X text 352 -1648 3- write in this table;
#X text 378 -1628 3a- start writing immediately;
#X text 378 -1608 3b- let the delayed buffer signal pass;
#X text 378 -1588 3c- block the delayed buffer signal \, after 100
ms (or the length of the buffer \, as defined by the user);
#X msg 225 -1415 0 1;
#X msg 273 -1384 1 1;
#X text 378 -1552 3d- stop writing;
#X msg 225 -1277 900;
#X msg 388 -1710 \; \$1-start__ bang;
#X msg 406 -1967 -2;
#X obj 510 -1810 s 2-get-current-array-number;
#X obj 20 -2040 r 2-set-current-array-number;
#X obj 271 -2059 r att2;
#X obj 345 -1914 % 8;
#X connect 0 0 1 0;
#X connect 1 0 9 0;
#X connect 2 0 1 1;
#X connect 3 0 34 0;
#X connect 4 0 14 1;
#X connect 4 0 43 0;
#X connect 5 0 9 0;
#X connect 6 0 7 0;
#X connect 7 0 9 0;
#X connect 8 0 9 0;
#X connect 11 0 13 1;
#X connect 11 0 20 1;
#X connect 11 0 8 0;
#X connect 13 0 12 0;
#X connect 14 0 4 0;
#X connect 16 0 22 0;
#X connect 16 1 27 0;
#X connect 16 2 13 0;
#X connect 16 3 14 0;
#X connect 20 0 21 0;
#X connect 20 0 38 0;
#X connect 22 0 20 0;
#X connect 24 0 6 1;
#X connect 25 0 3 1;
#X connect 26 0 39 0;
#X connect 27 0 6 0;
#X connect 27 1 3 0;
#X connect 27 2 35 0;
#X connect 27 3 5 0;
#X connect 28 0 37 0;
#X connect 34 0 2 0;
#X connect 35 0 2 0;
#X connect 37 0 0 0;
#X connect 39 0 14 0;
#X connect 41 0 14 0;
#X connect 42 0 16 0;
#X connect 43 0 11 0;
#X connect 43 0 40 0;
#X restore 80 -524 pd buffer-read-and-write;
#X obj 473 -81 env~;
#X floatatom 473 -52 5 0 0 0 - - -, f 5;
#X obj 382 101 outlet~;
#X obj 322 -270 bng 57 250 50 0 empty empty ATTACK 7 26 0 12 #ffea24
#ff0000 #000000;
#X obj 150 -270 r att2;
#N canvas 467 221 1059 806 detect-attacks 0;
#X obj 244 14 inlet~;
#X obj 206 121 bonk~;
#X obj 141 21 loadbang;
#X obj 206 158 t b b b, f 24;
#X msg 288 188 0;
#X obj 319 273 spigot;
#X obj 420 143 loadbang;
#X msg 420 172 1;
#X obj 206 187 delay 300;
#X msg 206 216 1;
#X text 365 204 allow an attack to pass and then close during 300ms
before allowing the next possible attack to pass through;
#X msg 141 49 minvel 30;
#X obj 319 302 s att2;
#X connect 0 0 1 0;
#X connect 1 0 3 0;
#X connect 2 0 11 0;
#X connect 3 0 8 0;
#X connect 3 1 4 0;
#X connect 3 2 5 0;
#X connect 4 0 5 1;
#X connect 5 0 12 0;
#X connect 6 0 7 0;
#X connect 7 0 5 1;
#X connect 8 0 9 0;
#X connect 9 0 5 1;
#X connect 11 0 1 0;
#X coords 0 0 1 1 124 124 0;
#X restore 455 -421 pd detect-attacks;
#X obj 395 -541 inlet~;
#X obj 455 -471 *~;
#X obj 495 -341 tgl 15 0 empty empty empty 17 7 0 10 #fcfcfc #000000
#000000 1 1;
#X text 512 -343 let audio in;
#X obj 480 -445 delwrite~ buffer2 3000;
#X connect 1 0 11 0;
#X connect 1 0 13 0;
#X connect 4 0 3 0;
#X connect 6 0 5 0;
#X connect 11 0 12 0;
#X connect 15 0 14 0;
#X connect 17 0 18 0;
#X connect 18 0 16 0;
#X connect 18 0 21 0;
#X connect 19 0 18 1;
#X coords 0 -1 1 1 997 217 1 316 -344;
#X restore 820 310 pd saccades2;
#X obj 20 -47 adc~ 1;
#X text 70 -47 JB;
#X obj 694 -49 adc~ 1;
#X text 694 -69 JB;
#X obj 705 269 adc~ 2, f 7;
#X obj 20 477 adc~ 2;
#X text 69 477 Sakina;
#X obj -95 -44 adc~ 1 2;
#X obj -95 -19 env~;
#X floatatom -95 10 5 0 0 0 - - -, f 5;
#X obj -42 -19 env~;
#X floatatom -42 10 5 0 0 0 - - -, f 5;
#N canvas 486 214 825 696 MIX 0;
#X obj 12 -13 inlet~;
#X text 30 10 JB direct;
#X obj 421 -25 inlet~;
#X text 439 -2 Sakina direct;
#X obj 131 -22 inlet~;
#X text 149 1 JB loops;
#X obj 572 -23 inlet~;
#X text 590 0 Sakina loops;
#X obj 160 424 *~;
#X obj 254 160 vsl 15 128 0 127 0 0 empty empty empty 0 -9 0 10 #fcfcfc
#000000 #000000 3900 1;
#X obj 178 395 / 127;
#X obj 210 424 *~;
#X obj 314 160 vsl 15 128 0 127 0 0 empty empty empty 0 -9 0 10 #fcfcfc
#000000 #000000 0 1;
#X obj 228 395 / 127;
#X obj 392 431 *~;
#X obj 410 402 / 127;
#X obj 442 431 *~;
#X obj 460 402 / 127;
#X text 240 140 direct;
#X text 302 140 loops;
#X text 256 120 --- JB ---;
#X obj 466 162 vsl 15 128 0 127 0 0 empty empty empty 0 -9 0 10 #fcfcfc
#000000 #000000 5300 1;
#X obj 526 162 vsl 15 128 0 127 0 0 empty empty empty 0 -9 0 10 #fcfcfc
#000000 #000000 0 1;
#X text 452 142 direct;
#X text 514 142 loops;
#X text 450 120 --- Sakina ---;
#X obj 710 -20 inlet~;
#X obj 230 -20 inlet~;
#X text 240 10 JB spectres;
#X obj 262 426 *~;
#X obj 370 161 vsl 15 128 0 127 0 0 empty empty empty 0 -9 0 10 #fcfcfc
#000000 #000000 0 1;
#X obj 280 397 / 127;
#X text 354 140 spectres;
#X obj 583 161 vsl 15 128 0 127 0 0 empty empty empty 0 -9 0 10 #fcfcfc
#000000 #000000 0 1;
#X text 567 140 spectres;
#X obj 512 429 *~;
#X obj 530 400 / 127;
#X text 730 0 Sakina spectres;
#X obj 160 550 outlet~;
#X obj 210 579 outlet~;
#X obj 262 610 outlet~;
#X obj 392 541 outlet~;
#X obj 442 570 outlet~;
#X obj 512 601 outlet~;
#X connect 0 0 8 0;
#X connect 2 0 14 0;
#X connect 4 0 11 0;
#X connect 6 0 16 0;
#X connect 8 0 38 0;
#X connect 9 0 10 0;
#X connect 10 0 8 1;
#X connect 11 0 39 0;
#X connect 12 0 13 0;
#X connect 13 0 11 1;
#X connect 14 0 41 0;
#X connect 15 0 14 1;
#X connect 16 0 42 0;
#X connect 17 0 16 1;
#X connect 21 0 15 0;
#X connect 22 0 17 0;
#X connect 26 0 35 0;
#X connect 27 0 29 0;
#X connect 29 0 40 0;
#X connect 30 0 31 0;
#X connect 31 0 29 1;
#X connect 33 0 36 0;
#X connect 35 0 43 0;
#X connect 36 0 35 1;
#X coords 0 -1 1 1 419 215 1 225 94;
#X restore 700 600 pd MIX;
#X text 700 930 casserole/papier;
#X text 830 930 gobelet/applique;
#X obj 700 960 dac~ 1 2 3 4, f 64;
#X text 1160 940 -> SIMON;
#X text 930 727 _;
#X text 714 740 _;
#X connect 1 0 17 1;
#X connect 2 0 17 2;
#X connect 3 0 17 5;
#X connect 4 0 17 4;
#X connect 5 0 2 0;
#X connect 7 0 17 0;
#X connect 7 0 1 0;
#X connect 9 0 17 3;
#X connect 9 0 4 0;
#X connect 10 0 3 0;
#X connect 12 0 13 0;
#X connect 12 1 15 0;
#X connect 13 0 14 0;
#X connect 15 0 16 0;
#X connect 17 0 20 1;
#X connect 17 1 20 1;
#X connect 17 2 20 3;
#X connect 17 3 20 0;
#X connect 17 4 20 0;
#X connect 17 5 20 3;
