#N canvas 554 110 392 458 10;
#N canvas 886 375 450 300 sub-patch 1;
#X obj 10 24 table woof_6;
#X restore 87 395 pd sub-patch;
#X obj 87 350 s pd-sub-patch;
#X msg 87 297 obj 20 50 table array_99;
#X text 26 297 click me;
#X text 9 395 look inside;
#X text 145 143 x;
#X msg 227 64 symbol woof_6;
#X msg 158 252 obj \$1 \$2 \$3 \$4;
#X obj 158 226 pack f f s s;
#X msg 204 97 symbol table;
#X obj 158 47 t b b b b;
#X msg 158 142 40;
#X msg 181 196 80;
#X text 168 195 y;
#X obj 158 18 bng 15 250 50 0 empty empty empty 17 7 0 10 -262144 -1
-1;
#X text 55 88 program it >>>>;
#X text 252 140 use me to \; set position and \; array name;
#X connect 2 0 1 0;
#X connect 6 0 8 3;
#X connect 7 0 1 0;
#X connect 8 0 7 0;
#X connect 9 0 8 2;
#X connect 10 0 11 0;
#X connect 10 1 12 0;
#X connect 10 2 9 0;
#X connect 10 3 6 0;
#X connect 11 0 8 0;
#X connect 12 0 8 1;
#X connect 14 0 10 0;
